<?xml version="1.0" encoding="UTF-8"?>
<svg id="_图层_2" data-name="图层 2" xmlns="http://www.w3.org/2000/svg" xmlns:xlink="http://www.w3.org/1999/xlink" viewBox="0 0 1024 1024">
  <defs>
    <style>
      .cls-1 {
        fill: url(#_未命名的渐变_241-8);
      }

      .cls-2 {
        fill: url(#_未命名的渐变_241-9);
      }

      .cls-3 {
        fill: none;
      }

      .cls-4 {
        fill: url(#_未命名的渐变_241-7);
      }

      .cls-5 {
        fill: url(#_未命名的渐变_241-3);
      }

      .cls-6 {
        fill: url(#_未命名的渐变_241-5);
      }

      .cls-7 {
        fill: url(#_未命名的渐变_241-2);
      }

      .cls-8 {
        fill: url(#_未命名的渐变_241-6);
      }

      .cls-9 {
        fill: url(#_未命名的渐变_241-4);
      }

      .cls-10 {
        fill: url(#_未命名的渐变_241);
      }
    </style>
    <linearGradient id="_未命名的渐变_241" data-name="未命名的渐变 241" x1="136.12" y1="796.31" x2="867.12" y2="217.31" gradientUnits="userSpaceOnUse">
      <stop offset="0" stop-color="#7643a0"/>
      <stop offset="1" stop-color="#00caff"/>
    </linearGradient>
    <linearGradient id="_未命名的渐变_241-2" data-name="未命名的渐变 241" x1="-95.5" y1="503.88" x2="635.5" y2="-75.12" xlink:href="#_未命名的渐变_241"/>
    <linearGradient id="_未命名的渐变_241-3" data-name="未命名的渐变 241" x1="150.07" y1="813.91" x2="881.07" y2="234.91" xlink:href="#_未命名的渐变_241"/>
    <linearGradient id="_未命名的渐变_241-4" data-name="未命名的渐变 241" x1="181.46" y1="853.55" x2="912.46" y2="274.55" xlink:href="#_未命名的渐变_241"/>
    <linearGradient id="_未命名的渐变_241-5" data-name="未命名的渐变 241" x1="216.25" y1="897.46" x2="947.25" y2="318.46" xlink:href="#_未命名的渐变_241"/>
    <linearGradient id="_未命名的渐变_241-6" data-name="未命名的渐变 241" x1="275.01" y1="971.66" x2="1006.01" y2="392.66" xlink:href="#_未命名的渐变_241"/>
    <linearGradient id="_未命名的渐变_241-7" data-name="未命名的渐变 241" x1="318.61" y1="1026.7" x2="1049.61" y2="447.7" xlink:href="#_未命名的渐变_241"/>
    <linearGradient id="_未命名的渐变_241-8" data-name="未命名的渐变 241" x1="253.68" y1="944.73" x2="984.68" y2="365.73" xlink:href="#_未命名的渐变_241"/>
    <linearGradient id="_未命名的渐变_241-9" data-name="未命名的渐变 241" x1="335.95" y1="1048.59" x2="1066.95" y2="469.59" xlink:href="#_未命名的渐变_241"/>
  </defs>
  <g id="_图层_1-2" data-name="图层 1">
    <g>
      <g>
        <path class="cls-10" d="M652.73,189.25c42.78-24.96,101.84-16.59,136.2,19.02,9.53,9.67,16.61,21.43,22.48,33.58,10.85-7.35,22.47-13.87,35.47-16.55,23.58-5.67,49.01-1.04,69.89,11.01,23.26,13.11,40.32,37.37,43.18,64.1,1.25,15.27-1.49,31.17-9.43,44.41-7.52,13.09-19.87,23.85-34.62,27.77-13.52,2.25-26.8-2.29-40.16-3.66-29.35-3.59-59.53.59-86.92,11.68-35.33,14.08-66.01,37.08-99.29,55.07-25.45,14.18-52.92,24.77-81.47,30.68-63.74,12.64-132.13.38-187.51-33.63,5.5.09,10.57,2.39,15.86,3.59,65.87,16.8,138.44,6.03,196.32-29.69,23.12-14.21,44.41-33.01,56.75-57.57,4.51-8.53,6.41-18.24,6.52-27.82-4.96,30.39-33.99,52.87-63.72,56.06-27.25,2.81-55.59-10.94-70.26-34.1-11.72-17.51-14.89-40.6-8.23-60.59,7.75-24.39,30.41-44.53,56.53-45.59,8.46-20,23.54-37.04,42.42-47.77Z"/>
        <path class="cls-7" d="M33.68,203.31c-.1-4.94,5.77-1.27,8.11-.29,32.1,17.16,67.81,25.31,102.31,36.14,24.25,7.04,48.57,13.78,72.84,20.72,5.29,1.53,10.99,3.76,13.68,8.94,6.26,11.44,11.23,23.54,17.06,35.21,9,18.13,17.07,37.15,30.58,52.54,4.94,6.31,11.27,11.25,17.04,16.75-11.74,13.28-24.25,25.83-36.72,38.43-26.92-27.13-55.68-52.39-83.14-78.96-.97-7.07.8-14.46-1.33-21.39-3.45-6.71-11.61-7.87-18.37-8.48-3.92-.62-8.62.42-11.58-2.88-26.57-25.52-53.43-50.76-80.57-75.63-6.5-5.51-12.53-12.03-20.78-14.91.05,3,1.04,5.89,3.35,7.92,30.23,30.61,61.82,59.86,92.33,90.19-.26,6.29-.87,12.62-.42,18.93-.19,6.08,5.76,9.79,10.78,11.68,6,2.41,12.57,1.27,18.79,2.24,5.32,3.88,9.62,8.96,14.35,13.52,22.9,21.98,45.76,43.98,68.66,65.98-12.78,13.4-25.97,26.42-38.48,40.06-13.09-13.05-27.34-25.15-43.94-33.49-20.28-10.76-41.9-18.63-63.32-26.71-5.72-1.96-9.69-6.99-11.01-12.78-14.41-53.01-30.04-105.78-49.82-157.07-3.15-9-8.62-17.25-10.38-26.66Z"/>
        <path class="cls-5" d="M316.64,379.98c1.87-2.58,5.5-2.93,7.49-.26,42.38,42.45,90.33,81.56,147.16,102.74,39.14,14.08,81.39,20.51,122.87,15.9,35.59-3.59,69.89-15.6,101.18-32.69,32.12-17.59,63.58-37.15,98.55-48.73,31.41-10.87,65.21-15.25,98.29-11.06,31.55,4.04,62.98,14.32,88.67,33.47,3.62,2.98,10.47,7.78,5.84,12.86-12.07,13.69-29.61,21.24-46.93,25.85-17.79,4.7-36.35,4.72-54.36,8.13-33.98,5.51-66.1,19.73-94.87,38.33-25.85,16.09-49.35,35.61-75.53,51.17-29.83,18.37-62.49,32.23-96.57,40.39-73.41,17.3-151.59,9.31-221.8-17.23-59.01-22.41-111.43-58.63-160.5-97.73-6.71-5.04-13.66-9.79-19.76-15.6,1.91-4.04,5.1-7.19,8.29-10.23,30.77-31.67,61.47-63.41,92-95.31Z"/>
        <path class="cls-9" d="M328.79,695.7c1.4-3.47,3-7.92,7.42-8.11,5.2-.28,11.89.42,14.94,5.24,1.35,4.85-2.29,9.4-3.45,13.97,16.12.03,32.28-.61,48.38.19,8.75,2.24,5.56,16.99-2.93,17.01-9.22.55-18.46.36-27.68.31,2.69,7.06,9.88,13.23,8.32,21.27-3.59,4.51-11.91,8.08-16.73,3.62-5.2-7.84-8.39-16.8-12.98-24.96-1.99-1.07-4.89-.95-5.84,1.4-6.41,9.97-13.83,19.69-23.7,26.49-6.78,4.25-20.32-5.93-13-12.95,11.58-12.72,20.85-27.51,27.25-43.48Z"/>
        <path class="cls-6" d="M419.94,691.44c1.39-4.77,7.42-4.87,11.42-4.19,4.07.71,9.95,3.43,8.6,8.53-.62,3.66-2.05,7.11-3.22,10.63,17.84.12,35.69-.16,53.53.05,3.9-.21,7.52,2.79,7.92,6.74.94,4.18-1.85,7.77-4.56,10.59-10.97.52-21.95.42-32.92.54,2.57,4.66,6.34,8.68,8.1,13.75.17,5.88-6.67,8.41-11.46,9.4-3.41,1.21-5.93-1.92-7.4-4.49-3.69-6.24-7.47-12.45-10.47-19.05-3.33-.14-6.64-.23-9.93-.24-5.95,8.74-12.17,17.85-20.96,23.96-5.67,3.73-11.77-2.2-14.37-6.95-.5-3.52,2.46-5.98,4.35-8.51,9.97-11.86,16.52-26.14,21.37-40.74Z"/>
        <path class="cls-8" d="M568.93,691.21c3.88-6.71,15.31-6.02,19.97-.42,1.07,6.14.54,12.41.5,18.62,9.59.05,19.19-.21,28.79.24,1.28,1.21,2.6,2.44,3.94,3.69,1.18,5.22.42,12.27-5.56,14.06-8.46,1.53-17.09.09-25.62.33,8.41,7.28,19.09,11.41,27.44,18.77,3.59,5.44-2.84,13.59-8.53,13.76-8.06-3.02-13.8-10.07-20.3-15.46.21,11.35.61,22.78-.42,34.11-.45,4.07-5.44,5.43-8.88,5.84-4.56.61-10.96-.52-11.93-5.84-.4-9.92.16-19.85-.33-29.75-7.99,10.92-17.3,21.15-28.65,28.6-6.34,5.03-15.58-2.11-15.25-9.22,1.77-4.02,5.81-6.31,8.88-9.22,10.96-9.01,20.99-19.28,28.95-31.06-8.82-.24-17.68.21-26.49-.45-8.86-.69-10.64-15.9-1.79-18.11,11.48-.76,23-.19,34.51-.24.36-6.07-.73-12.34.76-18.25Z"/>
        <path class="cls-4" d="M662.03,690.83c4.78-6.1,17.01-5.74,20.52,1.51.64,5.67.21,11.41.23,17.11,12.65,0,25.33-.17,37.98.26,8.6,2.48,6.85,17.04-1.7,18.27-10,.83-20.06-.1-30.08.31,10.63,12.15,22.45,23.37,35.68,32.68,8.67,5.27-1.04,18.01-8.89,16.19-8.18-3.35-13.87-10.45-20.07-16.4-4.85-4.58-8.63-10.07-12.85-15.15-.33,10.57.35,21.17-.36,31.74-1.39,9.34-15.76,10.02-20.84,3.41-.85-10.83-.71-21.72-.43-32.59-7.68,11.44-17.58,21.56-29.26,28.93-4.23,1.75-7.25-2.65-9.98-5.1-2.31-1.96-4.19-5.7-1.14-7.9,12.2-11.27,24.98-22.22,34.76-35.74-7.51-.14-15.12.76-22.54-.66-7.73-2.36-8.3-15.12-.68-17.96,9.74-.64,19.52-.03,29.26-.29.14-6.21-.23-12.45.4-18.62Z"/>
        <path class="cls-1" d="M462.1,750.69c4.51-.45,9.5-1.3,13.64,1.07,5.1,4.04,4.07,13.83-2.89,15.13-23.09,4.28-46.54,6.64-69.91,8.84-.02,5.44-.1,10.89-.26,16.33,22.83-1.7,45.59-3.97,68.44-5.43,5.36-.85,8.7,4.68,7.8,9.45.05,5.03-4.77,8.11-9.29,8.49-22.4,1.91-44.72,4.51-67.14,6.07.23,5.55.1,11.13-.23,16.69,29.38-1.21,58.68-4.94,88.03-6.71,9.62,1.32,9.22,16.95-.09,18.44-29.28,2.86-58.56,5.79-87.9,7.82.38,7.09-.57,14.32.78,21.34.88,4.09,4.99,6.38,8.96,6.31,16.24,1.04,32.55.61,48.81.38,5.25-.35,11.58.21,15.2-4.47,4.58-4.85,2.5-12.22,4.75-17.7,6.45-3.66,19.1.33,18.15,9.45-.36,9.86-3.4,20.75-12.12,26.45-8.08,5.77-18.43,4.89-27.81,5.34-17.94,0-35.88.19-53.79-.59-11.42-.33-22.81-7.78-25.78-19.14-1.25-8.39-.55-16.9-.81-25.34-22.81,2.27-45.73,3.87-68.63,5.3-6.24.88-12.05-4.91-10.68-11.18.07-5.37,5.67-8.03,10.38-8.1,22.95-1.44,45.83-3.71,68.78-5.27.21-5.82.26-11.65.29-17.47-16.62,1.75-33.33,2.37-50.01,3.59-4.84-.02-11.15,1.72-14.42-3.02-3.43-5.06-1.47-14.91,5.88-14.82,19.5-1.53,39-3.28,58.56-3.94.12-5.37.21-10.71.35-16.05-16.12.9-32.23,1.65-48.33,2.65-4.44.12-9.64.92-13.07-2.55-5.55-4.92-1.32-16.03,6.36-15.15,46.15-2.06,92.17-6.38,137.98-12.24Z"/>
        <path class="cls-2" d="M604,776.83c5.46-2.08,12.38-.16,16.26,4.18,1.11,5.3-2.98,9.64-6.5,13,24.63-1.47,49.39-.33,74.07-.55,6.22-.71,13.33,2.83,13.97,9.59-.88,7.11-5.15,13.17-9.17,18.88-15.77,21.58-38.08,37.43-61.73,49.37-26.54,12.22-54.86,20.61-83.76,24.82-7.94,1.85-15.84-6.57-12.9-14.34,2.2-6.05,9.55-5.81,14.79-7.11,22.07-4.54,43.72-11.16,64.71-19.29-10.52-7.9-21.98-14.87-31.01-24.53,4.33-5.06,11.51-11.34,18.31-6.67,10.73,6.02,22.97,11.93,29.09,23.14,15.43-9.4,30.47-20.52,41.14-35.29-24.49-.05-49.02-.66-73.48.14-14.49,10.05-29.26,20.21-45.8,26.63-6.86,3.29-15.25-3.99-14.09-11.18,1.59-3.31,5.34-4.61,8.27-6.47,15.6-8.75,30.27-19.14,43.81-30.82,4.99-4.18,8.58-9.9,14.04-13.49Z"/>
      </g>
      <rect class="cls-3" width="1024" height="1024"/>
    </g>
  </g>
</svg>