<?xml version="1.0" encoding="UTF-8" ?>
<!DOCTYPE svg PUBLIC "-//W3C//DTD SVG 1.1//EN" "http://www.w3.org/Graphics/SVG/1.1/DTD/svg11.dtd">
<svg width="1024pt" height="1024pt" viewBox="0 0 1024 1024" version="1.1" xmlns="http://www.w3.org/2000/svg">
<path fill="#767dcb" opacity="1.00" d=" M 592.74 335.81 C 617.42 321.41 651.49 326.24 671.31 346.78 C 676.81 352.36 680.89 359.14 684.28 366.15 C 690.54 361.91 697.24 358.15 704.74 356.60 C 718.34 353.33 733.01 356.00 745.06 362.95 C 758.48 370.51 768.32 384.51 769.97 399.93 C 770.69 408.74 769.11 417.91 764.53 425.55 C 760.19 433.10 753.07 439.31 744.56 441.57 C 736.76 442.87 729.10 440.25 721.39 439.46 C 704.46 437.39 687.05 439.80 671.25 446.20 C 650.87 454.32 633.17 467.59 613.97 477.97 C 599.29 486.15 583.44 492.26 566.97 495.67 C 530.20 502.96 490.75 495.89 458.80 476.27 C 461.97 476.32 464.90 477.65 467.95 478.34 C 505.95 488.03 547.81 481.82 581.20 461.21 C 594.54 453.01 606.82 442.17 613.94 428.00 C 616.54 423.08 617.64 417.48 617.70 411.95 C 614.84 429.48 598.09 442.45 580.94 444.29 C 565.22 445.91 548.87 437.98 540.41 424.62 C 533.65 414.52 531.82 401.20 535.66 389.67 C 540.13 375.60 553.20 363.98 568.27 363.37 C 573.15 351.83 581.85 342.00 592.74 335.81 Z" />
<path fill="#767dcb" opacity="1.00" d=" M 235.63 343.92 C 235.57 341.07 238.96 343.19 240.31 343.75 C 258.83 353.65 279.43 358.35 299.33 364.60 C 313.32 368.66 327.35 372.55 341.35 376.55 C 344.40 377.43 347.69 378.72 349.24 381.71 C 352.85 388.31 355.72 395.29 359.08 402.02 C 364.27 412.48 368.93 423.45 376.72 432.33 C 379.57 435.97 383.22 438.82 386.55 441.99 C 379.78 449.65 372.56 456.89 365.37 464.16 C 349.84 448.51 333.25 433.94 317.41 418.61 C 316.85 414.53 317.87 410.27 316.64 406.27 C 314.65 402.40 309.94 401.73 306.04 401.38 C 303.78 401.02 301.07 401.62 299.36 399.72 C 284.03 385.00 268.54 370.44 252.88 356.09 C 249.13 352.91 245.65 349.15 240.89 347.49 C 240.92 349.22 241.49 350.89 242.82 352.06 C 260.26 369.72 278.48 386.59 296.08 404.09 C 295.93 407.72 295.58 411.37 295.84 415.01 C 295.73 418.52 299.16 420.66 302.06 421.75 C 305.52 423.14 309.31 422.48 312.90 423.04 C 315.97 425.28 318.45 428.21 321.18 430.84 C 334.39 443.52 347.58 456.21 360.79 468.90 C 353.42 476.63 345.81 484.14 338.59 492.01 C 331.04 484.48 322.82 477.50 313.24 472.69 C 301.54 466.48 289.07 461.94 276.71 457.28 C 273.41 456.15 271.12 453.25 270.36 449.91 C 262.05 419.33 253.03 388.89 241.62 359.30 C 239.80 354.11 236.65 349.35 235.63 343.92 Z" />
<path fill="#767dcb" opacity="1.00" d=" M 398.86 445.84 C 399.94 444.35 402.03 444.15 403.18 445.69 C 427.63 470.18 455.29 492.74 488.07 504.96 C 510.65 513.08 535.02 516.79 558.95 514.13 C 579.48 512.06 599.27 505.13 617.32 495.27 C 635.85 485.12 654.00 473.84 674.17 467.16 C 692.29 460.89 711.79 458.36 730.87 460.78 C 749.07 463.11 767.20 469.04 782.02 480.09 C 784.11 481.81 788.06 484.58 785.39 487.51 C 778.43 495.41 768.31 499.76 758.32 502.42 C 748.06 505.13 737.35 505.14 726.96 507.11 C 707.36 510.29 688.83 518.49 672.23 529.22 C 657.32 538.50 643.76 549.76 628.66 558.74 C 611.45 569.34 592.61 577.33 572.95 582.04 C 530.60 592.02 485.50 587.41 445.00 572.10 C 410.96 559.17 380.72 538.28 352.41 515.72 C 348.54 512.81 344.53 510.07 341.01 506.72 C 342.11 504.39 343.95 502.57 345.79 500.82 C 363.54 482.55 381.25 464.24 398.86 445.84 Z" />
<path fill="#767dcb" opacity="1.00" d=" M 405.87 627.97 C 406.68 625.97 407.60 623.40 410.15 623.29 C 413.15 623.13 417.01 623.53 418.77 626.31 C 419.55 629.11 417.45 631.73 416.78 634.37 C 426.08 634.39 435.40 634.02 444.69 634.48 C 449.74 635.77 447.90 644.28 443.00 644.29 C 437.68 644.61 432.35 644.50 427.03 644.47 C 428.58 648.54 432.73 652.10 431.83 656.74 C 429.76 659.34 424.96 661.40 422.18 658.83 C 419.18 654.31 417.34 649.14 414.69 644.43 C 413.54 643.81 411.87 643.88 411.32 645.24 C 407.62 650.99 403.34 656.60 397.65 660.52 C 393.74 662.97 385.93 657.10 390.15 653.05 C 396.83 645.71 402.18 637.18 405.87 627.97 Z" />
<path fill="#767dcb" opacity="1.00" d=" M 458.45 625.51 C 459.25 622.76 462.73 622.70 465.04 623.09 C 467.39 623.50 470.78 625.07 470.00 628.01 C 469.64 630.12 468.82 632.11 468.14 634.14 C 478.43 634.21 488.73 634.05 499.02 634.17 C 501.27 634.05 503.36 635.78 503.59 638.06 C 504.13 640.47 502.52 642.54 500.96 644.17 C 494.63 644.47 488.30 644.41 481.97 644.48 C 483.45 647.17 485.63 649.49 486.64 652.41 C 486.74 655.80 482.79 657.26 480.03 657.83 C 478.06 658.53 476.61 656.72 475.76 655.24 C 473.63 651.64 471.45 648.06 469.72 644.25 C 467.80 644.17 465.89 644.12 463.99 644.11 C 460.56 649.15 456.97 654.41 451.90 657.93 C 448.63 660.08 445.11 656.66 443.61 653.92 C 443.32 651.89 445.03 650.47 446.12 649.01 C 451.87 642.17 455.65 633.93 458.45 625.51 Z" />
<path fill="#767dcb" opacity="1.00" d=" M 544.40 625.38 C 546.64 621.51 553.23 621.91 555.92 625.14 C 556.54 628.68 556.23 632.30 556.21 635.88 C 561.74 635.91 567.28 635.76 572.82 636.02 C 573.56 636.72 574.32 637.43 575.09 638.15 C 575.77 641.16 575.33 645.23 571.88 646.26 C 567.00 647.14 562.02 646.31 557.10 646.45 C 561.95 650.65 568.11 653.03 572.93 657.28 C 575.00 660.42 571.29 665.12 568.01 665.22 C 563.36 663.48 560.05 659.41 556.30 656.30 C 556.42 662.85 556.65 669.44 556.06 675.98 C 555.80 678.33 552.92 679.11 550.94 679.35 C 548.31 679.70 544.62 679.05 544.06 675.98 C 543.83 670.26 544.15 664.53 543.87 658.82 C 539.26 665.12 533.89 671.02 527.34 675.32 C 523.68 678.22 518.35 674.10 518.54 670.00 C 519.56 667.68 521.89 666.36 523.66 664.68 C 529.98 659.48 535.77 653.56 540.36 646.76 C 535.27 646.62 530.16 646.88 525.08 646.50 C 519.97 646.10 518.94 637.33 524.05 636.05 C 530.67 635.61 537.32 635.94 543.96 635.91 C 544.17 632.41 543.54 628.79 544.40 625.38 Z" />
<path fill="#767dcb" opacity="1.00" d=" M 598.11 625.16 C 600.87 621.64 607.92 621.85 609.95 626.03 C 610.32 629.30 610.07 632.61 610.08 635.90 C 617.38 635.90 624.69 635.80 631.99 636.05 C 636.95 637.48 635.94 645.88 631.01 646.59 C 625.24 647.07 619.44 646.53 613.66 646.77 C 619.79 653.78 626.61 660.25 634.24 665.62 C 639.24 668.66 633.64 676.01 629.11 674.96 C 624.39 673.03 621.11 668.93 617.53 665.50 C 614.73 662.86 612.55 659.69 610.12 656.76 C 609.93 662.86 610.32 668.97 609.91 675.07 C 609.11 680.46 600.82 680.85 597.89 677.04 C 597.40 670.79 597.48 664.51 597.64 658.24 C 593.21 664.84 587.50 670.68 580.76 674.93 C 578.32 675.94 576.58 673.40 575.00 671.99 C 573.67 670.86 572.58 668.70 574.34 667.43 C 581.38 660.93 588.75 654.61 594.39 646.81 C 590.06 646.73 585.67 647.25 581.39 646.43 C 576.93 645.07 576.60 637.71 581.00 636.07 C 586.62 635.70 592.26 636.05 597.88 635.90 C 597.96 632.32 597.75 628.72 598.11 625.16 Z" />
<path fill="#767dcb" opacity="1.00" d=" M 482.77 659.69 C 485.37 659.43 488.25 658.94 490.64 660.31 C 493.58 662.64 492.99 668.29 488.97 669.04 C 475.65 671.51 462.12 672.87 448.64 674.14 C 448.63 677.28 448.58 680.42 448.49 683.56 C 461.66 682.58 474.79 681.27 487.97 680.43 C 491.06 679.94 492.99 683.13 492.47 685.88 C 492.50 688.78 489.72 690.56 487.11 690.78 C 474.19 691.88 461.31 693.38 448.38 694.28 C 448.51 697.48 448.44 700.70 448.25 703.91 C 465.20 703.21 482.10 701.06 499.03 700.04 C 504.58 700.80 504.35 709.82 498.98 710.68 C 482.09 712.33 465.20 714.02 448.27 715.19 C 448.49 719.28 447.94 723.45 448.72 727.50 C 449.23 729.86 451.60 731.18 453.89 731.14 C 463.26 731.74 472.67 731.49 482.05 731.36 C 485.08 731.16 488.73 731.48 490.82 728.78 C 493.46 725.98 492.26 721.73 493.56 718.57 C 497.28 716.46 504.58 718.76 504.03 724.02 C 503.82 729.71 502.07 735.99 497.04 739.28 C 492.38 742.61 486.41 742.10 481.00 742.36 C 470.65 742.36 460.30 742.47 449.97 742.02 C 443.38 741.83 436.81 737.53 435.10 730.98 C 434.38 726.14 434.78 721.23 434.63 716.36 C 421.47 717.67 408.25 718.59 395.04 719.42 C 391.44 719.93 388.09 716.59 388.88 712.97 C 388.92 709.87 392.15 708.34 394.87 708.30 C 408.11 707.47 421.31 706.16 434.55 705.26 C 434.67 701.90 434.70 698.54 434.72 695.18 C 425.13 696.19 415.49 696.55 405.87 697.25 C 403.08 697.24 399.44 698.24 397.55 695.51 C 395.57 692.59 396.70 686.91 400.94 686.96 C 412.19 686.08 423.44 685.07 434.72 684.69 C 434.79 681.59 434.84 678.51 434.92 675.43 C 425.62 675.95 416.33 676.38 407.04 676.96 C 404.48 677.03 401.48 677.49 399.50 675.49 C 396.30 672.65 398.74 666.24 403.17 666.75 C 429.79 665.56 456.34 663.07 482.77 659.69 Z" />
<path fill="#767dcb" opacity="1.00" d=" M 564.63 674.77 C 567.78 673.57 571.77 674.68 574.01 677.18 C 574.65 680.24 572.29 682.74 570.26 684.68 C 584.47 683.83 598.75 684.49 612.99 684.36 C 616.58 683.95 620.68 685.99 621.05 689.89 C 620.54 693.99 618.08 697.49 615.76 700.78 C 606.66 713.23 593.79 722.37 580.15 729.26 C 564.84 736.31 548.50 741.15 531.83 743.58 C 527.25 744.65 522.69 739.79 524.39 735.31 C 525.66 731.82 529.90 731.96 532.92 731.21 C 545.65 728.59 558.14 724.77 570.25 720.08 C 564.18 715.52 557.57 711.50 552.36 705.93 C 554.86 703.01 559.00 699.39 562.92 702.08 C 569.11 705.55 576.17 708.96 579.70 715.43 C 588.60 710.01 597.28 703.59 603.43 695.07 C 589.30 695.04 575.15 694.69 561.04 695.15 C 552.68 700.95 544.16 706.81 534.62 710.51 C 530.66 712.41 525.82 708.21 526.49 704.06 C 527.41 702.15 529.57 701.40 531.26 700.33 C 540.26 695.28 548.72 689.29 556.53 682.55 C 559.41 680.14 561.48 676.84 564.63 674.77 Z" />
</svg>
