<?xml version="1.0" encoding="UTF-8"?>
<svg id="_图层_2" data-name="图层 2" xmlns="http://www.w3.org/2000/svg" xmlns:xlink="http://www.w3.org/1999/xlink" viewBox="0 0 1717.81 450.36">
  <defs>
    <style>
      .cls-1 {
        fill: url(#_未命名的渐变_389-4);
      }

      .cls-2 {
        fill: url(#_未命名的渐变_389-6);
      }

      .cls-3 {
        fill: url(#_未命名的渐变_389-7);
      }

      .cls-4 {
        fill: url(#_未命名的渐变_389-2);
      }

      .cls-5 {
        fill: url(#_未命名的渐变_389-9);
      }

      .cls-6 {
        fill: url(#_未命名的渐变_389-5);
      }

      .cls-7 {
        fill: url(#_未命名的渐变_389-8);
      }

      .cls-8 {
        fill: url(#_未命名的渐变_389-3);
      }

      .cls-9 {
        fill: url(#_未命名的渐变_389);
      }
    </style>
    <linearGradient id="_未命名的渐变_389" data-name="未命名的渐变 389" x1="-134.19" y1="269" x2="1654.4" y2="-23.39" gradientUnits="userSpaceOnUse">
      <stop offset="0" stop-color="#fff"/>
      <stop offset="1" stop-color="#00caff"/>
    </linearGradient>
    <linearGradient id="_未命名的渐变_389-2" data-name="未命名的渐变 389" x1="-146.42" y1="194.18" x2="1642.17" y2="-98.21" xlink:href="#_未命名的渐变_389"/>
    <linearGradient id="_未命名的渐变_389-3" data-name="未命名的渐变 389" x1="-110.84" y1="411.83" x2="1677.75" y2="119.44" xlink:href="#_未命名的渐变_389"/>
    <linearGradient id="_未命名的渐变_389-4" data-name="未命名的渐变 389" x1="249.25" y1="325.77" x2="2037.84" y2="33.38" xlink:href="#_未命名的渐变_389"/>
    <linearGradient id="_未命名的渐变_389-5" data-name="未命名的渐变 389" x1="252.36" y1="344.8" x2="2040.95" y2="52.41" xlink:href="#_未命名的渐变_389"/>
    <linearGradient id="_未命名的渐变_389-6" data-name="未命名的渐变 389" x1="-441.8" y1="404.78" x2="1346.79" y2="112.39" xlink:href="#_未命名的渐变_389"/>
    <linearGradient id="_未命名的渐变_389-7" data-name="未命名的渐变 389" x1="-438.07" y1="427.57" x2="1350.51" y2="135.18" xlink:href="#_未命名的渐变_389"/>
    <linearGradient id="_未命名的渐变_389-8" data-name="未命名的渐变 389" x1="277.34" y1="497.59" x2="2065.93" y2="205.2" xlink:href="#_未命名的渐变_389"/>
    <linearGradient id="_未命名的渐变_389-9" data-name="未命名的渐变 389" x1="-417.65" y1="552.49" x2="1370.93" y2="260.1" xlink:href="#_未命名的渐变_389"/>
  </defs>
  <g id="_图层_1-2" data-name="图层 1">
    <path class="cls-9" d="M619.04,14.36c42.78-24.96,101.84-16.59,136.2,19.02,9.53,9.67,16.61,21.43,22.48,33.58,10.85-7.35,22.47-13.87,35.47-16.55,23.58-5.67,49.01-1.04,69.89,11.01,23.26,13.11,40.32,37.37,43.18,64.1,1.25,15.27-1.49,31.17-9.43,44.41-7.52,13.09-19.87,23.85-34.62,27.77-13.52,2.25-26.8-2.29-40.16-3.66-29.35-3.59-59.53.59-86.92,11.68-35.33,14.08-66.01,37.08-99.29,55.07-25.45,14.18-52.92,24.77-81.47,30.68-63.74,12.64-132.13.38-187.51-33.63,5.5.09,10.57,2.39,15.86,3.59,65.87,16.8,138.44,6.03,196.32-29.69,23.12-14.21,44.41-33.01,56.75-57.57,4.51-8.53,6.41-18.24,6.52-27.82-4.96,30.39-33.99,52.87-63.72,56.06-27.25,2.81-55.59-10.94-70.26-34.1-11.72-17.51-14.89-40.6-8.23-60.59,7.75-24.39,30.41-44.53,56.53-45.59,8.46-20,23.54-37.04,42.42-47.77Z"/>
    <path class="cls-4" d="M0,28.42c-.1-4.94,5.77-1.27,8.11-.29,32.1,17.16,67.81,25.31,102.31,36.14,24.25,7.04,48.57,13.78,72.84,20.72,5.29,1.53,10.99,3.76,13.68,8.94,6.26,11.44,11.23,23.54,17.06,35.21,9,18.13,17.07,37.15,30.58,52.54,4.94,6.31,11.27,11.25,17.04,16.75-11.74,13.28-24.25,25.83-36.72,38.43-26.92-27.13-55.68-52.39-83.14-78.96-.97-7.07.8-14.46-1.33-21.39-3.45-6.71-11.61-7.87-18.37-8.48-3.92-.62-8.62.42-11.58-2.88-26.57-25.52-53.43-50.76-80.57-75.63-6.5-5.51-12.53-12.03-20.78-14.91.05,3,1.04,5.89,3.35,7.92,30.23,30.61,61.82,59.86,92.33,90.19-.26,6.29-.87,12.62-.42,18.93-.19,6.08,5.76,9.79,10.78,11.68,6,2.41,12.57,1.27,18.79,2.24,5.32,3.88,9.62,8.96,14.35,13.52,22.9,21.98,45.76,43.98,68.66,65.98-12.78,13.4-25.97,26.42-38.48,40.06-13.09-13.05-27.34-25.15-43.94-33.49-20.28-10.76-41.9-18.63-63.32-26.71-5.72-1.96-9.69-6.99-11.01-12.78-14.41-53.01-30.04-105.78-49.82-157.07C7.23,46.08,1.77,37.83,0,28.42Z"/>
    <path class="cls-8" d="M282.96,205.09c1.87-2.58,5.5-2.93,7.49-.26,42.38,42.45,90.33,81.56,147.16,102.74,39.14,14.08,81.39,20.51,122.87,15.9,35.59-3.59,69.89-15.6,101.18-32.69,32.12-17.59,63.58-37.15,98.55-48.73,31.41-10.87,65.21-15.25,98.29-11.06,31.55,4.04,62.98,14.32,88.67,33.47,3.62,2.98,10.47,7.78,5.84,12.86-12.07,13.69-29.61,21.24-46.93,25.85-17.79,4.7-36.35,4.72-54.36,8.13-33.98,5.51-66.1,19.73-94.87,38.33-25.85,16.09-49.35,35.61-75.53,51.17-29.83,18.37-62.49,32.23-96.57,40.39-73.41,17.3-151.59,9.31-221.8-17.23-59.01-22.41-111.43-58.63-160.5-97.73-6.71-5.04-13.66-9.79-19.76-15.6,1.91-4.04,5.1-7.19,8.29-10.23,30.77-31.67,61.47-63.41,92-95.31Z"/>
    <path class="cls-1" d="M1460.32,86.75c2.12-5.24,4.54-11.98,11.22-12.27,7.87-.42,17.99.63,22.6,7.92,2.05,7.34-3.46,14.21-5.22,21.14,24.39.05,48.83-.92,73.19.29,13.24,3.38,8.42,25.7-4.43,25.73-13.95.84-27.93.55-41.88.47,4.06,10.67,14.95,20.01,12.59,32.18-5.43,6.82-18.02,12.22-25.31,5.48-7.87-11.85-12.69-25.41-19.64-37.76-3.02-1.63-7.4-1.44-8.84,2.12-9.7,15.08-20.93,29.79-35.85,40.07-10.25,6.42-30.73-8.97-19.67-19.59,17.52-19.25,31.55-41.62,41.22-65.77Z"/>
    <path class="cls-6" d="M1598.2,80.3c2.1-7.21,11.22-7.37,17.28-6.35,6.16,1.08,15.05,5.19,13.01,12.9-.94,5.53-3.09,10.75-4.88,16.08,26.98.18,53.99-.24,80.98.08,5.9-.31,11.38,4.22,11.98,10.2,1.42,6.32-2.81,11.75-6.9,16.02-16.6.79-33.2.63-49.8.81,3.88,7.05,9.6,13.14,12.25,20.8.26,8.89-10.1,12.72-17.33,14.21-5.17,1.84-8.97-2.91-11.2-6.79-5.59-9.44-11.3-18.83-15.84-28.82-5.03-.21-10.04-.34-15.03-.37-8.99,13.22-18.41,27.01-31.7,36.24-8.58,5.64-17.81-3.33-21.74-10.52-.76-5.32,3.72-9.05,6.58-12.88,15.08-17.94,24.99-39.55,32.33-61.63Z"/>
    <path class="cls-2" d="M1119.63,79.96c5.87-10.15,23.16-9.1,30.21-.63,1.63,9.28.81,18.78.76,28.16,14.5.08,29.03-.31,43.56.37,1.94,1.84,3.93,3.7,5.95,5.59,1.78,7.89.63,18.57-8.42,21.27-12.8,2.31-25.86.13-38.76.5,12.72,11.01,28.87,17.26,41.51,28.4,5.43,8.23-4.3,20.56-12.9,20.82-12.19-4.56-20.87-15.24-30.71-23.39.31,17.18.92,34.46-.63,51.61-.68,6.16-8.23,8.21-13.43,8.84-6.9.92-16.57-.79-18.04-8.84-.6-15,.24-30.03-.5-45-12.09,16.52-26.17,31.99-43.35,43.27-9.6,7.6-23.58-3.2-23.08-13.95,2.67-6.08,8.79-9.55,13.43-13.95,16.57-13.64,31.76-29.16,43.79-46.99-13.35-.37-26.75.31-40.07-.68-13.4-1.05-16.1-24.05-2.7-27.4,17.36-1.15,34.8-.29,52.21-.37.55-9.18-1.1-18.67,1.15-27.61Z"/>
    <path class="cls-3" d="M1260.48,79.38c7.24-9.23,25.73-8.68,31.05,2.28.97,8.58.31,17.26.34,25.88,19.14,0,38.31-.26,57.46.39,13.01,3.75,10.36,25.78-2.57,27.64-15.13,1.26-30.34-.16-45.5.47,16.08,18.38,33.96,35.35,53.97,49.43,13.11,7.97-1.57,27.25-13.45,24.49-12.38-5.06-20.98-15.81-30.37-24.81-7.34-6.92-13.06-15.24-19.43-22.92-.5,16,.52,32.02-.55,48.02-2.1,14.13-23.84,15.16-31.52,5.17-1.28-16.39-1.08-32.86-.66-49.3-11.62,17.31-26.59,32.62-44.27,43.77-6.4,2.65-10.96-4.01-15.1-7.71-3.49-2.96-6.35-8.63-1.73-11.96,18.46-17.05,37.79-33.62,52.58-54.07-11.35-.21-22.87,1.15-34.09-1-11.7-3.57-12.56-22.87-1.02-27.17,14.74-.97,29.53-.05,44.27-.45.21-9.39-.34-18.83.6-28.16Z"/>
    <path class="cls-7" d="M1661.98,169.93c6.82-.68,14.37-1.97,20.64,1.63,7.71,6.11,6.16,20.93-4.38,22.89-34.93,6.48-70.41,10.04-105.76,13.37-.03,8.23-.16,16.47-.39,24.7,34.54-2.57,68.97-6.01,103.53-8.21,8.1-1.28,13.16,7.08,11.8,14.29.08,7.6-7.21,12.27-14.06,12.85-33.88,2.88-67.66,6.82-101.56,9.18.34,8.39.16,16.84-.34,25.25,44.45-1.84,88.77-7.47,133.16-10.15,14.55,1.99,13.95,25.65-.13,27.9-44.29,4.33-88.58,8.76-132.98,11.83.58,10.73-.87,21.66,1.18,32.28,1.34,6.19,7.55,9.65,13.56,9.55,24.57,1.57,49.25.92,73.85.58,7.95-.52,17.52.31,23-6.77,6.92-7.34,3.78-18.49,7.19-26.77,9.76-5.53,28.9.5,27.46,14.29-.55,14.92-5.14,31.39-18.33,40.02-12.22,8.73-27.88,7.39-42.06,8.08-27.14,0-54.28.29-81.37-.89-17.28-.5-34.51-11.77-38.99-28.95-1.89-12.69-.84-25.57-1.23-38.34-34.51,3.44-69.18,5.85-103.82,8.02-9.44,1.34-18.23-7.42-16.15-16.91.1-8.13,8.58-12.14,15.71-12.25,34.72-2.18,69.34-5.61,104.06-7.97.31-8.81.39-17.62.45-26.43-25.15,2.65-50.43,3.59-75.66,5.43-7.32-.03-16.86,2.6-21.82-4.56-5.19-7.66-2.23-22.55,8.89-22.42,29.5-2.31,59-4.96,88.58-5.95.18-8.13.31-16.21.52-24.28-24.39,1.36-48.75,2.49-73.11,4.01-6.71.18-14.58,1.39-19.77-3.85-8.39-7.45-1.99-24.26,9.62-22.92,69.81-3.12,139.43-9.65,208.74-18.51Z"/>
    <path class="cls-5" d="M1172.68,209.48c8.26-3.15,18.72-.24,24.6,6.32,1.68,8.02-4.51,14.58-9.83,19.67,37.26-2.23,74.71-.5,112.05-.84,9.41-1.08,20.17,4.27,21.14,14.5-1.34,10.75-7.79,19.93-13.87,28.56-23.86,32.65-57.61,56.62-93.38,74.68-40.15,18.49-83,31.18-126.71,37.55-12.01,2.81-23.97-9.94-19.51-21.69,3.33-9.15,14.45-8.78,22.37-10.75,33.38-6.87,66.14-16.89,97.89-29.19-15.92-11.96-33.25-22.5-46.91-37.11,6.56-7.66,17.41-17.15,27.69-10.1,16.23,9.1,34.75,18.04,44,35.01,23.34-14.21,46.1-31.05,62.23-53.39-37.05-.08-74.16-1-111.16.21-21.92,15.21-44.27,30.58-69.28,40.28-10.38,4.98-23.08-6.03-21.32-16.91,2.41-5.01,8.08-6.98,12.51-9.78,23.6-13.24,45.79-28.95,66.27-46.63,7.55-6.32,12.98-14.97,21.24-20.4Z"/>
  </g>
</svg>