<svg xmlns="http://www.w3.org/2000/svg" width="4000" height="4000" viewBox="0 0 4000 4000" version="1.1">
	<path d="M 539 1739.846 L 539 2178.786 545.250 2179.902 C 555.560 2181.742, 586.488 2185.818, 602.500 2187.446 C 656.424 2192.930, 702.156 2194.526, 762.424 2193.026 C 805.538 2191.953, 855.669 2189.664, 856.607 2188.726 C 857.004 2188.329, 857.133 2090.627, 857.033 1865.083 C 857.015 1823.604, 856.804 1789.862, 856.565 1790.102 C 856.326 1790.341, 856.028 1796.153, 855.904 1803.018 C 855.766 1810.655, 855.255 1815.785, 854.589 1816.235 C 853.839 1816.741, 853.881 1816.974, 854.725 1816.985 C 856.184 1817.003, 855.277 1823.113, 853.657 1824.174 C 852.979 1824.618, 853.074 1825.384, 853.937 1826.424 C 854.841 1827.513, 854.891 1828, 854.099 1828 C 853.393 1828, 853.634 1829.039, 854.727 1830.711 C 855.702 1832.203, 855.938 1833.076, 855.250 1832.652 C 854.448 1832.158, 854 1832.461, 854 1833.500 C 854 1834.390, 854.375 1834.886, 854.833 1834.603 C 855.292 1834.320, 855.667 1834.700, 855.667 1835.449 C 855.667 1836.273, 855.042 1836.576, 854.083 1836.217 C 852.714 1835.705, 852.685 1835.853, 853.872 1837.313 C 855.049 1838.759, 855.025 1839, 853.706 1839 C 852.859 1839, 851.917 1838.438, 851.612 1837.750 C 851.308 1837.063, 851.158 1837.400, 851.279 1838.500 C 851.401 1839.600, 851.914 1840.799, 852.420 1841.164 C 852.926 1841.529, 853.392 1843.022, 853.456 1844.482 C 853.561 1846.887, 853.451 1846.970, 852.281 1845.369 C 851.116 1843.777, 851.012 1843.869, 851.213 1846.302 C 851.336 1847.786, 851.788 1849, 852.218 1849 C 852.648 1849, 853 1849.477, 853 1850.059 C 853 1850.641, 852.550 1850.840, 852 1850.500 C 851.450 1850.160, 850.966 1850.471, 850.924 1851.191 C 850.528 1858.045, 850.308 1859.693, 849.646 1860.764 C 849.223 1861.448, 849.355 1862, 849.941 1862 C 850.523 1862, 851 1862.702, 851 1863.559 C 851 1864.416, 851.450 1864.840, 852 1864.500 C 853.659 1863.474, 853.123 1866.203, 851.250 1868.317 C 850.030 1869.694, 849.862 1870.419, 850.694 1870.711 C 852.320 1871.281, 851.155 1874, 849.285 1874 C 848.197 1874, 847.950 1874.665, 848.388 1876.411 C 848.867 1878.320, 848.630 1878.768, 847.247 1878.563 C 845.257 1878.267, 842 1880.026, 842 1881.396 C 842 1881.898, 842.855 1881.536, 843.901 1880.590 C 845.145 1879.464, 846.029 1879.238, 846.460 1879.935 C 846.822 1880.521, 846.593 1881, 845.952 1881 C 845.311 1881, 845.045 1881.675, 845.362 1882.500 C 845.678 1883.325, 845.475 1884, 844.910 1884 C 844.344 1884, 844.203 1884.520, 844.595 1885.155 C 845.041 1885.876, 844.869 1886.037, 844.138 1885.585 C 843.494 1885.187, 843.286 1884.330, 843.676 1883.681 C 844.079 1883.008, 843.656 1883.091, 842.692 1883.872 C 841.761 1884.627, 840.999 1884.852, 840.998 1884.372 C 840.996 1883.893, 839.646 1883.452, 837.998 1883.394 C 836.349 1883.335, 835 1883.672, 835 1884.144 C 835 1884.615, 835.750 1885, 836.667 1885 C 837.583 1885, 838.086 1885.247, 837.785 1885.549 C 836.925 1886.408, 831.951 1884.888, 832.535 1883.943 C 832.822 1883.480, 832.171 1882.627, 831.089 1882.047 C 829.783 1881.349, 828.913 1881.332, 828.502 1881.997 C 828.161 1882.549, 828.584 1883, 829.441 1883 C 830.298 1883, 831 1883.464, 831 1884.031 C 831 1885.165, 824.128 1885.015, 823.417 1883.866 C 823.174 1883.472, 823.494 1882.010, 824.129 1880.616 C 825.127 1878.426, 825.571 1878.234, 827.392 1879.204 C 829.290 1880.216, 829.363 1880.162, 828.128 1878.664 C 827.373 1877.749, 826.135 1877, 825.378 1877 C 824.584 1877, 824 1875.966, 824 1874.559 C 824 1873.216, 823.521 1871.822, 822.935 1871.460 C 822.232 1871.025, 822.418 1870.196, 823.483 1869.019 C 825.004 1867.338, 824.865 1867.234, 821.027 1867.181 C 818.737 1867.149, 817.212 1867.535, 817.539 1868.062 C 817.857 1868.578, 817.416 1869, 816.559 1869 C 815.667 1869, 815 1868.145, 815 1867 C 815 1865.567, 815.708 1864.965, 817.500 1864.875 C 818.875 1864.806, 820.450 1864.638, 821 1864.500 C 821.550 1864.362, 822.337 1864.192, 822.750 1864.121 C 823.163 1864.050, 822.038 1863.101, 820.250 1862.011 C 816.599 1859.785, 816.177 1859.064, 818.750 1859.450 C 819.712 1859.595, 819.932 1859.518, 819.238 1859.281 C 818.544 1859.043, 818.233 1858.433, 818.547 1857.924 C 818.861 1857.416, 818.754 1857.014, 818.309 1857.031 C 817.020 1857.081, 813.769 1862, 815.025 1862 C 815.679 1862, 815.521 1862.622, 814.643 1863.500 C 812.815 1865.327, 811.916 1865.421, 812.250 1863.750 C 812.388 1863.063, 811.904 1862.624, 811.176 1862.775 C 810.447 1862.926, 810.136 1862.588, 810.485 1862.025 C 810.833 1861.461, 810.615 1861, 810 1861 C 809.385 1861, 809.165 1860.543, 809.510 1859.984 C 809.856 1859.425, 810.634 1859.274, 811.240 1859.648 C 811.846 1860.023, 811.477 1859.172, 810.421 1857.758 C 809.364 1856.344, 808.050 1855.257, 807.500 1855.343 C 806.950 1855.429, 806.612 1854.938, 806.750 1854.250 C 806.899 1853.503, 805.939 1853, 804.360 1853 C 802.908 1853, 801.107 1852.213, 800.358 1851.250 C 799.066 1849.591, 799.028 1849.593, 799.620 1851.291 C 799.964 1852.276, 799.853 1853.010, 799.373 1852.922 C 798.893 1852.835, 798.050 1852.853, 797.500 1852.963 C 796.950 1853.074, 793.800 1853.095, 790.500 1853.011 C 783.740 1852.839, 780.912 1851.529, 787.120 1851.446 C 791.497 1851.387, 793.277 1849.729, 792.429 1846.500 C 791.950 1844.675, 792.001 1844.655, 793.014 1846.271 C 793.624 1847.245, 794.545 1847.781, 795.061 1847.462 C 796.738 1846.426, 796.057 1845.231, 793.409 1844.567 C 791.723 1844.143, 791.008 1843.422, 791.361 1842.502 C 791.760 1841.462, 791.147 1841.142, 789.039 1841.294 C 786.888 1841.449, 786.430 1841.808, 787.201 1842.739 C 787.765 1843.420, 788.595 1843.751, 789.044 1843.473 C 789.494 1843.195, 790.144 1843.425, 790.490 1843.984 C 790.835 1844.543, 790.684 1845, 790.153 1845 C 789.622 1845, 789.383 1846.013, 789.622 1847.250 C 790.014 1849.282, 789.946 1849.258, 788.914 1847 C 788.224 1845.489, 787.585 1844.997, 787.301 1845.756 C 787.041 1846.447, 786.348 1846.715, 785.760 1846.352 C 785.123 1845.958, 784.983 1846.164, 785.415 1846.862 C 785.813 1847.506, 786.557 1847.774, 787.069 1847.457 C 787.581 1847.141, 788 1847.306, 788 1847.824 C 788 1849.427, 783.927 1849.972, 783.342 1848.448 C 782.886 1847.260, 782.592 1847.265, 781.374 1848.483 C 780.586 1849.271, 779.280 1849.661, 778.471 1849.351 C 776.707 1848.674, 776.569 1847.385, 778.155 1846.405 C 778.870 1845.962, 779.038 1846.130, 778.595 1846.845 C 777.558 1848.525, 779.882 1848.261, 781.644 1846.499 C 782.979 1845.164, 782.943 1845.016, 781.322 1845.157 C 776.808 1845.552, 774.878 1844.965, 775.052 1843.250 C 775.535 1838.508, 774.980 1837, 772.750 1836.993 C 770.650 1836.987, 770.695 1836.858, 773.430 1835.055 L 776.361 1833.124 773.166 1833.214 C 769.453 1833.320, 767.481 1832.058, 771.083 1831.882 C 772.412 1831.816, 773.880 1831.831, 774.344 1831.913 C 774.808 1831.995, 775.008 1831.525, 774.790 1830.869 C 774.571 1830.212, 773.587 1829.557, 772.604 1829.412 C 770.273 1829.070, 769.217 1828, 771.211 1828 C 772.060 1828, 773.315 1827.325, 774 1826.500 C 775.020 1825.271, 774.951 1825, 773.622 1825 C 772.730 1825, 772 1824.325, 772 1823.500 C 772 1822.675, 771.380 1822, 770.622 1822 C 769.865 1822, 768.689 1821.330, 768.009 1820.511 C 767.329 1819.692, 766.262 1819.275, 765.637 1819.585 C 765.012 1819.895, 765.374 1819.440, 766.441 1818.574 C 768.333 1817.040, 768.320 1816.997, 765.941 1816.882 C 764.599 1816.816, 763.129 1816.828, 762.676 1816.906 C 762.222 1816.985, 762.141 1816.581, 762.495 1816.008 C 762.849 1815.436, 763.557 1815.226, 764.069 1815.543 C 764.581 1815.859, 765 1815.672, 765 1815.126 C 765 1814.581, 764.100 1813.849, 763.001 1813.500 C 761.351 1812.977, 761.188 1812.516, 762.071 1810.867 C 762.947 1809.230, 762.684 1808.411, 760.618 1806.346 C 759.231 1804.958, 757.693 1804.072, 757.201 1804.376 C 756.710 1804.679, 756.486 1803.144, 756.704 1800.964 C 756.963 1798.374, 756.694 1797, 755.928 1797 C 755.080 1797, 755.112 1796.570, 756.042 1795.449 C 757.129 1794.140, 756.993 1793.811, 755.164 1793.333 C 752.859 1792.730, 752.359 1791.514, 754 1790.500 C 755.568 1789.531, 755.171 1788.208, 753.358 1788.361 C 752.454 1788.437, 751.512 1787.923, 751.264 1787.219 C 751.016 1786.514, 751.417 1786.064, 752.156 1786.219 C 752.895 1786.373, 753.372 1785.890, 753.215 1785.145 C 753.058 1784.399, 753.451 1783.162, 754.087 1782.395 C 754.999 1781.296, 754.888 1781, 753.563 1781 C 752.639 1781, 752.165 1780.543, 752.510 1779.984 C 752.856 1779.425, 753.557 1779.226, 754.069 1779.543 C 755.501 1780.428, 755.111 1776.730, 753.555 1774.678 C 752.219 1772.916, 752.159 1772.916, 751.703 1774.678 C 751.275 1776.335, 751.221 1776.341, 751.116 1774.750 C 751.052 1773.787, 750.566 1773, 750.035 1773 C 749.505 1773, 748.552 1772.032, 747.919 1770.848 C 746.934 1769.008, 747.005 1768.788, 748.407 1769.326 C 749.751 1769.842, 749.866 1769.617, 749.041 1768.077 C 748.079 1766.280, 747.316 1760.381, 747.101 1753.083 C 747.045 1751.204, 746.718 1749.949, 746.373 1750.294 C 746.028 1750.639, 745.802 1754.202, 745.870 1758.211 C 745.953 1763.046, 745.682 1765.011, 745.064 1764.048 C 744.551 1763.249, 744.354 1762.237, 744.625 1761.798 C 744.896 1761.359, 744.651 1761, 744.081 1761 C 743.410 1761, 742.939 1767.810, 742.749 1780.250 C 742.549 1793.280, 742.374 1788.836, 742.205 1766.500 C 742.068 1748.350, 741.682 1721.350, 741.347 1706.500 L 740.738 1679.500 748.119 1675.295 C 771.259 1662.113, 809.095 1646.662, 843.373 1636.395 C 902.091 1618.808, 972.972 1614.287, 1027.500 1624.652 C 1032.450 1625.593, 1037.963 1626.360, 1039.750 1626.356 C 1041.537 1626.353, 1043 1626.671, 1043 1627.064 C 1043 1627.871, 1049.970 1629.363, 1050.635 1628.698 C 1051.075 1628.258, 1037.670 1620, 1036.516 1620 C 1036.167 1620, 1036.114 1620.375, 1036.397 1620.833 C 1036.680 1621.292, 1036.264 1621.667, 1035.472 1621.667 C 1034.450 1621.667, 1034.327 1621.311, 1035.047 1620.443 C 1036.097 1619.178, 1035.395 1618.724, 994.500 1594.219 C 985.150 1588.616, 968.908 1578.737, 958.406 1572.266 C 947.905 1565.795, 929.784 1554.650, 918.137 1547.500 C 892.293 1531.634, 743.657 1438.902, 736 1433.867 C 732.975 1431.878, 711.150 1417.658, 687.500 1402.268 C 641.127 1372.091, 556.783 1314.726, 542.750 1303.820 L 539 1300.906 539 1739.846 M 1031.813 1404.683 C 1032.534 1404.972, 1033.397 1404.936, 1033.729 1404.604 C 1034.061 1404.272, 1033.471 1404.036, 1032.417 1404.079 C 1031.252 1404.127, 1031.015 1404.364, 1031.813 1404.683 M 1026.750 1405.662 C 1027.438 1405.940, 1028.563 1405.940, 1029.250 1405.662 C 1029.938 1405.385, 1029.375 1405.158, 1028 1405.158 C 1026.625 1405.158, 1026.063 1405.385, 1026.750 1405.662 M 1016 1406.904 C 1011.619 1407.491, 1011.723 1407.540, 1019.917 1408.753 C 1028.483 1410.020, 1032.204 1409.846, 1025.297 1408.500 C 1022.094 1407.877, 1021.813 1407.634, 1023.500 1406.951 C 1025.287 1406.227, 1025.234 1406.149, 1023 1406.220 C 1021.625 1406.264, 1018.475 1406.572, 1016 1406.904 M 2318 1487.500 L 2318 1519 2277.250 1519.158 C 2254.838 1519.245, 2224.238 1519.357, 2209.252 1519.408 L 2182.004 1519.500 2182.002 1536.250 L 2182 1553 2250 1553 L 2318 1553 2318 1664.500 L 2318 1776 2346 1776 L 2374 1776 2374.193 1698.250 C 2374.379 1623.414, 2374.529 1593.042, 2374.850 1565.750 L 2375 1553 2438.855 1553 L 2502.710 1553 2502.605 1536.250 L 2502.500 1519.500 2438.750 1519.500 L 2375 1519.500 2374.891 1511.500 C 2374.830 1507.100, 2374.874 1492.813, 2374.986 1479.750 L 2375.192 1456 2346.596 1456 L 2318 1456 2318 1487.500 M 2645.764 1487.518 L 2645.500 1519.089 2583.250 1519.023 L 2521 1518.957 2521 1535.978 L 2521 1553 2583.500 1553 L 2646 1553 2646 1664.500 L 2646 1776 2674.496 1776 L 2702.991 1776 2703.246 1664.750 L 2703.500 1553.500 2767.750 1553.243 L 2832 1552.985 2832 1536.585 L 2832 1520.185 2826.250 1519.778 C 2823.088 1519.554, 2794.175 1519.280, 2762 1519.170 L 2703.500 1518.969 2703.236 1487.542 L 2702.972 1456.115 2674.500 1456.031 L 2646.028 1455.947 2645.764 1487.518 M 3052.053 1462.750 C 3049.924 1468.669, 3032.774 1510.171, 3023.021 1533.005 C 3007.480 1569.391, 2987.379 1611.582, 2971.604 1640.925 C 2968.522 1646.659, 2966 1651.496, 2966 1651.675 C 2966 1651.854, 2969.262 1651.994, 2973.250 1651.986 C 2979.856 1651.973, 2981.399 1651.539, 2990.617 1647.106 C 3003.967 1640.686, 3013.868 1633.893, 3024.383 1623.939 C 3042.016 1607.248, 3049.827 1594.742, 3071.193 1549 C 3081.250 1527.470, 3107.796 1466.563, 3109.439 1461.250 L 3110.135 1459 3081.768 1459 L 3053.402 1459 3052.053 1462.750 M 3397.901 1461.750 C 3397.323 1463.263, 3394.907 1469.675, 3392.531 1476 C 3383.877 1499.039, 3365.630 1543.035, 3357.693 1560 C 3355.248 1565.225, 3352.236 1571.750, 3351 1574.500 C 3347.289 1582.752, 3316.008 1645.238, 3313.777 1648.855 L 3311.707 1652.210 3320.622 1651.855 C 3328.845 1651.528, 3330.290 1651.136, 3339.239 1646.807 C 3365.054 1634.321, 3383.139 1616.011, 3399.298 1586 C 3407.824 1570.164, 3430.354 1520.210, 3446.541 1481.250 L 3455.785 1459 3427.368 1459 L 3398.950 1459 3397.901 1461.750 M 3096.499 1534.250 C 3092.787 1542.638, 3089.356 1549.928, 3088.875 1550.450 C 3088.394 1550.973, 3088 1551.756, 3088 1552.191 C 3088 1552.626, 3136.130 1553.099, 3194.957 1553.241 L 3301.913 1553.500 3302.207 1536.664 C 3302.368 1527.404, 3302.312 1519.642, 3302.083 1519.414 C 3301.854 1519.186, 3257.022 1519, 3202.457 1519 L 3103.248 1519 3096.499 1534.250 M 1139.252 1533.500 C 1139.263 1535.700, 1139.468 1536.482, 1139.707 1535.238 C 1139.946 1533.994, 1139.937 1532.194, 1139.687 1531.238 C 1139.437 1530.282, 1139.241 1531.300, 1139.252 1533.500 M 3132.916 1579.250 C 3135.600 1583.787, 3146.336 1601.900, 3156.774 1619.500 L 3175.753 1651.500 3205.484 1651.765 L 3235.215 1652.030 3233.310 1648.765 C 3232.263 1646.969, 3221.798 1628.737, 3210.055 1608.250 L 3188.705 1571 3158.371 1571 L 3128.036 1571 3132.916 1579.250 M 3486 1578.494 C 3486 1579.012, 3522.464 1643.590, 3526.548 1650.307 C 3527.509 1651.886, 3530.086 1652.008, 3557.295 1651.765 L 3586.993 1651.500 3576.207 1632.500 C 3570.275 1622.050, 3560.939 1605.513, 3555.461 1595.751 L 3545.500 1578.001 3515.750 1578.001 C 3499.387 1578, 3486 1578.222, 3486 1578.494 M 2233 1590.349 C 2233 1592.717, 2228.141 1628.535, 2226.509 1638.193 C 2219.016 1682.542, 2203.434 1732.909, 2186.581 1767.250 L 2182.287 1776 2188.668 1776 C 2194.012 1776, 2196.220 1775.411, 2202.243 1772.378 C 2246.403 1750.139, 2266.727 1712.164, 2281.386 1624.500 C 2283.373 1612.611, 2286 1592.712, 2286 1589.539 C 2286 1589.243, 2274.075 1589, 2259.500 1589 C 2237.929 1589, 2233 1589.251, 2233 1590.349 M 2406.399 1599.829 C 2407.691 1620.018, 2413.722 1657.695, 2418.591 1676 C 2425.896 1703.462, 2435.746 1725.512, 2447.743 1741.259 C 2460.408 1757.883, 2479.788 1771.851, 2495.240 1775.494 C 2503.780 1777.508, 2505.283 1777.466, 2504.017 1775.250 C 2499.852 1767.964, 2485.034 1731.940, 2479.106 1714.688 C 2468.007 1682.392, 2459.744 1639.156, 2457.186 1600 L 2456.500 1589.500 2431.108 1589.329 L 2405.716 1589.157 2406.399 1599.829 M 2572.607 1592.343 C 2572.360 1594.079, 2571.433 1602.383, 2570.547 1610.795 C 2564.999 1663.438, 2549.651 1719.276, 2527.273 1768.230 C 2525.310 1772.524, 2523.910 1776.243, 2524.161 1776.494 C 2525.366 1777.699, 2538.311 1774.543, 2544.911 1771.435 C 2570.351 1759.456, 2591.020 1733.263, 2603.882 1696.703 C 2612.076 1673.413, 2620.378 1630.307, 2623.431 1595.208 L 2623.978 1588.916 2598.517 1589.051 L 2573.056 1589.186 2572.607 1592.343 M 2735.353 1599.974 C 2738.028 1640.794, 2749.126 1690.326, 2761.895 1718.440 C 2775.222 1747.782, 2804.981 1774.498, 2825.828 1775.837 L 2832.157 1776.243 2829.578 1771.154 C 2820.470 1753.181, 2804.180 1706.266, 2798.551 1681.802 C 2792.126 1653.876, 2786 1611.747, 2786 1595.491 L 2786 1590 2760.350 1590 L 2734.699 1590 2735.353 1599.974 M 1038.333 1624.516 C 1038.333 1626.320, 1040.604 1626.483, 1041.601 1624.750 C 1041.997 1624.063, 1041.952 1623.834, 1041.502 1624.241 C 1041.052 1624.649, 1040.155 1624.544, 1039.509 1624.007 C 1038.698 1623.334, 1038.333 1623.492, 1038.333 1624.516 M 3584 1692.554 C 3497.736 1703.758, 3359.593 1712.976, 3037.500 1729.020 C 3025.950 1729.595, 3014.700 1730.288, 3012.500 1730.559 L 3008.500 1731.052 3008.139 1746.171 L 3007.778 1761.290 3023.139 1760.601 C 3031.588 1760.223, 3045.475 1759.484, 3054 1758.959 C 3062.525 1758.434, 3087.950 1757.093, 3110.500 1755.979 C 3133.050 1754.864, 3171.750 1752.840, 3196.500 1751.480 C 3221.250 1750.120, 3242.963 1749.006, 3244.750 1749.004 L 3248 1749 3248 1794 L 3248 1839 3245.750 1839.001 C 3244.512 1839.002, 3231.800 1839.678, 3217.500 1840.504 C 3185.658 1842.342, 3144.216 1844.281, 3078.500 1847.008 C 3051 1848.149, 3026.137 1849.322, 3023.250 1849.613 L 3018 1850.144 3018 1865.072 L 3018 1880 3020.750 1879.997 C 3029.213 1879.988, 3209.059 1871.263, 3239 1869.408 L 3248.500 1868.820 3248.232 1919.910 L 3247.964 1971 3242.232 1971.014 C 3239.079 1971.021, 3227.725 1971.473, 3217 1972.017 C 3161.985 1974.810, 3036.150 1980.617, 3001 1981.985 C 2985.875 1982.574, 2970.688 1983.304, 2967.250 1983.607 L 2961 1984.159 2961 1999.080 L 2961 2014 2965.792 2014 C 2968.428 2014, 2998.690 2012.648, 3033.042 2010.995 C 3067.394 2009.342, 3124.300 2006.648, 3159.500 2005.008 C 3194.700 2003.369, 3229.012 2001.730, 3235.750 2001.367 L 3248 2000.708 3248.001 2036.604 C 3248.001 2056.347, 3248.468 2077.422, 3249.039 2083.437 C 3250.881 2102.867, 3256.478 2115.445, 3268.226 2126.558 C 3275.548 2133.483, 3286.463 2139.379, 3298 2142.640 C 3304.179 2144.387, 3313.165 2144.492, 3479.750 2144.755 L 3655 2145.033 3655 2128.443 L 3655 2111.853 3491.750 2112.070 L 3328.500 2112.287 3322.531 2109.990 C 3314.521 2106.907, 3306.999 2099.429, 3304.403 2091.968 C 3302.644 2086.915, 3302.500 2083.170, 3302.500 2042.585 L 3302.500 1998.670 3305 1998.396 C 3306.375 1998.245, 3319.200 1997.637, 3333.500 1997.045 C 3347.800 1996.453, 3369.175 1995.508, 3381 1994.945 C 3392.825 1994.382, 3439.850 1992.137, 3485.500 1989.955 C 3531.150 1987.774, 3584.250 1985.312, 3603.500 1984.484 C 3622.750 1983.657, 3640.863 1982.727, 3643.750 1982.418 L 3649 1981.856 3649 1966.928 L 3649 1952 3643.647 1952 C 3640.702 1952, 3629.340 1952.444, 3618.397 1952.987 C 3607.453 1953.530, 3582.975 1954.666, 3564 1955.511 C 3545.025 1956.356, 3503.400 1958.382, 3471.500 1960.014 C 3409.842 1963.167, 3308.790 1968, 3304.508 1968 L 3301.942 1968 3302.044 1917.572 L 3302.146 1867.144 3308.323 1866.554 C 3313.567 1866.054, 3391.520 1862.332, 3540 1855.490 C 3558.425 1854.642, 3576.762 1853.696, 3580.750 1853.388 L 3588 1852.829 3588 1837.915 L 3588 1823 3582.207 1823 C 3579.020 1823, 3563.383 1823.662, 3547.457 1824.471 C 3531.530 1825.280, 3503.650 1826.641, 3485.500 1827.495 C 3467.350 1828.349, 3425.275 1830.393, 3392 1832.035 C 3358.725 1833.678, 3324.863 1835.313, 3316.750 1835.667 L 3302 1836.312 3302 1795.796 C 3302 1773.512, 3302.284 1753.210, 3302.630 1750.681 C 3303.401 1745.055, 3299.010 1745.774, 3349.500 1743.015 C 3370.400 1741.873, 3395.375 1740.502, 3405 1739.967 C 3434.348 1738.336, 3506.309 1733.067, 3527.500 1730.996 C 3556.061 1728.206, 3600.856 1724, 3602.016 1724 C 3602.623 1724, 3603 1717.482, 3603 1707 C 3603 1697.650, 3602.662 1690.063, 3602.250 1690.141 C 3601.838 1690.218, 3593.625 1691.304, 3584 1692.554 M 858.813 1693.683 C 859.534 1693.972, 860.397 1693.936, 860.729 1693.604 C 861.061 1693.272, 860.471 1693.036, 859.417 1693.079 C 858.252 1693.127, 858.015 1693.364, 858.813 1693.683 M 856.232 1702 C 856.232 1703.925, 856.438 1704.713, 856.689 1703.750 C 856.941 1702.787, 856.941 1701.213, 856.689 1700.250 C 856.438 1699.287, 856.232 1700.075, 856.232 1702 M 856.252 1712.500 C 856.263 1714.700, 856.468 1715.482, 856.707 1714.238 C 856.946 1712.994, 856.937 1711.194, 856.687 1710.238 C 856.437 1709.282, 856.241 1710.300, 856.252 1712.500 M 856.158 1719 C 856.158 1720.375, 856.385 1720.938, 856.662 1720.250 C 856.940 1719.563, 856.940 1718.438, 856.662 1717.750 C 856.385 1717.063, 856.158 1717.625, 856.158 1719 M 856.079 1735.583 C 856.127 1736.748, 856.364 1736.985, 856.683 1736.188 C 856.972 1735.466, 856.936 1734.603, 856.604 1734.271 C 856.272 1733.939, 856.036 1734.529, 856.079 1735.583 M 856.310 1765.500 C 856.315 1768.800, 856.502 1770.029, 856.725 1768.232 C 856.947 1766.435, 856.943 1763.735, 856.715 1762.232 C 856.486 1760.729, 856.304 1762.200, 856.310 1765.500 M 749.552 1764.250 C 749.990 1768.696, 750.035 1768.771, 750.915 1766.516 C 751.766 1764.338, 751.212 1761, 750 1761 C 749.578 1761, 749.376 1762.463, 749.552 1764.250 M 748.564 1775.293 C 748.940 1776.279, 749.499 1776.834, 749.807 1776.526 C 750.115 1776.219, 749.808 1775.412, 749.124 1774.733 C 748.136 1773.753, 748.022 1773.868, 748.564 1775.293 M 856.286 1780.500 C 856.294 1783.250, 856.488 1784.256, 856.718 1782.736 C 856.947 1781.216, 856.941 1778.966, 856.704 1777.736 C 856.467 1776.506, 856.279 1777.750, 856.286 1780.500 M 2372.520 1802.250 C 2368.789 1808.596, 2353.998 1829.125, 2345.872 1839.237 C 2321.677 1869.346, 2296.229 1895.926, 2243.661 1946 L 2216.891 1971.500 2227.195 1971.788 C 2237.479 1972.075, 2237.523 1972.066, 2249 1967.331 C 2287.262 1951.545, 2320.672 1929.967, 2356.586 1897.846 C 2363.783 1891.409, 2371.503 1883.973, 2373.742 1881.321 L 2377.811 1876.500 2540.905 1876.500 C 2630.607 1876.500, 2703.999 1876.725, 2703.999 1877 C 2703.999 1877.275, 2700.800 1883.125, 2696.891 1890 C 2668.758 1939.478, 2624.047 1985.839, 2565.398 2026.346 C 2487.141 2080.395, 2379.712 2117.483, 2246.500 2136.438 C 2229.370 2138.876, 2193.043 2142.960, 2188.250 2142.987 C 2186.087 2143, 2186 2143.342, 2186 2151.856 L 2186 2160.712 2219.750 2161.414 C 2282.656 2162.722, 2337.665 2157.068, 2393.956 2143.508 C 2432.053 2134.331, 2444.025 2130.864, 2478 2119.170 C 2535.968 2099.217, 2601.094 2063.473, 2648.209 2025.751 C 2699.701 1984.524, 2741.134 1934.638, 2767.375 1882.270 L 2772 1873.040 2772 1858.520 L 2772 1844 2589.667 1844 C 2489.383 1844, 2407.092 1843.759, 2406.798 1843.464 C 2406.503 1843.170, 2411.203 1836.307, 2417.242 1828.214 C 2423.281 1820.121, 2430.436 1810.237, 2433.141 1806.250 L 2438.061 1799 2406.246 1799 L 2374.431 1799 2372.520 1802.250 M 742.232 1804 C 742.232 1805.925, 742.438 1806.713, 742.689 1805.750 C 742.941 1804.787, 742.941 1803.213, 742.689 1802.250 C 742.438 1801.287, 742.232 1802.075, 742.232 1804 M 780.507 1841.989 C 780.157 1842.555, 780.558 1842.723, 781.448 1842.382 C 783.180 1841.717, 783.497 1841, 782.059 1841 C 781.541 1841, 780.843 1841.445, 780.507 1841.989 M 800 1845.378 C 800 1845.585, 800.788 1846.373, 801.750 1847.128 C 803.336 1848.371, 803.371 1848.336, 802.128 1846.750 C 800.821 1845.084, 800 1844.555, 800 1845.378 M 801.584 1850.359 C 802.301 1852.228, 805 1852.603, 805 1850.833 C 805 1850.192, 804.704 1849.963, 804.342 1850.325 C 803.980 1850.687, 803.070 1850.473, 802.319 1849.850 C 801.240 1848.955, 801.086 1849.061, 801.584 1850.359 M 792.261 1857.120 C 791.615 1858.830, 790.640 1859.896, 790.052 1859.532 C 789.474 1859.175, 789 1859.359, 789 1859.941 C 789 1860.523, 789.702 1861, 790.559 1861 C 791.438 1861, 791.822 1861.480, 791.438 1862.100 C 790.966 1862.865, 791.411 1862.851, 792.900 1862.054 C 795.139 1860.855, 797 1861.367, 797 1863.181 C 797 1863.908, 796.574 1863.892, 795.658 1863.131 C 794.251 1861.963, 792.989 1862.577, 793.015 1864.417 C 793.024 1865.013, 793.467 1864.825, 794 1864 C 794.646 1863, 794.974 1862.917, 794.985 1863.750 C 794.993 1864.438, 795.645 1865, 796.433 1865 C 797.368 1865, 797.837 1863.988, 797.783 1862.089 C 797.732 1860.273, 797.253 1859.349, 796.511 1859.634 C 795.856 1859.886, 794.743 1859.396, 794.038 1858.546 C 792.716 1856.953, 793.475 1856.500, 796.750 1856.925 C 797.438 1857.015, 798 1856.591, 798 1855.985 C 798 1855.378, 798.520 1855.203, 799.155 1855.595 C 799.886 1856.048, 800.037 1855.869, 799.565 1855.106 C 799.077 1854.316, 798.424 1854.233, 797.661 1854.866 C 795.998 1856.247, 794.821 1856.328, 794.070 1855.114 C 793.711 1854.532, 792.897 1855.435, 792.261 1857.120 M 801 1855 C 801 1855.550, 801.477 1856, 802.059 1856 C 802.641 1856, 802.840 1855.550, 802.500 1855 C 802.160 1854.450, 801.684 1854, 801.441 1854 C 801.198 1854, 801 1854.450, 801 1855 M 811.500 1855 C 809.870 1855.701, 809.812 1855.872, 811.191 1855.930 C 812.121 1855.968, 813.160 1855.550, 813.500 1855 C 814.211 1853.850, 814.176 1853.850, 811.500 1855 M 799.079 1863.583 C 799.127 1864.748, 799.364 1864.985, 799.683 1864.188 C 799.972 1863.466, 799.936 1862.603, 799.604 1862.271 C 799.272 1861.939, 799.036 1862.529, 799.079 1863.583 M 797 1868.200 C 797 1868.640, 798.125 1869, 799.500 1869 C 800.875 1869, 802 1868.640, 802 1868.200 C 802 1867.760, 800.875 1867.400, 799.500 1867.400 C 798.125 1867.400, 797 1867.760, 797 1868.200 M 810.813 1868.683 C 811.534 1868.972, 812.397 1868.936, 812.729 1868.604 C 813.061 1868.272, 812.471 1868.036, 811.417 1868.079 C 810.252 1868.127, 810.015 1868.364, 810.813 1868.683 M 852.733 1870.124 C 853.412 1870.808, 854.219 1871.115, 854.526 1870.807 C 854.834 1870.499, 854.279 1869.940, 853.293 1869.564 C 851.868 1869.022, 851.753 1869.136, 852.733 1870.124 M 815.603 1872.167 C 815.886 1872.625, 816.541 1873, 817.059 1873 C 817.577 1873, 818 1872.625, 818 1872.167 C 818 1871.708, 817.345 1871.333, 816.544 1871.333 C 815.743 1871.333, 815.320 1871.708, 815.603 1872.167 M 838.257 1881.237 C 838.125 1882.996, 838.290 1883.156, 839.029 1881.987 C 840.185 1880.159, 840.256 1879, 839.213 1879 C 838.780 1879, 838.350 1880.007, 838.257 1881.237 M 819.813 1880.683 C 820.534 1880.972, 821.397 1880.936, 821.729 1880.604 C 822.061 1880.272, 821.471 1880.036, 820.417 1880.079 C 819.252 1880.127, 819.015 1880.364, 819.813 1880.683 M 832.613 1881.183 C 832.902 1881.650, 833.557 1881.774, 834.069 1881.457 C 835.377 1880.649, 835.230 1880.333, 833.544 1880.333 C 832.743 1880.333, 832.324 1880.716, 832.613 1881.183 M 820.500 1884 C 820.160 1884.550, 820.359 1885, 820.941 1885 C 821.523 1885, 822 1884.550, 822 1884 C 822 1883.450, 821.802 1883, 821.559 1883 C 821.316 1883, 820.840 1883.450, 820.500 1884 M 2377.543 1944.772 C 2380.317 1947.372, 2393.367 1959.570, 2406.543 1971.879 C 2419.720 1984.187, 2440.703 2004.331, 2453.173 2016.642 L 2475.846 2039.027 2509.173 2038.764 L 2542.500 2038.500 2525.500 2021.499 C 2511.190 2007.189, 2492.335 1989.358, 2445.930 1946.250 L 2439.202 1940 2405.851 1940.022 L 2372.500 1940.043 2377.543 1944.772 M 450.500 1977.619 C 404.737 2002.611, 362.706 2033.146, 336.662 2060.322 C 299.615 2098.979, 285.851 2137.852, 297.453 2171.060 C 310.564 2208.586, 361.156 2240.863, 436 2259.452 C 497.996 2274.850, 570.966 2281.982, 666.500 2281.980 C 755.558 2281.979, 827.861 2276.696, 921 2263.384 C 942.835 2260.263, 985.185 2253.148, 985.843 2252.490 C 986.584 2251.749, 985.758 2251.844, 973.161 2253.944 C 966.747 2255.013, 959.700 2256.151, 957.500 2256.472 C 955.300 2256.793, 951.369 2257.421, 948.765 2257.867 C 946.160 2258.313, 942.716 2258.638, 941.110 2258.589 C 939.504 2258.540, 938.399 2258.838, 938.654 2259.250 C 938.909 2259.662, 938.304 2259.985, 937.309 2259.967 C 935.742 2259.938, 935.814 2259.671, 937.854 2257.972 C 939.149 2256.893, 940.611 2256.260, 941.104 2256.564 C 941.597 2256.869, 942 2256.586, 942 2255.937 C 942 2255.062, 942.348 2255.044, 943.342 2255.869 C 944.080 2256.481, 944.973 2256.694, 945.326 2256.340 C 945.680 2255.987, 945.191 2255.129, 944.241 2254.434 C 943.078 2253.584, 942.302 2253.512, 941.868 2254.213 C 941.514 2254.787, 940.666 2254.911, 939.983 2254.490 C 939.048 2253.912, 939.143 2253.499, 940.372 2252.812 C 943.225 2251.215, 942.204 2249.238, 938.250 2248.704 C 933.136 2248.013, 931.183 2247.516, 930.362 2246.696 C 929.980 2246.313, 929.179 2246.007, 928.583 2246.015 C 927.988 2246.024, 928.175 2246.467, 929 2247 C 930 2247.646, 930.083 2247.974, 929.250 2247.985 C 928.563 2247.993, 928 2248.702, 928 2249.559 C 928 2250.416, 928.450 2250.840, 929 2250.500 C 929.550 2250.160, 930 2250.331, 930 2250.881 C 930 2251.430, 928.416 2252.019, 926.479 2252.190 C 924.543 2252.360, 922.968 2252.950, 922.979 2253.500 C 923.007 2254.841, 925.163 2254.874, 926.925 2253.561 C 927.822 2252.893, 927.666 2253.549, 926.504 2255.335 C 924.943 2257.734, 924.877 2258.309, 926.079 2259.070 C 927.107 2259.720, 926.670 2259.978, 924.500 2260 C 922.193 2260.024, 921.846 2260.254, 923 2261 C 924.282 2261.828, 924.246 2261.972, 922.750 2261.985 C 921.750 2261.993, 920.993 2261.250, 920.985 2260.250 C 920.973 2258.866, 920.787 2258.788, 920.096 2259.878 C 919.616 2260.636, 918.693 2260.929, 918.045 2260.528 C 917.384 2260.119, 916.291 2260.588, 915.554 2261.595 C 914.480 2263.064, 912.629 2263.420, 905.371 2263.552 C 900.492 2263.640, 897.175 2263.480, 898 2263.194 C 898.825 2262.909, 900.096 2261.961, 900.824 2261.088 C 901.552 2260.214, 901.863 2260.063, 901.515 2260.750 C 901.167 2261.438, 901.396 2262, 902.024 2262 C 904.083 2262, 902.399 2259.508, 900.113 2259.173 C 898.372 2258.917, 898.128 2258.551, 898.999 2257.501 C 899.881 2256.438, 899.708 2256.264, 898.170 2256.666 C 897.101 2256.945, 895.936 2256.705, 895.581 2256.131 C 895.226 2255.557, 894.202 2255.369, 893.304 2255.714 C 892.375 2256.070, 891.928 2255.925, 892.267 2255.378 C 892.594 2254.848, 891.983 2254.349, 890.909 2254.268 C 889.703 2254.177, 889.185 2254.576, 889.553 2255.311 C 889.880 2255.965, 889.503 2255.713, 888.714 2254.750 C 887.925 2253.787, 886.317 2253, 885.140 2253 C 883.963 2253, 883 2252.584, 883 2252.075 C 883 2251.567, 881.425 2251.297, 879.500 2251.476 C 877.575 2251.655, 876 2251.410, 876 2250.932 C 876 2250.454, 875.319 2250.324, 874.487 2250.643 C 872.894 2251.255, 869.723 2249.257, 870.442 2248.094 C 870.673 2247.721, 869.948 2247.346, 868.831 2247.262 C 867.714 2247.178, 866.185 2246.297, 865.432 2245.305 C 864.679 2244.311, 864.049 2244.041, 864.032 2244.703 C 863.990 2246.295, 858.255 2243.071, 857.444 2241 C 856.184 2237.781, 856.092 2233.170, 857.270 2232.226 C 857.946 2231.683, 862.775 2230.976, 868 2230.654 C 882.726 2229.746, 901.831 2228.056, 909 2227.027 L 915.500 2226.094 908 2226.543 C 903.875 2226.790, 892.175 2227.654, 882 2228.463 C 871.825 2229.272, 850.900 2230.620, 835.500 2231.460 C 820.100 2232.299, 804.800 2233.204, 801.500 2233.470 C 798.200 2233.735, 771.200 2234.248, 741.500 2234.608 C 635.194 2235.896, 551.005 2229.040, 481.142 2213.404 C 425.071 2200.855, 379.140 2178.302, 358.369 2153.120 C 351.588 2144.899, 345.479 2133.158, 343.411 2124.376 C 340.978 2114.043, 341.890 2096.998, 345.435 2086.529 C 356.520 2053.795, 386.091 2021.908, 436.500 1988.335 C 443.100 1983.939, 451.762 1978.414, 455.750 1976.057 C 459.738 1973.700, 463 1971.598, 463 1971.386 C 463 1970.785, 463.173 1970.698, 450.500 1977.619 M 1072.813 2206.683 C 1073.534 2206.972, 1074.397 2206.936, 1074.729 2206.604 C 1075.061 2206.272, 1074.471 2206.036, 1073.417 2206.079 C 1072.252 2206.127, 1072.015 2206.364, 1072.813 2206.683 M 1014.813 2214.683 C 1015.534 2214.972, 1016.397 2214.936, 1016.729 2214.604 C 1017.061 2214.272, 1016.471 2214.036, 1015.417 2214.079 C 1014.252 2214.127, 1014.015 2214.364, 1014.813 2214.683 M 983.269 2218.693 C 984.242 2218.947, 985.592 2218.930, 986.269 2218.656 C 986.946 2218.382, 986.150 2218.175, 984.500 2218.195 C 982.850 2218.215, 982.296 2218.439, 983.269 2218.693 M 954.500 2221.520 C 944.600 2222.751, 938.525 2223.780, 941 2223.808 C 943.475 2223.835, 953.375 2222.822, 963 2221.556 C 972.625 2220.289, 978.700 2219.260, 976.500 2219.268 C 974.300 2219.276, 964.400 2220.290, 954.500 2221.520 M 928.264 2224.718 C 929.784 2224.947, 932.034 2224.941, 933.264 2224.704 C 934.494 2224.467, 933.250 2224.279, 930.500 2224.286 C 927.750 2224.294, 926.744 2224.488, 928.264 2224.718 M 918.250 2225.689 C 919.212 2225.941, 920.788 2225.941, 921.750 2225.689 C 922.712 2225.438, 921.925 2225.232, 920 2225.232 C 918.075 2225.232, 917.288 2225.438, 918.250 2225.689 M 1070.813 2235.683 C 1071.534 2235.972, 1072.397 2235.936, 1072.729 2235.604 C 1073.061 2235.272, 1072.471 2235.036, 1071.417 2235.079 C 1070.252 2235.127, 1070.015 2235.364, 1070.813 2235.683 M 1058 2238 C 1056.020 2238.634, 1055.916 2238.801, 1057.500 2238.801 C 1058.600 2238.801, 1060.625 2238.440, 1062 2238 C 1063.980 2237.366, 1064.084 2237.199, 1062.500 2237.199 C 1061.400 2237.199, 1059.375 2237.560, 1058 2238 M 1051.813 2239.683 C 1052.534 2239.972, 1053.397 2239.936, 1053.729 2239.604 C 1054.061 2239.272, 1053.471 2239.036, 1052.417 2239.079 C 1051.252 2239.127, 1051.015 2239.364, 1051.813 2239.683 M 1038.212 2241.741 C 1034.204 2242.575, 1031.129 2243.462, 1031.379 2243.712 C 1031.849 2244.182, 1048.179 2241.093, 1048.917 2240.395 C 1049.663 2239.688, 1045.647 2240.193, 1038.212 2241.741 M 1017.500 2246 C 1013.100 2246.980, 1010.400 2247.811, 1011.500 2247.846 C 1012.600 2247.880, 1017.325 2247.075, 1022 2246.056 C 1026.675 2245.037, 1029.375 2244.207, 1028 2244.211 C 1026.625 2244.214, 1021.900 2245.020, 1017.500 2246 M 1005.750 2248.662 C 1006.438 2248.940, 1007.563 2248.940, 1008.250 2248.662 C 1008.938 2248.385, 1008.375 2248.158, 1007 2248.158 C 1005.625 2248.158, 1005.063 2248.385, 1005.750 2248.662 M 943.613 2250.183 C 943.902 2250.650, 944.557 2250.774, 945.069 2250.457 C 946.377 2249.649, 946.230 2249.333, 944.544 2249.333 C 943.743 2249.333, 943.324 2249.716, 943.613 2250.183 M 1000.750 2249.662 C 1001.438 2249.940, 1002.563 2249.940, 1003.250 2249.662 C 1003.938 2249.385, 1003.375 2249.158, 1002 2249.158 C 1000.625 2249.158, 1000.063 2249.385, 1000.750 2249.662 M 994.750 2250.662 C 995.438 2250.940, 996.563 2250.940, 997.250 2250.662 C 997.938 2250.385, 997.375 2250.158, 996 2250.158 C 994.625 2250.158, 994.063 2250.385, 994.750 2250.662 M 989.269 2251.693 C 990.242 2251.947, 991.592 2251.930, 992.269 2251.656 C 992.946 2251.382, 992.150 2251.175, 990.500 2251.195 C 988.850 2251.215, 988.296 2251.439, 989.269 2251.693 M 3364 2354.500 L 3364 2454 3374.770 2454 L 3385.539 2454 3385.345 2441.250 L 3385.151 2428.500 3387.630 2431.500 C 3402.618 2449.639, 3414.917 2456, 3435 2456 C 3451.832 2456, 3464.063 2451.345, 3475.811 2440.469 C 3496.149 2421.638, 3503.500 2391.197, 3495.363 2359.500 C 3489.902 2338.231, 3474.830 2321.508, 3455.663 2315.453 C 3430.061 2307.366, 3404.736 2314.750, 3389.460 2334.757 L 3386 2339.288 3386 2297.144 L 3386 2255 3375 2255 L 3364 2255 3364 2354.500 M 2285 2313.119 C 2275.623 2314.629, 2266.045 2320.073, 2258.579 2328.137 C 2254.961 2332.046, 2252 2335.639, 2252 2336.122 C 2252 2336.605, 2251.662 2337.001, 2251.250 2337.002 C 2250.838 2337.003, 2250.644 2332.445, 2250.819 2326.871 C 2250.995 2321.298, 2250.770 2316.434, 2250.319 2316.062 C 2249.869 2315.690, 2245.113 2315.567, 2239.750 2315.789 L 2230 2316.193 2230 2385.097 L 2230 2454 2241.069 2454 L 2252.137 2454 2251.589 2414.702 C 2250.971 2370.324, 2251.559 2361.671, 2255.809 2352.607 C 2259.360 2345.034, 2266.756 2337.537, 2274 2334.166 C 2281.336 2330.753, 2294.374 2329.967, 2301.947 2332.482 C 2309.142 2334.872, 2316.978 2342.652, 2319.808 2350.216 C 2323.506 2360.101, 2323.985 2367.079, 2323.992 2411.250 L 2324 2454 2334.500 2454 L 2345 2454 2345 2411.136 C 2345 2386.851, 2345.432 2365.996, 2345.996 2363.020 C 2347.696 2354.054, 2351.776 2346.406, 2357.787 2340.911 C 2364.853 2334.453, 2369.208 2332.296, 2377.900 2330.948 C 2395.560 2328.207, 2410.177 2337.007, 2415.220 2353.415 C 2417.322 2360.251, 2417.400 2362.140, 2417.449 2407.247 L 2417.500 2453.995 2428.250 2453.997 L 2439 2454 2438.969 2408.250 C 2438.952 2383.088, 2438.519 2359.275, 2438.007 2355.333 C 2435.412 2335.360, 2424.845 2321.214, 2408.211 2315.445 C 2395.384 2310.996, 2377.915 2311.547, 2366 2316.775 C 2358.644 2320.002, 2349.596 2327.359, 2344.478 2334.274 L 2339.682 2340.754 2337.184 2335.742 C 2333.982 2329.317, 2325.412 2320.749, 2318.871 2317.435 C 2309.431 2312.651, 2297.417 2311.120, 2285 2313.119 M 2891 2312.604 C 2885.799 2313.568, 2876.315 2317.394, 2871.476 2320.481 C 2866.721 2323.514, 2855 2335.387, 2855 2337.170 C 2855 2337.627, 2854.550 2338, 2854 2338 C 2853.394 2338, 2853 2333.667, 2853 2327 L 2853 2316 2842.500 2316 L 2832 2316 2832 2385 L 2832 2454 2842.500 2454 L 2853 2454 2853 2412.636 C 2853 2389.356, 2853.437 2368.918, 2853.999 2365.886 C 2856.503 2352.380, 2865.624 2340.279, 2877.808 2334.295 C 2882.993 2331.749, 2884.481 2331.500, 2894.500 2331.500 C 2907.695 2331.501, 2913.531 2333.598, 2920.066 2340.688 C 2929.324 2350.731, 2929.983 2355.350, 2929.992 2410.250 L 2930 2454 2940.500 2454 L 2951 2454 2950.983 2405.250 C 2950.964 2352.678, 2950.625 2348.413, 2945.589 2337.413 C 2940.887 2327.144, 2930.287 2318.209, 2918.310 2314.418 C 2913.520 2312.902, 2895.758 2311.723, 2891 2312.604 M 3137.402 2312.997 C 3114.215 2316.397, 3095.202 2333.389, 3087.236 2357.833 C 3083.872 2368.154, 3082.972 2388.736, 3085.376 2400.359 C 3089.606 2420.814, 3100.801 2436.405, 3117.572 2445.198 C 3127.225 2450.258, 3135.358 2452.145, 3147.416 2452.120 C 3159.180 2452.096, 3168.287 2449.738, 3177.052 2444.447 C 3182.374 2441.235, 3191.117 2432.841, 3195.746 2426.500 L 3197.937 2423.500 3197.951 2438 C 3197.960 2446.838, 3197.405 2455.144, 3196.531 2459.270 C 3191.605 2482.514, 3172.942 2495.283, 3146.310 2493.631 C 3132.178 2492.755, 3119.462 2487.744, 3108.742 2478.826 C 3104.045 2474.918, 3103.955 2474.891, 3101.699 2476.684 C 3100.442 2477.683, 3097.633 2480.525, 3095.457 2483 C 3093.281 2485.475, 3091.050 2487.849, 3090.500 2488.275 C 3089.901 2488.739, 3091.106 2490.456, 3093.500 2492.551 C 3103.265 2501.098, 3117.737 2507.773, 3132.500 2510.541 C 3144.637 2512.816, 3165.350 2512.116, 3175.829 2509.076 C 3197.187 2502.879, 3210.236 2489.717, 3216.242 2468.314 C 3218.391 2460.654, 3218.440 2459.068, 3218.765 2387.750 L 3219.097 2315 3213.188 2315 C 3209.938 2315, 3205.191 2315.286, 3202.640 2315.636 L 3198 2316.272 3198 2327.636 C 3198 2338.171, 3197.034 2341.833, 3195.516 2337.051 C 3194.437 2333.652, 3180.143 2321.195, 3173.678 2318.021 C 3163.033 2312.794, 3150.565 2311.067, 3137.402 2312.997 M 2617 2315.332 C 2606.410 2318.474, 2598.621 2323.221, 2590.305 2331.599 C 2584.494 2337.454, 2582.135 2340.844, 2578.047 2349.214 C 2572.044 2361.503, 2570 2370.722, 2570 2385.500 C 2570 2403.282, 2573.681 2416.750, 2581.815 2428.728 C 2594.920 2448.025, 2619.632 2458.496, 2646.178 2456 C 2663.454 2454.375, 2677.066 2448.332, 2689.755 2436.652 L 2694.011 2432.735 2690.246 2428.618 C 2688.175 2426.353, 2685.548 2423.204, 2684.407 2421.619 L 2682.334 2418.739 2675.917 2423.926 C 2662.079 2435.112, 2646.226 2440.192, 2631.607 2438.125 C 2620.617 2436.570, 2612.243 2432.483, 2605.106 2425.190 C 2601.972 2421.986, 2598.251 2416.920, 2596.838 2413.932 C 2594.472 2408.929, 2591 2396.215, 2591 2392.553 C 2591 2391.168, 2596.806 2391, 2644.500 2391 L 2698 2391 2698 2380.588 C 2698 2358.307, 2692.345 2343.150, 2679.094 2329.914 C 2666.588 2317.421, 2655.268 2312.996, 2636 2313.065 C 2627.117 2313.098, 2622.793 2313.614, 2617 2315.332 M 539 2424.584 C 539 2512.732, 539.253 2534.971, 540.250 2534.392 C 540.938 2533.992, 544.200 2531.568, 547.500 2529.005 C 554.550 2523.528, 599.828 2491.244, 618.446 2478.418 C 647.165 2458.634, 691.039 2430.622, 718.500 2414.536 C 726.750 2409.703, 736.875 2403.738, 741 2401.280 C 758.535 2390.830, 830.934 2356.208, 852.500 2347.959 L 857.500 2346.047 857.202 2329.957 L 856.903 2313.868 851.702 2314.447 C 842.909 2315.426, 811.792 2317.886, 785 2319.722 C 752.779 2321.929, 636.977 2322.262, 609 2320.228 C 584.360 2318.436, 545.023 2315.104, 541.750 2314.531 L 539 2314.050 539 2424.584 M 3636.243 2384.250 L 3636.500 2453.500 3647.280 2453.787 L 3658.059 2454.074 3657.966 2384.537 L 3657.873 2315 3646.930 2315 L 3635.986 2315 3636.243 2384.250 M 2625.024 2331.539 C 2612.723 2334.989, 2603.306 2343.354, 2596.958 2356.469 C 2594.710 2361.113, 2592.664 2367.045, 2592.326 2369.895 L 2591.721 2375 2634.503 2375 L 2677.285 2375 2676.671 2369.123 C 2675.909 2361.834, 2672.143 2351.257, 2668.373 2345.817 C 2664.963 2340.896, 2657.200 2334.963, 2651 2332.539 C 2644.771 2330.103, 2631.907 2329.608, 2625.024 2331.539 M 3137.214 2332.829 C 3130.706 2335.154, 3121.873 2341.133, 3117.881 2345.916 C 3113.896 2350.690, 3108.456 2362.233, 3107.097 2368.799 C 3106.494 2371.714, 3106 2377.879, 3106 2382.500 C 3106 2399.227, 3110.920 2412.008, 3120.927 2421.272 C 3128.427 2428.215, 3135.397 2431.643, 3145.041 2433.131 C 3151.424 2434.115, 3153.728 2434.038, 3160.041 2432.630 C 3182.259 2427.674, 3194.756 2413.690, 3197.975 2390.179 C 3199.230 2381.016, 3198.066 2368.773, 3195.259 2361.600 C 3190.731 2350.031, 3182.234 2340.729, 3171.199 2335.262 C 3164.424 2331.906, 3163.127 2331.620, 3153.199 2331.293 C 3144.598 2331.010, 3141.463 2331.311, 3137.214 2332.829 M 3419 2332.086 C 3405.175 2335.994, 3394.028 2347.130, 3388.234 2362.821 C 3384.599 2372.664, 3384.009 2389.298, 3386.870 2401.256 C 3389.504 2412.263, 3391.892 2416.948, 3398.346 2423.773 C 3404.607 2430.392, 3410.189 2433.766, 3418.856 2436.170 C 3434.330 2440.461, 3450.077 2436.393, 3461.477 2425.160 C 3471.205 2415.574, 3475.989 2403.744, 3476.708 2387.500 C 3477.833 2362.090, 3468.428 2343.308, 3450.274 2334.709 C 3444.132 2331.799, 3442.520 2331.481, 3433 2331.298 C 3427.225 2331.187, 3420.925 2331.541, 3419 2332.086 M 1541 2402.449 C 1541 2402.724, 1542.350 2403.647, 1544 2404.500 C 1545.650 2405.353, 1547 2405.826, 1547 2405.551 C 1547 2405.276, 1545.650 2404.353, 1544 2403.500 C 1542.350 2402.647, 1541 2402.174, 1541 2402.449 M 1561 2414.393 C 1561 2414.609, 1561.698 2415.054, 1562.552 2415.382 C 1563.442 2415.723, 1563.843 2415.555, 1563.493 2414.989 C 1562.906 2414.038, 1561 2413.583, 1561 2414.393 M 1568.500 2418.518 C 1569.600 2419.414, 1571.400 2420.588, 1572.500 2421.128 L 1574.500 2422.110 1572.500 2420.482 C 1571.400 2419.586, 1569.600 2418.412, 1568.500 2417.872 L 1566.500 2416.890 1568.500 2418.518 M 1634 2459.378 C 1634 2459.585, 1634.787 2460.373, 1635.750 2461.128 C 1637.336 2462.371, 1637.371 2462.336, 1636.128 2460.750 C 1634.821 2459.084, 1634 2458.555, 1634 2459.378 M 1737.500 2534 C 1737.840 2534.550, 1738.316 2535, 1738.559 2535 C 1738.802 2535, 1739 2534.550, 1739 2534 C 1739 2533.450, 1738.523 2533, 1737.941 2533 C 1737.359 2533, 1737.160 2533.450, 1737.500 2534 M 992.500 2675.001 L 992.500 2724.001 1040.500 2724 L 1088.500 2724 1088.500 2675 L 1088.500 2626 1040.500 2626.001 L 992.500 2626.001 992.500 2675.001" stroke="none" fill="black" fill-rule="evenodd"/>
</svg>