<?xml version="1.0" encoding="UTF-8"?>
<!-- Generated by @neplex/vectorizer (Using visioncortex VTracer) -->
<svg version="1.1" xmlns="http://www.w3.org/2000/svg" width="4000" height="4000">
<path d="M0 0 C0.33 0 0.66 0 1 0 C1.1 0.7 1.2 1.4 1.3 2.12 C6.86 40.45 15.86 78.11 47.81 103.43 C71.52 121.08 100.3 127.62 129 132 C129 132.33 129 132.66 129 133 C128.29 133.12 127.57 133.24 126.84 133.36 C87.57 140.06 50.09 151.46 25.81 185.19 C9.43 208.65 4.21 236.11 1 264 C0.67 264 0.34 264 0 264 C-0.13 263.03 -0.13 263.03 -0.27 262.04 C-5.7 223.71 -17 185.79 -49 161.25 C-50.99 159.82 -52.99 158.4 -55 157 C-55.76 156.47 -56.53 155.94 -57.32 155.39 C-78.77 141.54 -105.16 136.56 -130 133 C-130 132.67 -130 132.34 -130 132 C-128.78 131.84 -127.55 131.68 -126.29 131.52 C-90.34 126.64 -52.94 114.4 -29.6 84.98 C-11.42 59.84 -5.45 29.94 0 0 Z M0 250 C1 254 1 254 1 254 Z " fill="#000000" transform="translate(1139,1275)"/>
<path d="M0 0 C12.33 8.22 24.6 16.54 36.69 25.12 C45.71 31.53 54.85 37.77 64 44 C66.73 45.86 69.47 47.73 72.2 49.59 C74.07 50.87 75.95 52.14 77.82 53.42 C82.11 56.34 86.39 59.27 90.67 62.21 C115.93 79.6 115.93 79.6 141.79 96.09 C148.47 100.22 154.97 104.63 161.5 109 C170.55 115.06 179.66 121 188.93 126.72 C193.12 129.32 197.28 131.97 201.44 134.62 C202.36 135.21 203.29 135.8 204.24 136.41 C209.19 139.56 214.12 142.72 219.05 145.89 C230.98 153.56 242.96 161.11 255.06 168.51 C260.86 172.06 266.63 175.66 272.36 179.32 C276.51 181.96 280.69 184.54 284.88 187.12 C285.78 187.68 286.68 188.24 287.6 188.81 C290.4 190.54 293.2 192.27 296 194 C307.02 200.81 318.02 207.63 329 214.5 C344.63 224.28 360.31 233.99 376.07 243.56 C386.63 249.98 397.16 256.47 407.68 262.95 C411.01 265.01 414.35 267.06 417.69 269.11 C418.78 269.79 419.88 270.46 421.01 271.16 C423.21 272.51 425.4 273.86 427.6 275.21 C432.56 278.26 437.52 281.32 442.46 284.4 C452.56 290.71 462.77 296.81 473.08 302.78 C479.45 306.48 485.75 310.28 492 314.19 C511.56 326.41 531.5 338.07 551.5 349.56 C555.54 351.89 559.57 354.21 563.61 356.54 C565.85 357.84 568.09 359.13 570.34 360.42 C575.5 363.39 580.64 366.37 585.74 369.44 C586.61 369.96 587.49 370.48 588.39 371.01 C590 371.98 591.61 372.95 593.21 373.94 C593.93 374.36 594.64 374.78 595.37 375.22 C595.98 375.59 596.59 375.96 597.21 376.34 C599.61 377.23 600.61 376.9 603 376 C604.92 375.01 606.8 373.97 608.67 372.89 C609.8 372.25 610.93 371.6 612.09 370.93 C613.31 370.23 614.53 369.52 615.75 368.81 C617.01 368.08 618.28 367.36 619.54 366.63 C623.37 364.43 627.18 362.21 631 360 C632.64 359.05 632.64 359.05 634.31 358.08 C641.22 354.07 648.11 350.04 655 346 C655.9 345.47 656.8 344.95 657.72 344.41 C670.14 337.13 682.46 329.71 694.75 322.23 C701.53 318.11 708.32 314 715.12 309.94 C726.03 303.42 736.83 296.74 747.64 290.07 C766.95 278.16 786.3 266.3 805.7 254.54 C816.52 247.98 827.29 241.34 838.01 234.61 C844.85 230.32 851.72 226.11 858.62 221.94 C867.04 216.84 875.37 211.63 883.65 206.32 C890.47 201.96 897.32 197.66 904.19 193.38 C912.07 188.46 919.94 183.52 927.79 178.55 C934.05 174.59 940.34 170.67 946.62 166.75 C956.15 160.81 965.62 154.77 975.06 148.7 C981.04 144.87 987.05 141.11 993.12 137.44 C1001 132.68 1008.7 127.67 1016.39 122.63 C1023.24 118.13 1030.14 113.71 1037.1 109.38 C1043.75 105.22 1050.26 100.85 1056.78 96.48 C1060.86 93.76 1064.94 91.04 1069.02 88.32 C1070.8 87.13 1072.59 85.94 1074.37 84.75 C1077.99 82.34 1081.6 79.93 1085.22 77.52 C1086.55 76.63 1086.55 76.63 1087.91 75.73 C1089.68 74.54 1091.46 73.36 1093.23 72.18 C1097.51 69.33 1101.79 66.48 1106.07 63.62 C1106.87 63.08 1107.68 62.55 1108.51 61.99 C1110.01 60.99 1111.51 59.99 1113.01 58.99 C1116.96 56.35 1120.92 53.72 1124.89 51.09 C1133.32 45.49 1141.67 39.76 1150 34 C1151.02 33.3 1152.04 32.59 1153.09 31.87 C1159.22 27.63 1165.33 23.38 1171.45 19.12 C1173.47 17.71 1175.5 16.31 1177.52 14.9 C1181.8 11.93 1186.07 8.95 1190.34 5.97 C1191.52 5.15 1192.7 4.32 1193.88 3.5 C1194.86 2.81 1195.85 2.12 1196.87 1.41 C1199 0 1199 0 1200 0 C1200.83 37.7 1201.15 75.39 1201.12 113.1 C1201.11 120.64 1201.11 128.19 1201.11 135.74 C1201.12 149.65 1201.11 163.57 1201.11 177.48 C1201.1 191.21 1201.1 204.94 1201.09 218.67 C1201.09 219.54 1201.09 220.4 1201.09 221.28 C1201.09 225.66 1201.09 230.04 1201.09 234.41 C1201.09 265.22 1201.08 296.02 1201.08 326.83 C1201.07 356.71 1201.06 386.59 1201.05 416.47 C1201.05 417.4 1201.05 418.32 1201.05 419.28 C1201.05 428.57 1201.05 437.86 1201.05 447.15 C1201.05 466.07 1201.05 484.98 1201.04 503.9 C1201.04 504.77 1201.04 505.64 1201.04 506.53 C1201.03 564.36 1201.02 622.18 1201 680 C1197.72 681.88 1194.43 683.76 1191.14 685.64 C1190.23 686.16 1189.31 686.69 1188.37 687.23 C1182.17 690.78 1175.94 694.28 1169.69 697.75 C1168.9 698.19 1168.11 698.62 1167.3 699.08 C1122.93 723.58 1075.74 744.52 1028.46 762.67 C1025.04 763.98 1021.62 765.31 1018.21 766.64 C997.64 774.57 976.85 781.86 956 789 C954.6 789.48 954.6 789.48 953.16 789.97 C947.33 791.97 941.5 793.95 935.66 795.92 C933.81 796.54 931.97 797.16 930.13 797.79 C918.78 801.64 907.36 805.07 895.8 808.22 C894.45 808.59 893.1 808.96 891.76 809.33 C888.51 810.22 885.25 811.11 882 812 C881.85 763.52 881.7 715.03 881.57 666.54 C881.55 660.8 881.53 655.06 881.52 649.32 C881.51 648.18 881.51 647.04 881.51 645.86 C881.46 627.42 881.4 608.99 881.34 590.55 C881.28 571.59 881.23 552.64 881.17 533.68 C881.14 522.01 881.11 510.34 881.07 498.67 C881.04 490.64 881.02 482.6 881 474.57 C880.99 469.95 880.98 465.34 880.96 460.72 C880.87 438.46 881.16 416.25 882 394 C880.19 394.24 878.37 394.48 876.56 394.71 C875.55 394.85 874.54 394.98 873.5 395.12 C845.68 398.83 818.57 406.07 792 415 C791.11 415.3 790.23 415.59 789.31 415.9 C742.34 431.9 698.87 457.09 661.53 489.67 C660.17 490.85 658.79 492.03 657.41 493.21 C656.7 493.82 655.98 494.43 655.25 495.06 C654.66 495.57 654.06 496.08 653.45 496.6 C651.75 498.14 651.75 498.14 650 501 C649.34 501 648.68 501 648 501 C647.75 501.57 647.5 502.15 647.24 502.74 C645.84 505.3 644.21 507.03 642.19 509.12 C621.65 531.62 605.87 560.73 601 591 C598.84 587.75 598.31 585.47 597.44 581.69 C589.9 551.73 573.13 525.16 552 503 C550.87 501.67 549.74 500.34 548.62 499 C539.96 489.06 529.59 480.78 519 473 C517.96 472.22 516.92 471.45 515.84 470.65 C490.5 452 463.07 436.96 434 425 C432.97 424.58 431.94 424.15 430.89 423.72 C394.94 409.06 357.55 398.82 319 394 C319 557.35 319 720.7 319 889 C221.03 893.74 125.01 895.78 27.62 882.81 C26.67 882.69 25.72 882.56 24.74 882.43 C22.07 882.07 19.4 881.7 16.73 881.33 C15.57 881.17 15.57 881.17 14.39 881.01 C13.66 880.91 12.93 880.81 12.18 880.7 C11.25 880.57 11.25 880.57 10.31 880.43 C6.84 879.78 3.42 878.86 0 878 C0 588.26 0 298.52 0 0 Z " fill="#000000" transform="translate(539,1301)"/>
<path d="M0 0 C18.81 0 37.62 0 57 0 C57 20.79 57 41.58 57 63 C99.24 63 141.48 63 185 63 C185 74.22 185 85.44 185 97 C122.14 97.49 122.14 97.49 58 98 C57.51 207.89 57.51 207.89 57 320 C37.86 320 18.72 320 -1 320 C-1.02 299.64 -1.04 279.27 -1.05 258.91 C-1.06 249.45 -1.06 239.98 -1.08 230.52 C-1.09 222.24 -1.09 213.95 -1.09 205.67 C-1.1 201.32 -1.1 196.96 -1.11 192.61 C-1.15 160.72 -0.54 128.89 0 97 C-44.88 97 -89.76 97 -136 97 C-136 85.78 -136 74.56 -136 63 C-91.12 63 -46.24 63 0 63 C0 42.21 0 21.42 0 0 Z " fill="#000000" transform="translate(2318,1456)"/>
<path d="M0 0 C18.81 0 37.62 0 57 0 C66.24 18.49 58 41.33 58 62 C100.24 62.33 142.48 62.66 186 63 C186 74.22 186 85.44 186 97 C182.34 97.03 178.67 97.05 174.9 97.08 C162.79 97.16 150.69 97.25 138.59 97.34 C131.25 97.39 123.91 97.45 116.58 97.5 C110.18 97.54 103.78 97.59 97.39 97.64 C94 97.66 90.61 97.69 87.23 97.71 C83.45 97.73 79.66 97.76 75.88 97.79 C74.2 97.8 74.2 97.8 72.49 97.81 C71.45 97.82 70.42 97.83 69.35 97.84 C68.46 97.85 67.56 97.85 66.64 97.86 C63.71 98.02 60.89 98.47 58 99 C58 100.62 58 100.62 58 102.27 C58.03 128.52 58.04 154.77 58.05 181.01 C58.06 193.71 58.06 206.4 58.08 219.1 C58.09 230.16 58.09 241.23 58.09 252.29 C58.1 258.15 58.1 264.01 58.11 269.87 C58.11 275.38 58.11 280.9 58.11 286.42 C58.11 288.44 58.12 290.46 58.12 292.48 C58.12 295.25 58.12 298.02 58.12 300.79 C58.12 301.97 58.12 301.97 58.13 303.19 C58.11 308.91 57.58 314.24 57 320 C38.19 320 19.38 320 0 320 C-0.49 210.11 -0.49 210.11 -1 98 C-41.92 97.67 -82.84 97.34 -125 97 C-125 85.78 -125 74.56 -125 63 C-83.75 63 -42.5 63 0 63 C0 42.21 0 21.42 0 0 Z " fill="#000000" transform="translate(2646,1456)"/>
<path d="M0 0 C0 4.16 -1.64 7.52 -3.19 11.31 C-3.54 12.19 -3.9 13.06 -4.26 13.96 C-9.32 26.36 -14.69 38.63 -20.07 50.89 C-21.02 53.04 -21.96 55.21 -22.91 57.37 C-59.29 140.53 -59.29 140.53 -85 166 C-86.15 167.15 -86.15 167.15 -87.33 168.32 C-94.86 175.5 -102.96 180.91 -112 186 C-112.7 186.4 -113.4 186.8 -114.12 187.21 C-124.61 193.1 -133 195.16 -145 194 C-144.29 192.67 -144.29 192.67 -143.57 191.32 C-142.16 188.68 -140.75 186.04 -139.34 183.39 C-137.83 180.55 -136.31 177.72 -134.78 174.89 C-130.38 166.69 -126.23 158.42 -122.29 149.99 C-120.33 145.8 -118.34 141.64 -116.24 137.51 C-93.76 93.31 -75.43 46.99 -57 1 C-28.78 0.51 -28.78 0.51 0 0 Z " fill="#000000" transform="translate(3110,1458)"/>
<path d="M0 0 C19.14 0 38.28 0 58 0 C45.93 30.17 45.93 30.17 41.81 40 C41.42 40.94 41.42 40.94 41.01 41.9 C34.65 57.07 27.84 72.03 20.94 86.96 C20 89 19.06 91.05 18.12 93.1 C0.43 131.6 -17.21 166.3 -56 187 C-57.05 187.6 -58.1 188.21 -59.18 188.83 C-68.2 193.63 -76.06 193.64 -86 193 C-84.3 188.45 -82.12 184.2 -79.89 179.89 C-79.48 179.11 -79.08 178.32 -78.66 177.51 C-77.79 175.82 -76.92 174.13 -76.05 172.44 C-73.75 168 -71.47 163.55 -69.19 159.11 C-68.74 158.22 -68.28 157.34 -67.82 156.44 C-66.54 153.96 -65.27 151.48 -64 149 C-63.66 148.34 -63.32 147.67 -62.97 146.98 C-43.1 108.24 -25.94 68.12 -10.12 27.56 C-9.78 26.69 -9.44 25.81 -9.09 24.91 C-8.12 22.42 -7.16 19.93 -6.2 17.44 C-5.77 16.36 -5.77 16.36 -5.35 15.25 C-3.41 10.2 -1.71 5.14 0 0 Z " fill="#000000" transform="translate(3398,1459)"/>
<path d="M0 0 C0 7.35 -11.49 15.59 -16.56 20.69 C-26.56 30.63 -26.56 30.63 -32 35 C-33.31 36.07 -33.31 36.07 -34.65 37.16 C-43.61 44.21 -54.33 51.7 -66.07 52.32 C-66.86 52.36 -67.65 52.4 -68.46 52.44 C-69.3 52.48 -70.15 52.52 -71.02 52.56 C-71.91 52.6 -72.79 52.65 -73.71 52.69 C-83.05 53.1 -92.37 53.09 -101.71 53.02 C-103.59 53.01 -105.46 53 -107.34 52.99 C-112.36 52.97 -117.38 52.93 -122.39 52.9 C-127.67 52.86 -132.94 52.84 -138.21 52.81 C-148.16 52.75 -158.11 52.69 -168.06 52.63 C-179.41 52.55 -190.75 52.49 -202.09 52.42 C-225.39 52.29 -248.7 52.15 -272 52 C-271.21 50.08 -270.42 48.16 -269.63 46.24 C-269.19 45.18 -268.76 44.11 -268.3 43.01 C-262.05 28.57 -250.91 15.33 -236.14 9.23 C-227.03 5.8 -218.51 3.85 -208.76 3.86 C-207.94 3.86 -207.13 3.86 -206.29 3.85 C-203.57 3.85 -200.84 3.84 -198.12 3.84 C-196.17 3.84 -194.21 3.83 -192.26 3.83 C-188.05 3.82 -183.84 3.81 -179.63 3.8 C-172.96 3.79 -166.3 3.77 -159.63 3.75 C-140.67 3.69 -121.71 3.63 -102.75 3.6 C-92.28 3.58 -81.81 3.55 -71.34 3.51 C-65.8 3.49 -60.27 3.47 -54.73 3.47 C-49.52 3.47 -44.3 3.45 -39.09 3.43 C-37.18 3.42 -35.28 3.42 -33.38 3.42 C-21.9 3.44 -11.2 2.58 0 0 Z " fill="#000000" transform="translate(3705,1506)"/>
<path d="M0 0 C66 0 132 0 200 0 C200 11.22 200 22.44 200 34 C198.19 35.81 195.68 35.12 193.27 35.13 C192.44 35.13 191.61 35.12 190.76 35.12 C189.88 35.12 189.01 35.12 188.1 35.12 C185.15 35.12 182.2 35.12 179.24 35.11 C177.13 35.11 175.02 35.11 172.92 35.11 C167.17 35.11 161.43 35.11 155.69 35.1 C149.69 35.1 143.7 35.09 137.7 35.09 C126.34 35.09 114.98 35.08 103.62 35.07 C90.69 35.06 77.75 35.06 64.82 35.05 C38.22 35.04 11.61 35.02 -15 35 C-14.26 30.97 -13.08 27.68 -11.35 23.96 C-10.82 22.83 -10.29 21.69 -9.74 20.51 C-8.91 18.74 -8.91 18.74 -8.06 16.94 C-7.24 15.16 -7.24 15.16 -6.39 13.35 C-4.31 8.88 -2.21 4.42 0 0 Z " fill="#000000" transform="translate(3103,1519)"/>
<path d="M0 0 C7.73 -0.51 15.45 -0.9 23.19 -1.14 C26.78 -1.25 30.37 -1.41 33.96 -1.66 C56.99 -3.23 56.99 -3.23 63.51 2.02 C67.82 7.21 70.46 13.06 72.91 19.3 C74.32 22.8 76.09 25.86 78.02 29.09 C79.1 31.04 80.17 32.99 81.25 34.94 C84.99 41.67 88.75 48.37 92.75 54.94 C96.14 60.52 99.39 66.17 102.56 71.88 C103.23 73.06 103.23 73.06 103.9 74.28 C107 79.87 107 79.87 107 81 C99.41 81.21 91.82 81.37 84.23 81.47 C80.71 81.51 77.18 81.58 73.66 81.68 C69.6 81.8 65.55 81.84 61.49 81.88 C60.23 81.93 58.97 81.97 57.68 82.02 C49.12 82.02 49.12 82.02 45.93 79.1 C44.37 76.8 43.16 74.53 42 72 C41.47 71.14 40.93 70.28 40.38 69.39 C39.97 68.68 39.56 67.98 39.13 67.26 C38.65 66.43 38.16 65.61 37.66 64.76 C37.16 63.89 36.65 63.02 36.12 62.12 C34.99 60.19 33.85 58.25 32.71 56.31 C32.11 55.29 31.51 54.27 30.89 53.22 C27.89 48.11 24.87 43.02 21.85 37.93 C19.5 33.98 17.16 30.03 14.82 26.07 C13.67 24.13 12.52 22.19 11.37 20.25 C9.97 17.89 8.58 15.54 7.19 13.19 C6.6 12.2 6.6 12.2 6.01 11.2 C3.84 7.53 1.89 3.81 0 0 Z " fill="#000000" transform="translate(3128,1571)"/>
<path d="M0 0 C20.13 0 40.26 0 61 0 C68.06 12.49 75.11 24.97 82.15 37.47 C85.12 42.72 88.12 47.95 91.15 53.16 C91.5 53.75 91.85 54.35 92.21 54.97 C93.91 57.9 95.61 60.83 97.33 63.75 C97.94 64.8 98.55 65.85 99.18 66.93 C99.72 67.86 100.27 68.79 100.83 69.75 C102 72 102 72 102 74 C94.35 74.4 86.71 74.7 79.05 74.88 C75.49 74.97 71.94 75.09 68.39 75.28 C45.57 76.49 45.57 76.49 39.8 72.46 C36.3 68.55 34.45 64.08 32.77 59.15 C31.7 56.16 30.14 53.57 28.5 50.87 C27.48 49.06 26.46 47.25 25.44 45.44 C24.89 44.46 24.34 43.49 23.77 42.48 C21.35 38.18 18.93 33.88 16.52 29.57 C15.79 28.26 15.05 26.94 14.31 25.62 C13.97 25.01 13.62 24.39 13.26 23.75 C9.96 17.88 6.55 12.09 3.1 6.32 C0 1.1 0 1.1 0 0 Z " fill="#000000" transform="translate(3485,1578)"/>
<path d="M0 0 C17.49 0 34.98 0 53 0 C51.87 18.03 51.87 18.03 50.8 24.67 C50.69 25.39 50.57 26.12 50.45 26.86 C50.08 29.16 49.7 31.45 49.31 33.75 C49.18 34.55 49.05 35.35 48.91 36.17 C41.54 80.66 32.18 128.31 0 162 C-0.6 162.67 -1.2 163.35 -1.82 164.04 C-7.43 170.12 -14.13 174.47 -21.11 178.82 C-22.86 179.92 -24.6 181.05 -26.33 182.19 C-34.83 187.38 -41.29 187.85 -51 187 C-50.48 185.87 -49.96 184.74 -49.42 183.57 C-25.17 130.65 -10.66 76.6 -2.99 19.02 C-2.13 12.65 -1.06 6.36 0 0 Z " fill="#000000" transform="translate(2233,1589)"/>
<path d="M0 0 C16.83 0 33.66 0 51 0 C51.41 5.01 51.82 10.02 52.25 15.19 C57.48 75.17 72.4 130.07 97.91 184.55 C99 187 99 187 99 188 C78.53 187.55 62.63 175.3 48.53 161.6 C14.91 125.96 7.35 72.55 1 26 C0.81 24.61 0.81 24.61 0.61 23.19 C-0.32 15.4 0 7.98 0 0 Z " fill="#000000" transform="translate(2406,1589)"/>
<path d="M0 0 C17.16 0 34.32 0 52 0 C51.37 11.92 50.67 23.39 48.88 35.12 C48.71 36.19 48.71 36.19 48.55 37.29 C42.07 80.08 32.95 125.33 4 159 C3.39 159.76 2.78 160.51 2.15 161.29 C-8.77 174.37 -25.87 185.61 -43 188 C-45 188.04 -47 188.05 -49 188 C-48.77 187.45 -48.53 186.89 -48.29 186.32 C-31.37 146.3 -31.37 146.3 -18 105 C-17.7 103.94 -17.41 102.88 -17.1 101.79 C-7.93 68.5 -2.86 34.37 0 0 Z " fill="#000000" transform="translate(2572,1589)"/>
<path d="M0 0 C0.07 0.88 0.14 1.77 0.21 2.68 C5.01 62.3 16.51 119.85 41 174.71 C42.77 178.76 44.38 182.88 46 187 C30.37 188.02 18.56 181.4 6.86 171.36 C-8.95 157.37 -19.8 141.35 -28 122 C-28.27 121.38 -28.54 120.75 -28.81 120.11 C-40.49 92.41 -45.54 61.73 -49.38 32.06 C-49.63 30.15 -49.63 30.15 -49.88 28.21 C-50.99 19.09 -51.18 10.16 -51 1 C-46.31 0.85 -41.62 0.71 -36.93 0.57 C-35.34 0.53 -33.75 0.48 -32.16 0.43 C-21.44 0.09 -10.73 -0.07 0 0 Z " fill="#000000" transform="translate(2786,1589)"/>
<path d="M0 0 C0 11.22 0 22.44 0 34 C-20.08 36.39 -40.18 38.46 -60.31 40.31 C-61.12 40.39 -61.93 40.46 -62.77 40.54 C-123.38 46.12 -184.1 49.94 -244.88 53.38 C-246.06 53.44 -247.25 53.51 -248.47 53.58 C-255.3 53.96 -262.13 54.35 -268.96 54.72 C-271.04 54.84 -273.13 54.95 -275.22 55.07 C-278.09 55.23 -280.95 55.39 -283.82 55.54 C-284.66 55.59 -285.49 55.64 -286.35 55.69 C-287.13 55.73 -287.9 55.77 -288.71 55.81 C-289.7 55.87 -289.7 55.87 -290.72 55.92 C-293.81 56.03 -296.91 56 -300 56 C-300 85.7 -300 115.4 -300 146 C-293.25 145.61 -286.5 145.22 -279.55 144.82 C-236.97 142.42 -194.37 140.44 -151.78 138.39 C-142.31 137.93 -132.84 137.47 -123.38 137.01 C-112.99 136.51 -102.6 136 -92.22 135.5 C-87.86 135.29 -83.5 135.08 -79.14 134.87 C-57.76 133.83 -36.39 132.81 -15 132 C-15 142.56 -15 153.12 -15 164 C-17.45 164.11 -19.9 164.22 -22.43 164.33 C-34.79 164.88 -47.14 165.44 -59.5 166 C-60.66 166.05 -61.83 166.11 -63.03 166.16 C-98.51 167.76 -133.99 169.42 -169.46 171.11 C-171.38 171.2 -173.3 171.3 -175.22 171.39 C-193.41 172.26 -211.59 173.13 -229.78 174 C-237.08 174.35 -244.39 174.7 -251.69 175.05 C-256.78 175.3 -261.88 175.54 -266.97 175.79 C-270.1 175.94 -273.22 176.09 -276.34 176.24 C-277.78 176.31 -279.21 176.38 -280.65 176.45 C-282.61 176.54 -284.56 176.64 -286.52 176.73 C-287.61 176.78 -288.7 176.83 -289.82 176.89 C-293.21 177.01 -296.61 177 -300 177 C-300 210.33 -300 243.66 -300 278 C-289.77 277.34 -279.54 276.68 -269 276 C-263.22 275.68 -257.44 275.37 -251.65 275.1 C-250.15 275.03 -248.66 274.96 -247.16 274.88 C-243.19 274.69 -239.23 274.5 -235.26 274.31 C-231.01 274.11 -226.76 273.9 -222.51 273.7 C-214.38 273.31 -206.24 272.92 -198.11 272.53 C-188.75 272.08 -179.38 271.63 -170.01 271.17 C-155.32 270.47 -140.63 269.76 -125.94 269.05 C-109.64 268.27 -93.34 267.48 -77.04 266.69 C-36.03 264.7 4.98 262.8 46 261 C46 271.56 46 282.12 46 293 C43.76 293.1 41.52 293.21 39.21 293.32 C28.75 293.8 18.29 294.29 7.83 294.78 C4.43 294.94 1.04 295.1 -2.36 295.25 C-34.73 296.76 -67.1 298.29 -99.47 299.82 C-106.87 300.17 -114.27 300.52 -121.67 300.87 C-123.8 300.97 -125.94 301.07 -128.07 301.17 C-131.29 301.32 -134.5 301.47 -137.71 301.62 C-149.42 302.18 -161.13 302.73 -172.84 303.29 C-184.99 303.86 -197.14 304.44 -209.29 305.01 C-210.26 305.06 -211.22 305.1 -212.21 305.15 C-241.47 306.53 -270.73 307.86 -300 309 C-299.96 320.43 -299.9 331.86 -299.82 343.29 C-299.78 348.6 -299.74 353.91 -299.73 359.22 C-299.71 364.35 -299.68 369.48 -299.63 374.61 C-299.62 376.56 -299.61 378.51 -299.61 380.46 C-299.64 398.33 -299.64 398.33 -290.84 413.46 C-284.59 418.67 -277.41 421.12 -269.39 421.14 C-268.23 421.14 -267.08 421.15 -265.9 421.16 C-264.63 421.16 -263.37 421.16 -262.07 421.16 C-260.71 421.16 -259.35 421.17 -258 421.17 C-254.27 421.19 -250.54 421.19 -246.81 421.2 C-242.78 421.21 -238.76 421.22 -234.74 421.24 C-227.77 421.26 -220.8 421.28 -213.83 421.29 C-203.76 421.31 -193.68 421.34 -183.6 421.37 C-167.26 421.42 -150.91 421.46 -134.56 421.5 C-118.68 421.54 -102.8 421.58 -86.92 421.63 C-85.45 421.63 -85.45 421.63 -83.95 421.64 C-79.04 421.65 -74.13 421.66 -69.22 421.68 C-28.48 421.79 12.26 421.9 53 422 C52.67 432.89 52.34 443.78 52 455 C8.08 455.09 -35.83 455.16 -79.75 455.2 C-84.94 455.21 -90.13 455.21 -95.32 455.22 C-96.87 455.22 -96.87 455.22 -98.45 455.22 C-115.16 455.24 -131.87 455.27 -148.57 455.31 C-165.73 455.35 -182.89 455.37 -200.05 455.38 C-210.62 455.38 -221.2 455.4 -231.78 455.43 C-239.04 455.45 -246.31 455.46 -253.57 455.45 C-257.76 455.45 -261.94 455.46 -266.12 455.48 C-305.08 455.67 -305.08 455.67 -320.56 447.12 C-321.22 446.77 -321.89 446.42 -322.57 446.06 C-324.39 445.07 -326.2 444.04 -328 443 C-328.8 442.54 -329.6 442.08 -330.43 441.61 C-343.25 433.1 -350.22 417.8 -353.42 403.34 C-354.62 396.43 -355.15 389.63 -355.11 382.63 C-355.11 381.85 -355.11 381.07 -355.11 380.27 C-355.11 377.72 -355.11 375.17 -355.1 372.62 C-355.1 370.84 -355.09 369.06 -355.09 367.28 C-355.09 362.62 -355.08 357.96 -355.07 353.3 C-355.06 348.53 -355.05 343.76 -355.05 339 C-355.04 329.67 -355.02 320.33 -355 311 C-355.66 311.05 -356.32 311.09 -357 311.14 C-384.54 313.02 -412.1 314.25 -439.67 315.53 C-446.7 315.86 -453.73 316.19 -460.76 316.52 C-473.3 317.11 -485.83 317.69 -498.36 318.28 C-510.51 318.85 -522.66 319.41 -534.81 319.98 C-535.94 320.04 -535.94 320.04 -537.09 320.09 C-540.87 320.27 -544.65 320.44 -548.43 320.62 C-579.62 322.08 -610.81 323.54 -642 325 C-642.02 320.6 -642.04 316.21 -642.05 311.81 C-642.06 310.31 -642.07 308.82 -642.08 307.32 C-642.09 305.17 -642.09 303.03 -642.1 300.88 C-642.1 299.59 -642.11 298.29 -642.11 296.96 C-642 294 -642 294 -641 293 C-639.53 292.84 -638.05 292.76 -636.56 292.69 C-635.12 292.63 -635.12 292.63 -633.65 292.56 C-632.57 292.52 -631.5 292.48 -630.4 292.43 C-629.27 292.38 -628.15 292.33 -626.99 292.28 C-623.19 292.12 -619.38 291.96 -615.58 291.8 C-612.88 291.69 -610.17 291.57 -607.47 291.45 C-601.64 291.2 -595.81 290.95 -589.99 290.7 C-575.29 290.08 -560.6 289.44 -545.91 288.8 C-543.51 288.7 -541.11 288.59 -538.71 288.49 C-516.12 287.51 -493.54 286.47 -470.96 285.38 C-468.77 285.27 -466.58 285.16 -464.4 285.06 C-451.9 284.45 -439.4 283.85 -426.91 283.22 C-420.5 282.9 -414.1 282.59 -407.7 282.28 C-405.37 282.16 -403.05 282.05 -400.73 281.93 C-397.53 281.77 -394.33 281.61 -391.13 281.46 C-390.25 281.41 -389.38 281.36 -388.47 281.31 C-377.3 280.79 -366.21 281 -355 281 C-355 247.34 -355 213.68 -355 179 C-356.32 179.33 -357.64 179.66 -359 180 C-361.44 180.19 -363.87 180.34 -366.31 180.46 C-367.05 180.49 -367.79 180.53 -368.55 180.57 C-371.03 180.69 -373.5 180.81 -375.98 180.92 C-377.76 181.01 -379.53 181.1 -381.31 181.19 C-386.14 181.42 -390.97 181.65 -395.8 181.89 C-400.88 182.13 -405.95 182.38 -411.03 182.63 C-419.57 183.04 -428.11 183.45 -436.65 183.87 C-448.62 184.44 -460.59 185.02 -472.56 185.61 C-481.92 186.06 -491.28 186.52 -500.64 186.97 C-501.63 187.02 -502.62 187.06 -503.64 187.11 C-516.76 187.75 -529.88 188.38 -543 189 C-544.28 189.06 -545.55 189.12 -546.86 189.18 C-550.06 189.33 -553.26 189.48 -556.46 189.62 C-557.73 189.68 -557.73 189.68 -559.02 189.74 C-567.68 190.12 -576.33 190.07 -585 190 C-585 179.77 -585 169.54 -585 159 C-582.04 158.87 -579.08 158.75 -576.03 158.62 C-561.94 158.02 -547.84 157.42 -533.75 156.81 C-532.47 156.76 -531.19 156.7 -529.86 156.65 C-500.11 155.37 -470.37 154.05 -440.62 152.55 C-439.47 152.5 -438.32 152.44 -437.13 152.38 C-426.14 151.82 -415.15 151.26 -404.16 150.69 C-400.14 150.48 -396.13 150.27 -392.11 150.06 C-389.41 149.92 -386.71 149.78 -384.01 149.63 C-382.36 149.55 -380.71 149.46 -379.06 149.38 C-378.36 149.34 -377.66 149.3 -376.93 149.26 C-369.6 148.89 -362.38 149 -355 149 C-355 119.3 -355 89.6 -355 59 C-364.9 59.66 -374.8 60.32 -385 61 C-393.25 61.46 -401.5 61.91 -409.75 62.33 C-412.02 62.45 -414.3 62.57 -416.58 62.69 C-421.39 62.94 -426.19 63.18 -431 63.43 C-438.55 63.82 -446.1 64.21 -453.65 64.6 C-456.23 64.73 -458.8 64.87 -461.38 65 C-462.66 65.07 -463.94 65.13 -465.25 65.2 C-469.15 65.4 -473.04 65.6 -476.93 65.8 C-501.81 67.09 -526.68 68.4 -551.55 69.71 C-556.72 69.98 -561.89 70.25 -567.05 70.53 C-576.37 71.02 -585.68 71.51 -595 72 C-595.02 67.6 -595.04 63.21 -595.05 58.81 C-595.06 57.31 -595.07 55.82 -595.08 54.32 C-595.09 52.17 -595.09 50.03 -595.1 47.88 C-595.1 46.59 -595.11 45.29 -595.11 43.96 C-595 41 -595 41 -594 40 C-592.54 39.83 -591.07 39.73 -589.6 39.65 C-588.64 39.6 -587.69 39.55 -586.7 39.5 C-585.64 39.45 -584.58 39.39 -583.49 39.34 C-581.81 39.25 -581.81 39.25 -580.1 39.16 C-576.34 38.96 -572.58 38.77 -568.82 38.58 C-566.15 38.44 -563.49 38.3 -560.82 38.17 C-555.08 37.87 -549.35 37.57 -543.61 37.28 C-535.26 36.85 -526.91 36.42 -518.55 35.98 C-494.26 34.71 -469.96 33.46 -445.66 32.21 C-357.04 27.67 -268.43 22.76 -10.14 0.88 C-9.23 0.76 -8.33 0.65 -7.4 0.53 C-6.62 0.42 -5.83 0.32 -5.03 0.22 C-3 0 -3 0 0 0 Z " fill="#000000" transform="translate(3603,1690)"/>
<path d="M0 0 C12.49 1.25 24.83 2.99 37.19 5.19 C38.05 5.34 38.91 5.49 39.8 5.65 C96.79 15.75 176.07 30.33 211.95 81.38 C224.8 100.38 230.03 120.46 226.41 143.3 C222.77 159.91 214.43 174.75 204 188 C203.24 188.97 202.47 189.95 201.68 190.95 C199.5 193.67 197.27 196.35 195 199 C194.35 199.76 193.7 200.52 193.04 201.3 C182.37 213.46 170.86 225.18 158 235 C156.74 235.99 155.48 236.98 154.22 237.97 C144.49 245.56 134.46 252.64 124.21 259.51 C122.19 260.87 120.18 262.24 118.17 263.62 C46.93 312.12 -35.55 346.16 -116 376 C-117.19 376.44 -117.19 376.44 -118.41 376.89 C-139.22 384.6 -160.17 391.88 -181.27 398.79 C-185.67 400.23 -190.08 401.69 -194.47 403.17 C-248.82 421.4 -305.56 438.57 -362 449 C-362 439.1 -362 429.2 -362 419 C-353.01 415.63 -353.01 415.63 -348.72 414.27 C-347.76 413.97 -346.8 413.66 -345.8 413.35 C-344.79 413.03 -343.77 412.71 -342.71 412.38 C-340.48 411.67 -338.26 410.96 -336.03 410.25 C-334.87 409.88 -333.71 409.52 -332.52 409.14 C-312.67 402.83 -292.95 396.32 -273.37 389.21 C-268.85 387.59 -264.3 386.04 -259.75 384.5 C-228.81 374 -198.21 362.43 -168 350 C-167.32 349.72 -166.65 349.44 -165.95 349.16 C-154.61 344.5 -143.3 339.77 -132 335 C-131.22 334.67 -130.45 334.35 -129.65 334.01 C-108.56 325.1 -87.79 315.72 -67.26 305.6 C-62.78 303.4 -58.27 301.29 -53.75 299.19 C-46.04 295.57 -38.51 291.66 -31 287.65 C-27.52 285.8 -24.04 283.98 -20.54 282.19 C-7.33 275.41 5.54 268.17 18.31 260.59 C20.7 259.18 23.11 257.77 25.52 256.38 C47.84 243.47 69.37 229.38 89.49 213.21 C90.85 212.12 92.22 211.04 93.6 209.96 C112.09 195.37 127.97 180.25 141.59 160.95 C142.75 159.34 143.98 157.79 145.22 156.24 C157.02 141.39 162.31 120.63 161 102 C157.9 80.93 145.5 62.78 128.75 49.96 C123.3 46.08 117.7 42.49 112 39 C110.9 38.32 109.8 37.64 108.66 36.93 C99.18 31.28 89.27 27.01 79 23 C78.13 22.66 77.26 22.32 76.36 21.97 C51.56 12.4 25.88 6.78 0 1 C0 0.67 0 0.34 0 0 Z " fill="#000000" transform="translate(1783,1759)"/>
<path d="M0 0 C3.8 0.14 7.6 0.21 11.4 0.28 C18.84 0.43 26.28 0.67 33.71 0.96 C32.78 2.54 31.84 4.11 30.9 5.69 C30.12 7 30.12 7 29.32 8.35 C26.92 12.26 24.25 15.95 21.53 19.65 C20.78 20.68 20.78 20.68 20.01 21.73 C18.25 24.15 16.48 26.55 14.71 28.96 C11.08 33.91 7.45 38.86 3.71 43.96 C123.83 44.29 243.95 44.62 367.71 44.96 C367.71 80.83 367.71 80.83 355.71 99.96 C354.62 101.81 353.53 103.66 352.44 105.51 C345.78 116.73 338.41 127.44 330.71 137.96 C329.96 139 329.2 140.04 328.42 141.12 C319.91 152.65 310.9 163.84 301.13 174.34 C299.24 176.39 297.41 178.47 295.6 180.59 C291.39 185.41 286.91 189.95 282.39 194.47 C280.97 195.89 279.57 197.31 278.16 198.74 C272.75 204.16 267.2 209.19 261.2 213.95 C258.65 216.01 256.24 218.17 253.84 220.4 C248.08 225.63 241.96 230.33 235.71 234.96 C235.05 235.45 234.39 235.94 233.71 236.45 C207.03 256.16 179.13 273.62 149.71 288.96 C148.73 289.48 147.74 290 146.72 290.54 C101.6 314.15 52.09 331.57 2.52 343.07 C-0.97 343.89 -4.44 344.73 -7.92 345.59 C-45.28 354.79 -82.95 359.93 -121.29 362.96 C-121.97 363.02 -122.66 363.07 -123.36 363.13 C-136.58 364.14 -149.79 364.12 -163.04 364.09 C-164.15 364.09 -165.27 364.08 -166.42 364.08 C-183.73 364.07 -201 363.79 -218.29 362.96 C-218.29 357.02 -218.29 351.08 -218.29 344.96 C-216.27 344.75 -214.25 344.55 -212.17 344.33 C-172.65 340.19 -133.23 334.89 -94.29 326.96 C-93.48 326.8 -92.67 326.63 -91.84 326.46 C-23.53 312.52 42.22 292.1 104.71 260.96 C105.81 260.42 106.91 259.87 108.04 259.31 C129.74 248.5 150.22 236.03 169.65 221.51 C171.7 219.97 173.75 218.46 175.82 216.94 C184.73 210.36 193.36 203.48 201.92 196.43 C203.56 195.09 205.22 193.75 206.88 192.42 C211.81 188.46 216.42 184.4 220.82 179.86 C222.71 177.96 224.68 176.21 226.71 174.46 C232.92 169.11 238.55 163.29 243.88 157.07 C245.87 154.79 247.91 152.56 249.96 150.34 C255.06 144.69 259.71 138.74 264.35 132.72 C265.64 131.06 266.94 129.41 268.25 127.77 C280.05 112.81 289.23 96.56 298.71 79.96 C191.13 79.63 83.55 79.3 -27.29 78.96 C-27.29 79.62 -27.29 80.28 -27.29 80.96 C-27.95 80.96 -28.61 80.96 -29.29 80.96 C-29.5 81.5 -29.71 82.04 -29.93 82.6 C-31.77 85.81 -34.28 88.21 -36.91 90.77 C-37.45 91.31 -38 91.84 -38.56 92.4 C-42.67 96.42 -46.89 100.26 -51.29 103.96 C-52.24 104.78 -53.19 105.6 -54.17 106.44 C-82.72 130.92 -113.88 151.84 -148.36 167.09 C-150.23 167.93 -152.04 168.85 -153.86 169.78 C-165.14 175.12 -176.03 174.58 -188.29 173.96 C-187.57 173.25 -186.86 172.53 -186.12 171.8 C-184.3 169.98 -182.48 168.15 -180.67 166.31 C-179.78 165.41 -178.89 164.51 -177.97 163.59 C-177.09 162.69 -176.21 161.8 -175.3 160.88 C-173.09 158.69 -170.79 156.64 -168.43 154.61 C-164.17 150.92 -160.23 146.98 -156.29 142.96 C-152.48 139.08 -148.7 135.26 -144.56 131.74 C-140.98 128.66 -137.64 125.38 -134.33 122.03 C-133.8 121.5 -133.28 120.97 -132.74 120.43 C-130.58 118.23 -128.41 116.03 -126.25 113.83 C-124.66 112.2 -123.05 110.58 -121.45 108.97 C-120.96 108.46 -120.47 107.96 -119.97 107.44 C-118.78 106.24 -117.54 105.1 -116.29 103.96 C-115.63 103.96 -114.97 103.96 -114.29 103.96 C-114.05 103.39 -113.8 102.83 -113.56 102.24 C-112.03 99.5 -110.2 97.67 -107.96 95.48 C-106.67 94.2 -106.67 94.2 -105.34 92.89 C-104.44 92.01 -103.53 91.12 -102.6 90.21 C-97.15 84.87 -91.78 79.54 -86.82 73.74 C-84.58 71.14 -82.25 68.66 -79.91 66.15 C-74.8 60.6 -70 54.85 -65.29 48.96 C-64.38 47.84 -63.46 46.72 -62.55 45.61 C-56.91 38.66 -51.43 31.59 -46.1 24.4 C-45.55 23.67 -45.01 22.94 -44.45 22.19 C-43.9 21.45 -43.36 20.72 -42.81 19.96 C-41.92 18.82 -41.92 18.82 -41.02 17.65 C-39.11 14.92 -39.11 14.92 -38 11.29 C-32 -4.4 -13.99 -0.59 0 0 Z " fill="#000000" transform="translate(2404.2859497070313,1798.0386962890625)"/>
<path d="M0 0 C8.61 -0.16 17.23 -0.29 25.84 -0.36 C29.85 -0.4 33.85 -0.45 37.85 -0.53 C41.71 -0.6 45.57 -0.65 49.44 -0.66 C50.91 -0.68 52.38 -0.7 53.85 -0.74 C65.38 -1.03 65.38 -1.03 69.43 1.54 C71.17 3.27 72.58 5 74 7 C75.3 8.19 76.6 9.36 77.94 10.5 C78.6 11.07 79.25 11.64 79.93 12.23 C81.38 13.47 82.83 14.7 84.29 15.93 C85.38 16.86 85.38 16.86 86.5 17.81 C87.17 18.38 87.84 18.94 88.53 19.52 C90 21 90 21 90 23 C90.57 23.24 91.14 23.49 91.73 23.74 C94.4 25.23 96.14 26.98 98.25 29.19 C101.73 32.76 105.32 36.08 109.1 39.32 C110.98 40.98 112.74 42.71 114.5 44.5 C116.85 46.89 119.26 49.13 121.81 51.31 C125.86 54.8 129.59 58.55 133.31 62.38 C135.39 64.4 137.48 66.3 139.68 68.19 C144.73 72.57 149.46 77.27 154.19 82 C155.06 82.86 155.94 83.73 156.84 84.62 C157.69 85.47 158.54 86.31 159.42 87.19 C160.18 87.94 160.94 88.7 161.72 89.48 C164.45 92.49 166.69 95.66 169 99 C111.62 107.47 111.62 107.47 94.11 94.72 C82.37 85.53 72.72 73.6 63.81 61.76 C60.79 57.82 57.56 54.58 53.74 51.43 C51.33 49.44 49.18 47.24 47 45 C44.08 42.05 41.15 39.2 38 36.5 C34.85 33.8 31.92 30.95 29 28 C25.59 24.55 22.11 21.29 18.42 18.13 C14.91 15.04 11.49 11.87 8.06 8.69 C7.39 8.06 6.71 7.44 6.01 6.8 C5.38 6.21 4.75 5.62 4.1 5.01 C3.53 4.48 2.95 3.95 2.36 3.4 C1 2 1 2 0 0 Z " fill="#000000" transform="translate(2373,1940)"/>
<path d="M0 0 C0.99 0.49 0.99 0.49 2 1 C0.96 1.62 -0.09 2.24 -1.16 2.88 C-21.77 15.23 -41.4 28.79 -59.76 44.29 C-62 46 -62 46 -65 47 C-65 47.66 -65 48.32 -65 49 C-66.48 50.47 -66.48 50.47 -68.52 52.16 C-90.93 71.25 -114.45 98.25 -117 129 C-118.24 149.31 -113.42 166.34 -100 182 C-99.58 182.57 -99.15 183.13 -98.72 183.71 C-59.7 234.27 30.96 244.92 89.47 252.59 C116.14 256.01 142.91 258.13 169.75 259.69 C170.79 259.75 171.84 259.81 172.92 259.87 C200.24 261.44 227.56 262.21 254.94 262.19 C255.95 262.19 255.95 262.19 256.98 262.19 C352.98 262.14 448.51 254.72 848.91 189.33 C850.89 188.89 852.87 188.44 854.85 188 C858.64 187.14 862.43 186.29 866.21 185.43 C867.43 185.15 868.65 184.88 869.91 184.59 C876.28 183.13 882.63 181.6 888.97 179.98 C889.61 179.81 890.26 179.65 890.93 179.48 C894.03 178.68 897.13 177.87 900.22 177.05 C901.32 176.77 902.41 176.48 903.54 176.19 C904.5 175.94 905.46 175.68 906.45 175.42 C909.03 174.99 910.55 175.15 913 176 C911.84 176.4 911.84 176.4 910.65 176.8 C895.4 182.02 880.15 187.28 864.94 192.62 C862.6 193.45 860.25 194.27 857.91 195.09 C850.5 197.7 843.1 200.32 835.71 203 C746.39 235.34 652.35 257.66 222 311 C221.27 311.01 220.54 311.02 219.78 311.03 C129.76 312.07 36.21 307.74 -140 233 C-140.84 232.24 -141.67 231.48 -142.53 230.7 C-157.33 216.74 -166.57 198.13 -167.33 177.73 C-168 142.05 -146.87 111.59 -123.06 86.87 C-116.58 80.25 -110.05 73.86 -102.72 68.19 C-100.31 66.25 -98.03 64.25 -95.74 62.18 C-91.36 58.27 -86.83 54.64 -82.12 51.12 C-81.28 50.5 -80.44 49.87 -79.58 49.22 C-64.37 37.98 -48.52 27.4 -32.19 17.87 C-28.93 15.96 -25.75 13.96 -22.56 11.94 C-17.59 8.87 -12.52 6.09 -7.31 3.44 C-6.62 3.08 -5.92 2.72 -5.2 2.35 C-3.5 1.5 -1.75 0.74 0 0 Z " fill="#000000" transform="translate(460,1972)"/>
<path d="M0 0 C0 127.71 0 255.42 0 387 C-12.26 379.2 -12.26 379.2 -17.06 375.38 C-24.44 369.58 -32.06 364.13 -39.68 358.67 C-41.94 357.04 -44.2 355.41 -46.45 353.77 C-61.53 342.83 -76.8 332.15 -92.18 321.62 C-94.68 319.91 -97.18 318.18 -99.67 316.44 C-110.91 308.59 -122.45 301.23 -134.03 293.89 C-136.63 292.24 -139.22 290.57 -141.81 288.91 C-154.84 280.54 -168.19 272.74 -181.58 264.98 C-184.59 263.24 -187.58 261.49 -190.58 259.74 C-221.55 241.71 -254.07 226.11 -286.69 211.31 C-287.87 210.77 -289.06 210.23 -290.28 209.68 C-299.75 205.42 -309.28 201.78 -319 198 C-319 165.99 -319 133.98 -319 101 C-303.72 97.29 -303.72 97.29 -288.12 93.5 C-281.76 91.94 -275.39 90.37 -269.03 88.79 C-268.24 88.59 -267.46 88.4 -266.65 88.2 C-185.6 67.98 -105.15 42.95 -28.18 10.35 C-22.92 8.12 -17.65 5.93 -12.38 3.75 C-11.46 3.37 -10.55 2.98 -9.61 2.59 C-8.77 2.24 -7.94 1.9 -7.09 1.55 C-6.36 1.25 -5.64 0.95 -4.9 0.64 C-3 0 -3 0 0 0 Z " fill="#000000" transform="translate(1740,2149)"/>
<path d="M0 0 C26.73 0 53.46 0 81 0 C81 28.05 81 56.1 81 85 C53.94 85 26.88 85 -1 85 C-1.02 71.72 -1.04 58.43 -1.06 44.75 C-1.07 40.56 -1.08 36.37 -1.09 32.05 C-1.09 26.92 -1.09 26.92 -1.1 24.52 C-1.1 22.85 -1.1 21.18 -1.11 19.5 C-1.11 16.96 -1.11 14.43 -1.11 11.89 C-1.12 11.15 -1.12 10.4 -1.12 9.63 C-1.12 6.17 -0.85 3.39 0 0 Z " fill="#000000" transform="translate(1302,2239)"/>
<path d="M0 0 C7.26 0 14.52 0 22 0 C22.49 40.59 22.49 40.59 23 82 C25.97 78.7 28.94 75.4 32 72 C42.72 61.28 56.24 56.93 71.12 56.62 C87.64 56.69 102.79 61.86 114.94 73.31 C130.47 90.15 135.95 112.41 135.13 134.82 C134.04 152.95 127.85 169.17 116 183 C115.34 183 114.68 183 114 183 C113.67 183.99 113.34 184.98 113 186 C111.03 187.59 109.1 189.03 107 190.44 C106.41 190.84 105.82 191.24 105.22 191.65 C91.36 200.88 75.2 203.84 58.81 201 C43.21 197.87 32.05 188.67 23 176 C22.67 183.59 22.34 191.18 22 199 C14.74 199 7.48 199 0 199 C0 133.33 0 67.66 0 0 Z M41 84 C40.38 84.47 39.75 84.94 39.11 85.42 C28.01 94.32 22.6 107.09 21 121 C20.06 137.94 22.14 154.77 32.95 168.48 C42.11 178.1 53.41 182.77 66.62 183.25 C78.96 183.06 89.29 178.65 98.25 170.25 C110.07 157.66 113.47 142.06 113.22 125.21 C112.71 111.4 108.08 98.46 99 88 C87.96 78.03 77.08 75.09 62.55 75.61 C54.38 76.14 47.46 78.98 41 84 Z " fill="#000000" transform="translate(3364,2255)"/>
<path d="M0 0 C4.38 1.74 7.23 3.95 10 7.75 C11.69 13.23 11.72 17.87 9.88 23.31 C6.85 27.64 3.71 29.56 -1.38 30.88 C-6.4 31.05 -10.69 30.75 -14.8 27.63 C-18.89 23.71 -20.15 20.72 -20.31 15.19 C-20.25 10.33 -19.34 7.69 -16 4 C-11.07 -0.46 -6.38 -1.13 0 0 Z " fill="#000000" transform="translate(3652,2257)"/>
<path d="M0 0 C5.32 4.38 10.95 10.2 12.81 16.94 C12.87 17.62 12.94 18.3 13 19 C13.66 19 14.32 19 15 19 C15.28 18.01 15.28 18.01 15.56 17 C20.82 6.03 31.98 -1.85 43.07 -6.04 C57.11 -10.66 72.79 -10.73 86.53 -4.93 C97.27 0.63 104.97 9.03 109.29 20.39 C111.99 28.91 113.15 36.68 113.11 45.59 C113.11 46.53 113.11 47.48 113.11 48.46 C113.11 51.57 113.11 54.69 113.1 57.8 C113.1 59.97 113.09 62.14 113.09 64.3 C113.09 69.99 113.08 75.69 113.07 81.38 C113.06 87.19 113.05 93 113.05 98.81 C113.04 110.21 113.02 121.6 113 133 C105.74 133 98.48 133 91 133 C90.98 128.76 90.98 128.76 90.96 124.44 C90.91 115.08 90.84 105.72 90.76 96.36 C90.72 90.69 90.68 85.01 90.65 79.34 C90.63 73.86 90.59 68.38 90.54 62.91 C90.52 60.82 90.51 58.74 90.5 56.65 C90.49 53.72 90.46 50.79 90.43 47.86 C90.43 47 90.44 46.15 90.44 45.27 C90.28 35.16 87.36 25.78 80.4 18.28 C73.9 12.25 66.85 10.44 58.12 10.56 C56.94 10.57 56.94 10.57 55.73 10.59 C45.06 10.89 36.66 15.04 29.31 22.78 C21.51 32.32 19.83 43.72 19.89 55.69 C19.89 56.53 19.89 57.37 19.89 58.23 C19.89 60.99 19.89 63.74 19.9 66.5 C19.9 68.41 19.91 70.33 19.91 72.25 C19.91 77.28 19.92 82.31 19.93 87.35 C19.94 92.49 19.95 97.63 19.95 102.77 C19.96 112.85 19.98 122.92 20 133 C12.74 133 5.48 133 -2 133 C-2.97 116.19 -3.09 99.46 -3 82.62 C-0.84 48.91 -0.84 48.91 -13 18.88 C-20.92 11.44 -29.67 10.5 -40.14 10.73 C-50.83 11.47 -57.86 16.21 -65 24 C-71.45 31.96 -73.45 41.44 -73.43 51.49 C-73.44 52.38 -73.45 53.27 -73.46 54.18 C-73.49 57.08 -73.5 59.98 -73.51 62.88 C-73.53 64.91 -73.55 66.93 -73.57 68.96 C-73.61 74.26 -73.64 79.57 -73.67 84.87 C-73.7 90.29 -73.75 95.72 -73.79 101.14 C-73.88 111.76 -73.94 122.38 -74 133 C-81.26 133 -88.52 133 -96 133 C-96 87.46 -96 41.92 -96 -5 C-84.75 -6.12 -84.75 -6.12 -79.88 -6.06 C-78.27 -6.04 -76.66 -6.02 -75 -6 C-74.67 0.6 -74.34 7.2 -74 14 C-72.76 12.35 -71.53 10.7 -70.25 9 C-52.9 -11.99 -22.35 -15.08 0 0 Z " fill="#000000" transform="translate(2326,2321)"/>
<path d="M0 0 C11.76 10.85 17.59 24.66 21 40 C21 48.25 21 56.5 21 65 C-14.31 65 -49.62 65 -86 65 C-80.49 88.71 -80.49 88.71 -64.19 105.31 C-51.41 112.3 -36.14 113.35 -22.06 109.5 C-12.28 105.95 -3.59 100.06 4 93 C7.8 94.52 9.73 96.76 12.25 99.94 C12.96 100.81 13.66 101.69 14.39 102.59 C16 105 16 105 16 108 C7.85 119.82 -9.13 126.93 -22.54 129.74 C-42.66 133 -62.37 130.29 -79.73 119.27 C-81.94 117.61 -83.97 115.87 -86 114 C-87.01 113.15 -87.01 113.15 -88.04 112.27 C-102.07 99.56 -106.86 80.67 -108.19 62.42 C-108.75 41.07 -101.9 20.79 -87.26 5.16 C-63.89 -18.74 -26.22 -20.2 0 0 Z M-71 16 C-79.07 25.61 -85 36.3 -85 49 C-57.28 49 -29.56 49 -1 49 C1.02 38.92 -2.68 28.61 -8 20 C-13.98 11.37 -22.93 6.62 -33 4.31 C-46.59 2.9 -61.33 5.52 -71 16 Z " fill="#000000" transform="translate(2677,2326)"/>
<path d="M0 0 C9.35 7.57 14.31 19.13 16.38 30.81 C16.7 35.2 16.75 39.58 16.79 43.98 C16.81 45.25 16.83 46.52 16.85 47.83 C16.9 51.2 16.94 54.58 16.98 57.95 C17.02 61.31 17.07 64.67 17.12 68.03 C17.71 109.48 17.71 109.48 16.88 123.12 C16.71 125.99 16.55 128.86 16.38 131.81 C9.45 131.81 2.51 131.81 -4.62 131.81 C-4.65 129.44 -4.68 127.06 -4.7 124.61 C-4.78 116.71 -4.87 108.81 -4.96 100.91 C-5.02 96.12 -5.07 91.34 -5.12 86.55 C-5.17 81.92 -5.22 77.29 -5.28 72.66 C-5.3 70.91 -5.32 69.15 -5.33 67.4 C-4.3 40.69 -4.3 40.69 -15.62 17.81 C-25.42 9.65 -35.22 9.01 -47.62 9.81 C-57.41 11.19 -65.97 17.08 -72.06 24.75 C-80.97 37.92 -80.94 51.84 -81.04 67.16 C-81.06 69.03 -81.08 70.9 -81.1 72.77 C-81.15 77.66 -81.19 82.55 -81.23 87.44 C-81.27 92.44 -81.32 97.44 -81.37 102.44 C-81.46 112.23 -81.55 122.02 -81.62 131.81 C-88.89 131.81 -96.14 131.81 -103.62 131.81 C-103.65 113.84 -103.67 95.86 -103.68 77.89 C-103.68 69.54 -103.69 61.19 -103.7 52.85 C-103.71 45.58 -103.72 38.3 -103.72 31.03 C-103.72 27.18 -103.72 23.33 -103.73 19.48 C-103.74 15.85 -103.74 12.23 -103.74 8.61 C-103.74 6.64 -103.74 4.67 -103.75 2.69 C-103.75 1.53 -103.75 0.37 -103.75 -0.83 C-103.75 -1.84 -103.75 -2.86 -103.75 -3.91 C-103.62 -6.19 -103.62 -6.19 -102.62 -7.19 C-101.06 -7.27 -99.5 -7.29 -97.93 -7.29 C-97.08 -7.28 -96.23 -7.28 -95.36 -7.28 C-93.73 -7.26 -93.73 -7.26 -92.06 -7.25 C-88.62 -7.23 -85.17 -7.21 -81.62 -7.19 C-81.62 0.4 -81.62 7.99 -81.62 15.81 C-80.97 15.81 -80.3 15.81 -79.62 15.81 C-79.44 15.15 -79.25 14.49 -79.06 13.81 C-73.65 2.52 -62.56 -3.74 -51.39 -8.24 C-34.41 -14.05 -14.32 -10.32 0 0 Z " fill="#000000" transform="translate(2934.625,2322.1875)"/>
<path d="M0 0 C0.72 0.45 1.44 0.9 2.18 1.37 C7.95 5.34 11.8 10.45 16 16 C16.66 8.74 17.32 1.48 18 -6 C24.93 -6 31.86 -6 39 -6 C39.09 12.2 39.16 30.41 39.21 48.61 C39.23 57.07 39.26 65.52 39.3 73.97 C39.34 81.35 39.37 88.73 39.38 96.1 C39.38 100 39.39 103.9 39.42 107.8 C39.77 155.42 39.77 155.42 22.23 173.91 C9.48 186.76 -7.67 191.16 -25.38 191.38 C-37.54 191.36 -48.49 191.18 -60 187 C-61.62 186.42 -61.62 186.42 -63.27 185.83 C-73.47 181.87 -82.05 176.5 -90 169 C-88.42 165.34 -86.16 162.7 -83.5 159.75 C-82.31 158.41 -82.31 158.41 -81.09 157.05 C-79 155 -79 155 -77 155 C-76.67 154.34 -76.34 153.68 -76 153 C-75.35 153.58 -74.69 154.16 -74.02 154.76 C-62.77 164.38 -50.02 171.08 -35 172 C-34.2 172.05 -33.41 172.11 -32.59 172.16 C-21.19 172.55 -9.42 170.71 0 164 C0.62 163.57 1.25 163.14 1.89 162.7 C11.11 155.61 15.27 144.48 16.78 133.26 C17.3 127.88 17.39 122.47 17.56 117.06 C17.63 115.18 17.63 115.18 17.69 113.26 C17.8 110.17 17.9 107.09 18 104 C17.34 104 16.68 104 16 104 C15.79 104.68 15.59 105.36 15.38 106.06 C10.06 117.41 -1.69 124.7 -13 129 C-29.08 134.54 -46.14 132.37 -61.5 125.71 C-68.37 122.35 -73.83 117.59 -79 112 C-79.93 111.07 -80.86 110.14 -81.81 109.19 C-94.46 94.15 -98.06 73.66 -96.75 54.56 C-95 35.09 -87.41 18.28 -73 5 C-51.72 -11.59 -22.98 -14.45 0 0 Z M-62.29 24.47 C-72.84 37.91 -75 53.47 -74 70 C-72.09 84.35 -65.98 95.65 -54.73 104.86 C-46.79 110.48 -38.85 112.56 -29.19 112.44 C-28.31 112.43 -27.44 112.42 -26.53 112.41 C-13.29 112.06 -3.92 107.24 5.81 98.35 C17.2 86.25 18.6 71.14 18.31 55.4 C17.75 41.93 11.83 29.75 1.93 20.56 C-17.68 4.75 -44.98 5.8 -62.29 24.47 Z " fill="#000000" transform="translate(3180,2321)"/>
<path d="M0 0 C21.12 1.65 42.24 3.3 64 5 C91.4 6.82 118.56 7.31 146 7.25 C150.15 7.25 154.3 7.26 158.45 7.27 C197.21 7.34 235.74 5.63 274.37 2.54 C280.16 2.08 285.95 1.63 291.73 1.18 C293.7 1.03 295.67 0.87 297.64 0.71 C299.44 0.57 299.44 0.57 301.28 0.43 C302.32 0.34 303.36 0.26 304.42 0.18 C309.28 -0.06 314.14 0 319 0 C319 10.56 319 21.12 319 32 C310.01 36.49 310.01 36.49 306.5 37.97 C305.71 38.31 304.92 38.65 304.1 38.99 C303.26 39.35 302.43 39.7 301.56 40.06 C277.3 50.39 253.2 60.95 229.93 73.38 C226.48 75.22 223.02 77.02 219.54 78.8 C205.4 86.06 191.65 93.86 178 102 C176.95 102.62 175.9 103.25 174.82 103.89 C161.08 112.05 147.45 120.37 134 129 C133.33 129.43 132.66 129.85 131.98 130.29 C118.93 138.63 106.08 147.25 93.21 155.86 C91.09 157.27 88.97 158.69 86.84 160.1 C80.64 164.22 74.48 168.4 68.38 172.69 C67.53 173.28 66.68 173.88 65.8 174.49 C58.54 179.59 51.35 184.78 44.16 189.98 C40.46 192.67 36.73 195.34 33 198 C31.3 199.21 29.6 200.43 27.91 201.64 C26.53 202.62 25.14 203.61 23.76 204.6 C21.36 206.31 18.96 208.03 16.56 209.75 C15.44 210.55 15.44 210.55 14.3 211.36 C9.66 214.7 5.29 218.22 1 222 C0.34 221.67 -0.32 221.34 -1 221 C-0.67 148.07 -0.34 75.14 0 0 Z " fill="#000000" transform="translate(539,2314)"/>
<path d="M0 0 C7.26 0 14.52 0 22 0 C22 45.87 22 91.74 22 139 C14.74 139 7.48 139 0 139 C0 93.13 0 47.26 0 0 Z " fill="#000000" transform="translate(3636,2315)"/>
<path d="M0 0 C24.42 0 48.84 0 74 0 C74.16 6.6 74.33 13.2 74.5 20 C74.55 22.01 74.6 24.01 74.66 26.08 C75.07 42.72 75.05 59.36 75 76 C65.24 76.15 55.48 76.3 45.72 76.44 C41.18 76.51 36.65 76.58 32.12 76.65 C27.75 76.72 23.38 76.78 19.01 76.84 C17.34 76.87 15.67 76.89 14 76.92 C11.66 76.96 9.33 76.99 7 77.02 C6.3 77.03 5.6 77.05 4.88 77.06 C3.26 77.08 1.63 77.05 0 77 C-1.85 75.15 -1.13 72.14 -1.13 69.66 C-1.13 69 -1.13 68.34 -1.13 67.66 C-1.14 65.46 -1.14 63.26 -1.13 61.05 C-1.13 59.53 -1.13 58 -1.14 56.47 C-1.14 53.26 -1.14 50.04 -1.13 46.83 C-1.12 42.72 -1.13 38.62 -1.13 34.51 C-1.14 31.35 -1.14 28.19 -1.13 25.03 C-1.13 23.51 -1.13 22 -1.14 20.49 C-1.14 18.36 -1.13 16.24 -1.13 14.11 C-1.13 12.91 -1.13 11.7 -1.13 10.45 C-1 7 -1 7 0 0 Z " fill="#000000" transform="translate(1186,2319)"/>
<path d="M0 0 C33.66 0 67.32 0 102 0 C102 34.65 102 69.3 102 105 C68.34 105 34.68 105 0 105 C0 70.35 0 35.7 0 0 Z " fill="#000000" transform="translate(1308,2382)"/>
<path d="M0 0 C44.88 0 89.76 0 136 0 C136 45.21 136 90.42 136 137 C91.12 137 46.24 137 0 137 C0 91.79 0 46.58 0 0 Z " fill="#000000" transform="translate(1122,2461)"/>
<path d="M0 0 C32.01 0 64.02 0 97 0 C97.14 52.63 97.14 52.63 96.56 77.19 C96.53 78.54 96.53 78.54 96.5 79.92 C96.45 82.44 96.38 84.96 96.32 87.48 C96.3 88.22 96.28 88.96 96.27 89.72 C96.12 94.77 96.12 94.77 95 97 C95.66 97.33 96.32 97.66 97 98 C64.99 98 32.98 98 0 98 C0.33 91.4 0.66 84.8 1 78 C1.17 65.84 0.87 53.78 0.27 41.63 C0.2 40.04 0.2 40.04 0.12 38.41 C0.07 37.46 0.03 36.52 -0.02 35.54 C-0 33.12 0.4 31.32 1 29 C1.15 26.98 1.25 24.95 1.32 22.92 C1.36 21.76 1.4 20.6 1.44 19.41 C1.48 18.2 1.52 16.99 1.56 15.75 C1.61 14.53 1.65 13.31 1.69 12.05 C1.8 9.03 1.9 6.02 2 3 C2.99 3 3.98 3 5 3 C5.33 2.34 5.66 1.68 6 1 C4.02 1 2.04 1 0 1 C0 0.67 0 0.34 0 0 Z " fill="#000000" transform="translate(992,2626)"/>
</svg>
