<svg xmlns="http://www.w3.org/2000/svg" viewBox="0.0 0.0 200.0 200.0" height="200px" width="200px"><path fill="#ffffff" fill-opacity="1.0"  filling="0" d="M0.0 199.0 L199.0 199.0 L199.0 0.0 L0.0 0.0 L0.0 199.0 L0.0 199.0 Z"></path>
<path fill="#000000" fill-opacity="1.0"  filling="0" d="M27.0 127.0 C27.0 127.0 40.0 115.0 43.0 115.0 L43.0 116.0 C43.0 116.0 29.0 117.0 27.0 116.0 L27.0 127.0 L27.0 127.0 Z M63.0 130.0 L56.0 130.0 L56.0 136.0 L50.0 136.0 L50.0 130.0 L49.0 130.0 L49.0 123.0 L56.0 123.0 L56.0 120.0 L59.0 120.0 L59.0 116.0 L56.0 116.0 L56.0 112.0 L65.0 112.0 L65.0 116.0 L62.0 116.0 L62.0 120.0 L65.0 120.0 L65.0 124.0 L71.0 124.0 L71.0 119.0 L71.0 117.0 C71.0 117.0 83.0 112.0 87.0 107.0 L87.0 127.0 C87.0 127.0 77.0 121.0 71.0 119.0 L71.0 125.0 L65.0 125.0 L65.0 130.0 L63.0 130.0 L63.0 130.0 Z M71.0 78.0 L71.0 84.0 C71.0 84.0 58.0 84.0 57.0 95.0 C57.0 95.0 55.0 87.0 43.0 84.0 L43.0 110.0 C43.0 110.0 32.0 110.0 27.0 109.0 L27.0 65.0 C27.0 65.0 77.0 65.0 87.0 65.0 L87.0 99.0 C87.0 99.0 77.0 98.0 71.0 109.0 L71.0 110.0 C71.0 110.0 89.0 104.0 97.0 96.0 C97.0 96.0 100.0 90.0 89.0 88.0 C89.0 88.0 100.0 87.0 101.0 97.0 C101.0 97.0 101.0 105.0 71.0 112.0 L71.0 116.0 C71.0 116.0 82.0 111.0 87.0 105.0 L87.0 106.0 C87.0 106.0 96.0 106.0 99.0 97.0 C99.0 97.0 101.0 92.0 96.0 93.0 C96.0 93.0 93.0 93.0 91.0 97.0 C91.0 97.0 85.0 104.0 71.0 108.0 L71.0 110.0 C71.0 110.0 96.0 107.0 97.0 97.0 C97.0 97.0 98.0 94.0 96.0 94.0 C96.0 94.0 95.0 94.0 94.0 94.0 C94.0 94.0 99.0 94.0 98.0 97.0 C98.0 97.0 98.0 104.0 71.0 108.0 L71.0 111.0 C71.0 111.0 95.0 105.0 97.0 99.0 C97.0 99.0 99.0 98.0 98.0 98.0 C98.0 98.0 98.0 99.0 98.0 100.0 C98.0 100.0 95.0 106.0 71.0 111.0 L71.0 112.0 C71.0 112.0 94.0 107.0 97.0 101.0 C97.0 101.0 98.0 101.0 97.0 100.0 C97.0 100.0 97.0 101.0 97.0 102.0 C97.0 102.0 94.0 108.0 71.0 112.0 L71.0 115.0 C71.0 115.0 92.0 108.0 94.0 101.0 C94.0 101.0 95.0 100.0 94.0 100.0 C94.0 100.0 93.0 100.0 93.0 101.0 C93.0 101.0 91.0 109.0 71.0 112.0 L71.0 114.0 C71.0 114.0 91.0 110.0 93.0 103.0 C93.0 103.0 94.0 102.0 93.0 102.0 C93.0 102.0 92.0 102.0 92.0 103.0 C92.0 103.0 89.0 111.0 71.0 115.0 L71.0 118.0 C71.0 118.0 89.0 112.0 90.0 106.0 C90.0 106.0 91.0 105.0 90.0 105.0 C90.0 105.0 89.0 105.0 89.0 106.0 C89.0 106.0 87.0 113.0 70.0 117.0 L70.0 120.0 C70.0 120.0 84.0 115.0 87.0 110.0 L87.0 114.0 C87.0 114.0 82.0 119.0 70.0 121.0 L70.0 125.0 L66.0 125.0 L66.0 121.0 L62.0 121.0 L62.0 126.0 L60.0 126.0 L60.0 120.0 L56.0 120.0 L56.0 124.0 L50.0 124.0 L50.0 119.0 L53.0 119.0 L53.0 117.0 L50.0 117.0 L50.0 114.0 L53.0 114.0 L53.0 112.0 L50.0 112.0 L50.0 109.0 L53.0 109.0 L53.0 107.0 L50.0 107.0 L50.0 105.0 L53.0 105.0 L53.0 103.0 L50.0 103.0 L50.0 101.0 L53.0 101.0 L53.0 99.0 L50.0 99.0 L50.0 96.0 L53.0 96.0 L53.0 94.0 L50.0 94.0 L50.0 91.0 L53.0 91.0 L53.0 89.0 L50.0 89.0 L50.0 87.0 L53.0 87.0 L53.0 85.0 L50.0 85.0 L50.0 83.0 L53.0 83.0 L53.0 81.0 L50.0 81.0 L50.0 78.0 L53.0 78.0 L53.0 75.0 L50.0 75.0 L50.0 73.0 L53.0 73.0 L53.0 71.0 L51.0 71.0 L51.0 70.0 L54.0 70.0 L54.0 68.0 L57.0 68.0 L57.0 64.0 L57.0 67.0 L59.0 68.0 L59.0 70.0 L62.0 70.0 L62.0 71.0 L60.0 71.0 L60.0 73.0 L63.0 73.0 L63.0 75.0 L60.0 75.0 L60.0 78.0 L63.0 78.0 L63.0 81.0 L60.0 81.0 L60.0 83.0 L63.0 83.0 L63.0 85.0 L60.0 85.0 L60.0 87.0 L63.0 87.0 L63.0 89.0 L60.0 89.0 L60.0 91.0 L63.0 91.0 L63.0 93.0 L60.0 93.0 L60.0 96.0 L63.0 96.0 L63.0 99.0 L60.0 99.0 L60.0 101.0 L63.0 101.0 L63.0 103.0 L60.0 103.0 L60.0 105.0 L63.0 105.0 L63.0 107.0 L60.0 107.0 L60.0 109.0 L63.0 109.0 L63.0 112.0 L60.0 112.0 L60.0 116.0 L63.0 116.0 L63.0 115.0 L65.0 115.0 L65.0 118.0 L67.0 118.0 L67.0 120.0 L69.0 120.0 L69.0 123.0 L70.0 123.0 L70.0 124.0 L71.0 124.0 L71.0 122.0 L70.0 122.0 L70.0 120.0 L71.0 120.0 L71.0 119.0 L73.0 119.0 L73.0 118.0 L72.0 118.0 L72.0 117.0 L73.0 117.0 L73.0 116.0 L72.0 116.0 L72.0 114.0 L73.0 114.0 L73.0 113.0 L73.0 113.0 L73.0 113.0 L73.0 113.0 L73.0 113.0 L73.0 113.0 L73.0 113.0 L73.0 113.0 L73.0 112.0 L74.0 112.0 L74.0 112.0 L74.0 112.0 L74.0 112.0 L74.0 112.0 L74.0 112.0 L74.0 112.0 L74.0 111.0 L75.0 111.0 L75.0 111.0 L75.0 111.0 L75.0 111.0 L75.0 111.0 L75.0 111.0 L75.0 111.0 L75.0 111.0 L75.0 110.0 L76.0 110.0 L76.0 110.0 L76.0 110.0 L76.0 110.0 L76.0 110.0 L76.0 110.0 L76.0 110.0 L76.0 110.0 L76.0 109.0 L76.0 109.0 L76.0 109.0 L76.0 109.0 L76.0 109.0 L76.0 109.0 L76.0 109.0 L76.0 109.0 L77.0 108.0 L77.0 108.0 L77.0 108.0 L77.0 108.0 L77.0 108.0 L77.0 108.0 L77.0 108.0 L77.0 107.0 L77.0 107.0 L77.0 107.0 L77.0 107.0 L77.0 107.0 L77.0 107.0 L77.0 107.0 L77.0 107.0 L77.0 106.0 L77.0 106.0 L77.0 106.0 L77.0 106.0 L77.0 106.0 L77.0 106.0 L77.0 105.0 L77.0 105.0 L77.0 105.0 L77.0 105.0 L77.0 105.0 L77.0 105.0 L77.0 104.0 L77.0 104.0 L77.0 104.0 L77.0 104.0 L77.0 104.0 L77.0 103.0 L77.0 103.0 L77.0 103.0 L77.0 103.0 L77.0 103.0 L77.0 102.0 L77.0 102.0 L77.0 102.0 L77.0 102.0 L77.0 102.0 L77.0 102.0 L77.0 102.0 L77.0 102.0 L77.0 101.0 L77.0 101.0 L77.0 101.0 L77.0 100.0 L77.0 100.0 L77.0 100.0 L77.0 100.0 L77.0 100.0 L77.0 99.0 L77.0 99.0 L77.0 99.0 L77.0 99.0 L77.0 99.0 L77.0 99.0 L77.0 99.0 L77.0 98.0 L77.0 98.0 L77.0 98.0 L77.0 98.0 L77.0 98.0 L77.0 97.0 L77.0 97.0 L77.0 97.0 L77.0 97.0 L77.0 97.0 L77.0 96.0 L77.0 96.0 L77.0 96.0 L77.0 96.0 L77.0 96.0 L77.0 95.0 L77.0 95.0 L77.0 95.0 L77.0 95.0 L77.0 94.0 L77.0 94.0 L77.0 94.0 L77.0 94.0 L77.0 94.0 L77.0 94.0 L77.0 93.0 L77.0 93.0 L77.0 93.0 L77.0 93.0 L77.0 93.0 L77.0 93.0 L77.0 92.0 L77.0 92.0 L77.0 92.0 L77.0 92.0 L77.0 91.0 L77.0 91.0 L77.0 91.0 L77.0 91.0 L77.0 91.0 L77.0 91.0 L77.0 91.0 L77.0 91.0 L77.0 90.0 L77.0 90.0 L77.0 90.0 L77.0 90.0 L77.0 90.0 L77.0 90.0 L77.0 90.0 L77.0 89.0 L77.0 89.0 L77.0 89.0 L77.0 89.0 L77.0 89.0 L77.0 88.0 L77.0 88.0 L77.0 88.0 L77.0 88.0 L77.0 88.0 L77.0 88.0 L77.0 87.0 L77.0 87.0 L77.0 87.0 L77.0 87.0 L77.0 87.0 L77.0 87.0 L77.0 87.0 L77.0 86.0 L77.0 86.0 L77.0 86.0 L77.0 86.0 L77.0 85.0 L77.0 85.0 L77.0 85.0 L77.0 85.0 L77.0 84.0 L77.0 84.0 L77.0 84.0 L77.0 84.0 L77.0 84.0 L77.0 84.0 L77.0 84.0 L77.0 84.0 L77.0 83.0 L77.0 83.0 L77.0 83.0 L77.0 83.0 L77.0 83.0 L77.0 83.0 L77.0 82.0 L77.0 82.0 L77.0 82.0 L77.0 82.0 L77.0 82.0 L77.0 82.0 L77.0 81.0 L77.0 81.0 L77.0 81.0 L77.0 81.0 L77.0 81.0 L77.0 80.0 L77.0 80.0 L77.0 80.0 L77.0 80.0 L77.0 80.0 L77.0 80.0 L77.0 80.0 L77.0 79.0 L77.0 79.0 L77.0 79.0 L77.0 79.0 L77.0 79.0 L77.0 78.0 L77.0 78.0 L77.0 78.0 L77.0 78.0 L77.0 78.0 L77.0 78.0 L77.0 78.0 L77.0 77.0 L77.0 77.0 L77.0 77.0 L77.0 77.0 L77.0 77.0 L77.0 77.0 L77.0 76.0 L77.0 76.0 L77.0 76.0 L77.0 76.0 L77.0 76.0 L77.0 76.0 L77.0 75.0 L77.0 75.0 L77.0 75.0 L77.0 75.0 L77.0 75.0 L77.0 75.0 L77.0 74.0 L77.0 74.0 L77.0 74.0 L77.0 74.0 L77.0 74.0 L77.0 74.0 L77.0 74.0 L77.0 73.0 L77.0 73.0 L77.0 73.0 L77.0 73.0 L77.0 73.0 L77.0 72.0 L77.0 72.0 L77.0 72.0 L77.0 72.0 L77.0 72.0 L77.0 72.0 L77.0 72.0 L77.0 72.0 L77.0 71.0 L77.0 71.0 L77.0 71.0 L77.0 71.0 L77.0 71.0 L77.0 71.0 L77.0 71.0 L77.0 71.0 L77.0 70.0 L77.0 70.0 L77.0 70.0 L77.0 70.0 L77.0 70.0 L77.0 70.0 L77.0 70.0 L77.0 70.0 L77.0 69.0 L77.0 69.0 L77.0 69.0 L77.0 69.0 L77.0 69.0 L77.0 69.0 L77.0 69.0 L77.0 69.0 L77.0 68.0 L77.0 68.0 L77.0 68.0 L77.0 68.0 L77.0 68.0 L77.0 68.0 L77.0 68.0 L77.0 68.0 L77.0 67.0 L77.0 67.0 L77.0 67.0 L77.0 67.0 L77.0 67.0 L77.0 67.0 L77.0 67.0 L77.0 67.0 L77.0 66.0 L77.0 66.0 L77.0 66.0 L77.0 66.0 L77.0 66.0 L77.0 66.0 L77.0 66.0 L77.0 66.0 L77.0 65.0 L77.0 65.0 L77.0 65.0 L77.0 65.0 L77.0 65.0 L77.0 65.0 L77.0 65.0 L77.0 65.0 L76.0 65.0 L76.0 65.0 L76.0 65.0 L76.0 65.0 L76.0 65.0 L76.0 65.0 L76.0 65.0 L76.0 65.0 L76.0 64.0 L76.0 64.0 L76.0 64.0 L76.0 64.0 L76.0 64.0 L76.0 64.0 L76.0 64.0 L76.0 64.0 L75.0 64.0 L75.0 64.0 L75.0 64.0 L75.0 64.0 L75.0 64.0 L75.0 64.0 L75.0 64.0 L75.0 64.0 L74.0 64.0 L74.0 64.0 L74.0 64.0 L74.0 64.0 L74.0 64.0 L74.0 64.0 L74.0 64.0 L74.0 64.0 L73.0 64.0 L73.0 64.0 L73.0 64.0 L73.0 64.0 L73.0 64.0 L73.0 64.0 L73.0 64.0 L72.0 64.0 L72.0 64.0 L72.0 64.0 L72.0 64.0 L72.0 64.0 L72.0 64.0 L71.0 64.0 L71.0 64.0 L71.0 64.0 L71.0 64.0 L71.0 64.0 L71.0 64.0 L71.0 64.0 L71.0 64.0 L70.0 64.0 L70.0 64.0 L70.0 64.0 L70.0 64.0 L70.0 64.0 L70.0 64.0 L70.0 64.0 L70.0 64.0 L69.0 64.0 L69.0 64.0 L69.0 64.0 L69.0 64.0 L69.0 64.0 L69.0 64.0 L69.0 64.0 L68.0 64.0 L68.0 64.0 L68.0 64.0 L68.0 64.0 L68.0 64.0 L68.0 64.0 L68.0 64.0 L68.0 64.0 L67.0 64.0 L67.0 64.0 L67.0 64.0 L67.0 64.0 L67.0 64.0 L67.0 64.0 L67.0 64.0 L67.0 64.0 L66.0 64.0 L66.0 64.0 L66.0 64.0 L66.0 64.0 L66.0 64.0 L66.0 64.0 L66.0 64.0 L66.0 64.0 L65.0 64.0 L65.0 64.0 L65.0 64.0 L65.0 64.0 L65.0 64.0 L65.0 64.0 L65.0 64.0 L64.0 64.0 L64.0 64.0 L64.0 64.0 L64.0 64.0 L64.0 64.0 L64.0 64.0 L64.0 64.0 L63.0 64.0 L63.0 64.0 L63.0 64.0 L63.0 64.0 L63.0 64.0 L63.0 64.0 L63.0 64.0 L63.0 64.0 L62.0 64.0 L62.0 64.0 L62.0 64.0 L62.0 64.0 L62.0 64.0 L62.0 64.0 L62.0 64.0 L62.0 64.0 L61.0 64.0 L61.0 64.0 L61.0 64.0 L61.0 64.0 L61.0 64.0 L61.0 64.0 L61.0 64.0 L61.0 64.0 L60.0 64.0 L60.0 64.0 L60.0 64.0 L60.0 64.0 L60.0 64.0 L60.0 64.0 L60.0 64.0 L59.0 64.0 L59.0 64.0 L59.0 64.0 L59.0 64.0 L59.0 64.0 L59.0 64.0 L59.0 64.0 L59.0 64.0 L58.0 64.0 L58.0 64.0 L58.0 64.0 L58.0 64.0 L58.0 64.0 L58.0 64.0 L58.0 64.0 L58.0 64.0 L57.0 64.0 L57.0 64.0 L57.0 64.0 L57.0 64.0 L57.0 64.0 L57.0 64.0 L57.0 64.0 L57.0 64.0 L57.0 65.0 L57.0 65.0 L57.0 65.0 L57.0 65.0 L57.0 65.0 L57.0 65.0 L57.0 65.0 L57.0 65.0 L57.0 66.0 L57.0 66.0 L57.0 66.0 L57.0 66.0 L57.0 66.0 L57.0 66.0 L57.0 66.0 L57.0 67.0 L57.0 67.0 L57.0 67.0 L57.0 67.0 L57.0 67.0 L57.0 67.0 L57.0 67.0 L57.0 67.0 L57.0 68.0 L57.0 68.0 L57.0 68.0 L57.0 68.0 L57.0 68.0 L57.0 68.0 L57.0 68.0 L57.0 68.0 L57.0 69.0 L57.0 69.0 L57.0 69.0 L57.0 69.0 L57.0 69.0 L57.0 69.0 L57.0 69.0 L57.0 69.0 L57.0 70.0 L57.0 70.0 L57.0 70.0 L57.0 70.0 L57.0 70.0 L57.0 70.0 L57.0 70.0 L57.0 70.0 L57.0 71.0 L57.0 71.0 L57.0 71.0 L57.0 71.0 L57.0 71.0 L57.0 71.0 L57.0 71.0 L57.0 71.0 L57.0 72.0 L57.0 72.0 L57.0 72.0 L57.0 72.0 L57.0 72.0 L57.0 72.0 L57.0 72.0 L57.0 72.0 L57.0 73.0 L57.0 73.0 L57.0 73.0 L57.0 73.0 L57.0 73.0 L57.0 73.0 L57.0 73.0 L57.0 73.0 L57.0 74.0 L57.0 74.0 L57.0 74.0 L57.0 74.0 L57.0 74.0 L57.0 74.0 L57.0 74.0 L57.0 75.0 L57.0 75.0 L57.0 75.0 L57.0 75.0 L57.0 75.0 L57.0 75.0 L57.0 75.0 L57.0 76.0 L57.0 76.0 L57.0 76.0 L57.0 76.0 L57.0 76.0 L57.0 76.0 L57.0 77.0 L57.0 77.0 L57.0 77.0 L57.0 77.0 L57.0 77.0 L57.0 77.0 L57.0 77.0 L57.0 78.0 L57.0 78.0 L57.0 78.0 L57.0 78.0 L57.0 78.0 L57.0 78.0 L57.0 78.0 L57.0 78.0 L57.0 79.0 L57.0 79.0 L57.0 79.0 L57.0 79.0 L57.0 79.0 L57.0 79.0 L57.0 79.0 L57.0 80.0 L57.0 80.0 L57.0 80.0 L57.0 80.0 L57.0 80.0 L57.0 80.0 L57.0 80.0 L57.0 80.0 L57.0 81.0 L57.0 81.0 L57.0 81.0 L57.0 81.0 L57.0 81.0 L57.0 81.0 L57.0 81.0 L57.0 82.0 L57.0 82.0 L57.0 82.0 L57.0 82.0 L57.0 82.0 L57.0 82.0 L57.0 83.0 L57.0 83.0 L57.0 83.0 L57.0 83.0 L57.0 83.0 L57.0 83.0 L57.0 83.0 L57.0 83.0 L57.0 84.0 L57.0 84.0 L57.0 84.0 L57.0 84.0 L57.0 84.0 L57.0 84.0 L57.0 85.0 L57.0 85.0 L57.0 85.0 L57.0 85.0 L57.0 85.0 L57.0 85.0 L57.0 85.0 L57.0 86.0 L57.0 86.0 L57.0 86.0 L57.0 86.0 L57.0 86.0 L57.0 87.0 L57.0 87.0 L57.0 87.0 L57.0 87.0 L57.0 87.0 L57.0 88.0 L57.0 88.0 L57.0 88.0 L57.0 88.0 L57.0 88.0 L57.0 88.0 L57.0 89.0 L57.0 89.0 L57.0 89.0 L57.0 89.0 L57.0 90.0 L57.0 90.0 L57.0 90.0 L57.0 90.0 L57.0 90.0 L57.0 90.0 L57.0 91.0 L57.0 91.0 L57.0 91.0 L57.0 91.0 L57.0 91.0 L57.0 92.0 L57.0 92.0 L57.0 92.0 L57.0 92.0 L57.0 93.0 L57.0 93.0 L57.0 93.0 L57.0 93.0 L57.0 93.0 L57.0 94.0 L57.0 94.0 L57.0 94.0 L57.0 94.0 L57.0 94.0 L57.0 94.0 L57.0 94.0 L57.0 94.0 L57.0 95.0 L57.0 95.0 L57.0 95.0 L57.0 95.0 L57.0 95.0 L57.0 95.0 L57.0 95.0 L57.0 96.0 L57.0 96.0 L57.0 96.0 L57.0 96.0 L57.0 96.0 L57.0 96.0 L57.0 97.0 L57.0 97.0 L57.0 98.0 L57.0 98.0 L57.0 98.0 L57.0 98.0 L57.0 98.0 L57.0 99.0 L57.0 99.0 L57.0 100.0 L57.0 100.0 L57.0 101.0 L57.0 101.0 L57.0 101.0 L57.0 101.0 L57.0 102.0 L57.0 102.0 L57.0 102.0 L57.0 102.0 L57.0 103.0 L57.0 103.0 L57.0 103.0 L57.0 104.0 L57.0 104.0 L57.0 104.0 L57.0 105.0 L57.0 105.0 L57.0 106.0 L57.0 106.0 L57.0 106.0 L57.0 106.0 L57.0 106.0 L57.0 106.0 L57.0 107.0 L57.0 107.0 L57.0 107.0 L57.0 107.0 L57.0 108.0 L57.0 108.0 L57.0 108.0 L57.0 108.0 L57.0 108.0 L57.0 109.0 L57.0 109.0 L57.0 110.0 L57.0 110.0 L57.0 110.0 L57.0 110.0 L57.0 111.0 L57.0 111.0 L57.0 112.0 L57.0 112.0 L57.0 112.0 L57.0 112.0 L57.0 112.0 L57.0 112.0 L57.0 113.0 L57.0 113.0 L57.0 113.0 L57.0 113.0 L57.0 113.0 L57.0 113.0 L57.0 113.0 L57.0 114.0 L57.0 114.0 L57.0 114.0 L57.0 115.0 L57.0 115.0 L57.0 115.0 L57.0 115.0 L57.0 115.0 L57.0 115.0 L57.0 115.0 L57.0 115.0 L57.0 116.0 L57.0 116.0 L57.0 116.0 L57.0 116.0 L57.0 117.0 L57.0 117.0 L57.0 117.0 L57.0 117.0 L57.0 117.0 L57.0 117.0 L57.0 117.0 L57.0 118.0 L57.0 118.0 L57.0 118.0 L57.0 118.0 L57.0 118.0 L57.0 118.0 L57.0 119.0 L57.0 119.0 L57.0 119.0 L57.0 119.0 L57.0 119.0 L57.0 119.0 L57.0 119.0 L57.0 120.0 L57.0 120.0 L57.0 120.0 L57.0 120.0 L57.0 120.0 L57.0 120.0 L57.0 120.0 L57.0 120.0 L57.0 121.0 L57.0 121.0 L57.0 121.0 L57.0 121.0 L57.0 121.0 L57.0 121.0 L57.0 121.0 L57.0 121.0 L57.0 122.0 L57.0 122.0 L57.0 122.0 L57.0 122.0 L57.0 122.0 L57.0 122.0 L57.0 123.0 L57.0 123.0 L57.0 123.0 L57.0 123.0 L57.0 123.0 L57.0 123.0 L57.0 123.0 L57.0 123.0 L57.0 124.0 L57.0 124.0 L57.0 124.0 L57.0 124.0 L57.0 124.0 L57.0 124.0 L57.0 124.0 L57.0 124.0 L57.0 125.0 L57.0 125.0 L57.0 125.0 L57.0 125.0 L57.0 125.0 L57.0 125.0 L57.0 125.0 L57.0 125.0 L57.0 126.0 L57.0 126.0 L57.0 126.0 L57.0 126.0 L57.0 126.0 L57.0 126.0 L57.0 126.0 L57.0 127.0 L57.0 127.0 L57.0 127.0 L57.0 127.0 L57.0 127.0 L57.0 127.0 L57.0 127.0 L57.0 127.0 L57.0 128.0 L57.0 128.0 L57.0 128.0 L57.0 128.0 L57.0 128.0 L57.0 128.0 L57.0 128.0 L57.0 129.0 L57.0 129.0 L57.0 129.0 L57.0 129.0 L57.0 129.0 L57.0 129.0 L57.0 129.0 L57.0 129.0 L57.0 130.0 L57.0 130.0 L57.0 130.0 L57.0 130.0 L57.0 130.0 L57.0 130.0 L57.0 130.0 L57.0 131.0 L57.0 131.0 L57.0 131.0 L57.0 131.0 L57.0 131.0 L57.0 131.0 L57.0 131.0 L57.0 131.0 L57.0 132.0 L57.0 132.0 L57.0 132.0 L57.0 132.0 L57.0 132.0 L57.0 132.0 L57.0 132.0 L57.0 132.0 L57.0 133.0 L57.0 133.0 L57.0 133.0 L57.0 133.0 L57.0 133.0 L57.0 133.0 L57.0 133.0 L57.0 133.0 L57.0 134.0 L57.0 134.0 L57.0 134.0 L57.0 134.0 L57.0 134.0 L57.0 134.0 L57.0 134.0 L57.0 134.0 L57.0 135.0 L57.0 135.0 L57.0 135.0 L57.0 135.0 L57.0 135.0 L57.0 135.0 L57.0 135.0 L57.0 135.0 L57.0 136.0 L57.0 136.0 L57.0 136.0 L57.0 136.0 L57.0 136.0 L57.0 136.0 L57.0 136.0 L57.0 136.0 L57.0 137.0 L57.0 137.0 L57.0 137.0 L57.0 137.0 L57.0 137.0 L57.0 137.0 L57.0 137.0 L57.0 138.0 L57.0 138.0 L57.0 138.0 L57.0 138.0 L57.0 138.0 L57.0 138.0 L57.0 138.0 L57.0 138.0 L57.0 139.0 L57.0 139.0 L57.0 139.0 L57.0 139.0 L57.0 139.0 L57.0 139.0 L57.0 140.0 L57.0 140.0 L57.0 140.0 L57.0 140.0 L57.0 140.0 L57.0 140.0 L57.0 141.0 L57.0 141.0 L57.0 141.0 L57.0 141.0 L57.0 141.0 L57.0 141.0 L57.0 142.0 L57.0 142.0 L57.0 142.0 L57.0 142.0 L57.0 142.0 L57.0 142.0 L57.0 142.0 L57.0 143.0 L57.0 143.0 L57.0 143.0 L57.0 143.0 L57.0 143.0 L57.0 143.0 L57.0 143.0 L57.0 143.0 L57.0 144.0 L57.0 144.0 L57.0 144.0 L57.0 144.0 L57.0 144.0 L57.0 144.0 L57.0 145.0 L57.0 145.0 L57.0 145.0 L57.0 145.0 L57.0 145.0 L57.0 145.0 L57.0 145.0 L57.0 146.0 L57.0 146.0 L57.0 146.0 L57.0 146.0 L57.0 146.0 L57.0 147.0 L57.0 147.0 L57.0 147.0 L57.0 147.0 L57.0 147.0 L57.0 147.0 L57.0 148.0 L57.0 148.0 L57.0 148.0 L57.0 148.0 L57.0 148.0 L57.0 149.0 L57.0 149.0 L57.0 149.0 L57.0 149.0 L57.0 149.0 L57.0 149.0 L57.0 150.0 L57.0 150.0 L57.0 150.0 L57.0 150.0 L57.0 150.0 L57.0 150.0 L57.0 151.0 L57.0 151.0 L57.0 151.0 L57.0 151.0 L57.0 152.0 L57.0 152.0 L57.0 152.0 L57.0 152.0 L57.0 152.0 L57.0 152.0 L57.0 152.0 L57.0 153.0 L57.0 153.0 L57.0 153.0 L57.0 153.0 L57.0 153.0 L57.0 153.0 L57.0 153.0 L57.0 154.0 L57.0 154.0 L57.0 154.0 L57.0 155.0 L57.0 155.0 L57.0 155.0 L57.0 155.0 L57.0 155.0 L57.0 155.0 L57.0 155.0 L57.0 155.0 L57.0 156.0 L57.0 156.0 L57.0 156.0 L57.0 156.0 L57.0 156.0 L57.0 156.0 L57.0 157.0 L57.0 157.0 L57.0 157.0 L57.0 157.0 L57.0 157.0 L57.0 157.0 L57.0 158.0 L57.0 158.0 L57.0 158.0 L57.0 159.0 L57.0 159.0 L57.0 159.0 L57.0 160.0 L57.0 160.0 L57.0 160.0 L57.0 160.0 L57.0 160.0 L57.0 160.0 L57.0 161.0 L57.0 161.0 L57.0 161.0 L57.0 161.0 L57.0 161.0 L57.0 161.0 L57.0 161.0 L57.0 161.0 L57.0 162.0 L57.0 162.0 L57.0 162.0 L57.0 162.0 L57.0 162.0 L57.0 163.0 L57.0 163.0 L57.0 163.0 L57.0 163.0 L57.0 163.0 L57.0 163.0 L57.0 163.0 L57.0 164.0 L57.0 164.0 L57.0 164.0 L57.0 164.0 L57.0 164.0 L57.0 164.0 L57.0 165.0 L57.0 165.0 L57.0 165.0 L57.0 165.0 L57.0 165.0 L57.0 165.0 L57.0 166.0 L57.0 166.0 L57.0 166.0 L57.0 166.0 L57.0 166.0 L57.0 166.0 L57.0 166.0 L57.0 167.0 L57.0 167.0 L57.0 167.0 L57.0 167.0 L57.0 167.0 L57.0 167.0 L57.0 167.0 L57.0 167.0 L57.0 168.0 L57.0 168.0 L57.0 168.0 L57.0 168.0 L57.0 168.0 L57.0 168.0 L57.0 169.0 L57.0 169.0 L57.0 169.0 L57.0 169.0 L57.0 169.0 L57.0 169.0 L57.0 169.0 L57.0 170.0 L57.0 170.0 L57.0 170.0 L57.0 170.0 L57.0 170.0 L57.0 170.0 L57.0 170.0 L57.0 170.0 L57.0 171.0 L57.0 171.0 L57.0 171.0 L57.0 171.0 L57.0 171.0 L57.0 171.0 L57.0 171.0 L57.0 172.0 L57.0 172.0 L57.0 172.0 L57.0 172.0 L57.0 172.0 L57.0 172.0 L57.0 173.0 L57.0 173.0 L57.0 173.0 L57.0 173.0 L57.0 173.0 L57.0 173.0 L57.0 173.0 L57.0 173.0 L57.0 174.0 L57.0 174.0 L57.0 174.0 L57.0 174.0 L57.0 174.0 L57.0 174.0 L57.0 174.0 L57.0 175.0 L57.0 175.0 L57.0 175.0 L57.0 175.0 L57.0 175.0 L57.0 175.0 L57.0 176.0 L57.0 176.0 L57.0 176.0 L57.0 176.0 L57.0 176.0 L57.0 176.0 L57.0 176.0 L57.0 176.0 L57.0 177.0 L57.0 177.0 L57.0 177.0 L57.0 177.0 L57.0 177.0 L57.0 177.0 L57.0 177.0 L57.0 177.0 L57.0 178.0 L57.0 178.0 L57.0 178.0 L57.0 178.0 L57.0 178.0 L57.0 178.0 L57.0 178.0 L57.0 178.0 L57.0 179.0 L57.0 179.0 L57.0 179.0 L57.0 179.0 L57.0 179.0 L57.0 179.0 L57.0 179.0 L57.0 180.0 L57.0 180.0 L57.0 180.0 L57.0 180.0 L57.0 180.0 L57.0 180.0 L57.0 180.0 L57.0 180.0 L57.0 181.0 L57.0 181.0 L57.0 181.0 L57.0 181.0 L57.0 181.0 L57.0 181.0 L57.0 181.0 L57.0 181.0 L57.0 182.0 L57.0 182.0 L57.0 182.0 L57.0 182.0 L57.0 182.0 L57.0 182.0 L57.0 183.0 L57.0 183.0 L57.0 183.0 L57.0 183.0 L57.0 183.0 L57.0 183.0 L57.0 184.0 L57.0 184.0 L57.0 184.0 L57.0 184.0 L57.0 184.0 L57.0 184.0 L57.0 184.0 L57.0 184.0 L57.0 185.0 L57.0 185.0 L57.0 185.0 L57.0 185.0 L57.0 185.0 L57.0 185.0 L57.0 185.0 L57.0 186.0 L57.0 186.0 L57.0 186.0 L57.0 186.0 L57.0 186.0 L57.0 186.0 L57.0 187.0 L57.0 187.0 L57.0 187.0 L57.0 187.0 L57.0 187.0 L57.0 187.0 L57.0 187.0 L57.0 187.0 L57.0 188.0 L57.0 188.0 L57.0 188.0 L57.0 188.0 L57.0 188.0 L57.0 188.0 L57.0 189.0 L57.0 189.0 L57.0 189.0 L57.0 189.0 L57.0 189.0 L57.0 189.0 L57.0 189.0 L57.0 189.0 L57.0 190.0 L57.0 190.0 L57.0 190.0 L57.0 190.0 L57.0 190.0 L57.0 190.0 L57.0 191.0 L57.0 191.0 L57.0 191.0 L57.0 191.0 L57.0 191.0 L57.0 191.0 L57.0 191.0 L57.0 191.0 L57.0 192.0 L57.0 192.0 L57.0 192.0 L57.0 192.0 L57.0 192.0 L57.0 192.0 L57.0 193.0 L57.0 193.0 L57.0 193.0 L57.0 193.0 L57.0 193.0 L57.0 193.0 L57.0 193.0 L57.0 193.0 L57.0 194.0 L57.0 194.0 L57.0 194.0 L57.0 194.0 L57.0 194.0 L57.0 194.0 L57.0 194.0 L57.0 194.0 L57.0 193.0 L57.0 193.0 L57.0 193.0 L57.0 193.0 L57.0 193.0 L57.0 193.0 L57.0 193.0 L57.0 199.0 L0.0 199.0 L0.0 199.0 L0.0 199.0 Z M77.0 109.0 L77.0 109.0 C78.0 109.0 79.0 109.0 80.0 108.0 C82.0 107.0 84.0 107.0 86.0 106.0 C86.0 105.0 86.0 104.0 86.0 103.0 C86.0 102.0 86.0 101.0 86.0 100.0 C86.0 99.0 86.0 98.0 86.0 97.0 C86.0 96.0 86.0 95.0 86.0 94.0 C86.0 92.0 86.0 90.0 86.0 89.0 C87.0 88.0 88.0 88.0 90.0 88.0 C91.0 88.0 92.0 88.0 93.0 89.0 C95.0 89.0 97.0 89.0 99.0 90.0 C100.0 91.0 101.0 93.0 101.0 95.0 C101.0 96.0 100.0 98.0 100.0 99.0 C100.0 101.0 99.0 103.0 97.0 104.0 C96.0 105.0 94.0 106.0 92.0 106.0 C90.0 107.0 88.0 107.0 87.0 108.0 C86.0 108.0 85.0 108.0 84.0 108.0 C82.0 108.0 80.0 108.0 78.0 109.0 C78.0 109.0 77.0 109.0 77.0 109.0 L77.0 109.0 Z M73.0 109.0 C74.0 109.0 74.0 109.0 74.0 109.0 C75.0 109.0 75.0 109.0 75.0 109.0 C75.0 109.0 75.0 109.0 75.0 109.0 C75.0 109.0 75.0 109.0 75.0 109.0 C75.0 109.0 75.0 109.0 75.0 109.0 C75.0 109.0 75.0 109.0 74.0 109.0 C74.0 109.0 74.0 109.0 74.0 109.0 C74.0 109.0 74.0 109.0 74.0 109.0 C74.0 109.0 74.0 109.0 74.0 109.0 C74.0 109.0 74.0 109.0 74.0 109.0 C74.0 109.0 74.0 110.0 74.0 110.0 C74.0 110.0 74.0 110.0 74.0 110.0 C74.0 110.0 74.0 110.0 74.0 110.0 C74.0 110.0 74.0 110.0 74.0 110.0 C74.0 110.0 74.0 110.0 74.0 110.0 C73.0 110.0 73.0 110.0 73.0 110.0 C73.0 110.0 73.0 110.0 73.0 110.0 C73.0 110.0 73.0 110.0 73.0 110.0 C73.0 110.0 73.0 110.0 73.0 110.0 C73.0 110.0 73.0 110.0 74.0 110.0 C74.0 110.0 74.0 110.0 74.0 110.0 C74.0 110.0 74.0 110.0 74.0 110.0 C74.0 110.0 74.0 110.0 74.0 110.0 C74.0 110.0 74.0 109.0 74.0 109.0 C74.0 109.0 74.0 109.0 74.0 109.0 C74.0 109.0 74.0 109.0 74.0 109.0 C74.0 109.0 74.0 109.0 74.0 109.0 C74.0 108.0 74.0 108.0 74.0 108.0 C74.0 108.0 74.0 108.0 74.0 108.0 C74.0 108.0 74.0 108.0 74.0 108.0 C74.0 108.0 74.0 108.0 74.0 108.0 C74.0 108.0 74.0 108.0 73.0 108.0 C73.0 108.0 73.0 108.0 73.0 108.0 C73.0 108.0 73.0 108.0 73.0 108.0 C73.0 108.0 73.0 108.0 73.0 108.0 C73.0 108.0 73.0 108.0 73.0 108.0 C73.0 108.0 72.0 108.0 72.0 108.0 C72.0 108.0 72.0 108.0 72.0 108.0 C72.0 108.0 72.0 108.0 72.0 108.0 C72.0 108.0 72.0 108.0 72.0 108.0 C72.0 108.0 72.0 108.0 72.0 108.0 C72.0 109.0 72.0 109.0 72.0 109.0 C72.0 109.0 72.0 109.0 72.0 109.0 C72.0 109.0 72.0 109.0 72.0 109.0 C72.0 109.0 72.0 109.0 72.0 109.0 C72.0 109.0 72.0 109.0 73.0 109.0 C73.0 109.0 73.0 109.0 73.0 109.0 C73.0 109.0 73.0 109.0 73.0 109.0 L73.0 109.0 Z M71.0 106.0 C71.0 106.0 71.0 106.0 71.0 106.0 C71.0 106.0 71.0 106.0 71.0 106.0 C71.0 106.0 71.0 106.0 71.0 106.0 C71.0 106.0 71.0 106.0 71.0 106.0 L71.0 106.0 Z M71.0 101.0 C72.0 100.0 73.0 100.0 74.0 99.0 C75.0 98.0 75.0 97.0 75.0 96.0 C75.0 95.0 75.0 94.0 75.0 93.0 C75.0 92.0 75.0 91.0 75.0 90.0 C75.0 89.0 75.0 88.0 75.0 87.0 C75.0 86.0 75.0 85.0 75.0 84.0 C75.0 83.0 75.0 82.0 75.0 81.0 C75.0 80.0 75.0 79.0 75.0 78.0 C75.0 77.0 75.0 76.0 75.0 75.0 C75.0 74.0 75.0 73.0 75.0 72.0 C75.0 71.0 75.0 70.0 75.0 69.0 C75.0 69.0 75.0 68.0 75.0 67.0 C75.0 67.0 75.0 66.0 75.0 66.0 C75.0 66.0 75.0 66.0 75.0 66.0 C75.0 66.0 75.0 66.0 75.0 66.0 C75.0 66.0 75.0 66.0 75.0 66.0 C75.0 66.0 75.0 66.0 75.0 66.0 C75.0 65.0 75.0 65.0 75.0 65.0 C75.0 65.0 75.0 65.0 75.0 65.0 C75.0 65.0 75.0 65.0 75.0 65.0 C75.0 65.0 75.0 65.0 75.0 65.0 C75.0 65.0 75.0 65.0 74.0 65.0 C74.0 65.0 74.0 65.0 74.0 65.0 C74.0 65.0 74.0 65.0 74.0 65.0 C74.0 65.0 74.0 65.0 74.0 65.0 C74.0 65.0 74.0 65.0 74.0 65.0 C74.0 65.0 73.0 65.0 73.0 65.0 C73.0 65.0 73.0 65.0 73.0 65.0 C73.0 65.0 73.0 65.0 73.0 65.0 C73.0 65.0 73.0 65.0 73.0 65.0 C73.0 65.0 73.0 65.0 73.0 65.0 C72.0 65.0 72.0 65.0 72.0 65.0 C72.0 65.0 72.0 65.0 72.0 65.0 C72.0 65.0 72.0 65.0 72.0 65.0 C71.0 65.0 71.0 65.0 71.0 65.0 C71.0 65.0 71.0 65.0 71.0 65.0 C71.0 65.0 71.0 65.0 71.0 65.0 C71.0 65.0 71.0 65.0 71.0 65.0 C71.0 65.0 71.0 65.0 70.0 65.0 C70.0 65.0 70.0 65.0 70.0 65.0 C70.0 65.0 70.0 65.0 70.0 65.0 C70.0 65.0 70.0 65.0 70.0 65.0 C70.0 65.0 70.0 65.0 70.0 65.0 C70.0 65.0 69.0 65.0 69.0 65.0 C69.0 65.0 69.0 65.0 69.0 65.0 C69.0 65.0 69.0 65.0 69.0 65.0 C69.0 65.0 69.0 65.0 69.0 65.0 C69.0 65.0 69.0 65.0 69.0 65.0 C68.0 65.0 68.0 65.0 68.0 65.0 C68.0 65.0 68.0 65.0 68.0 65.0 C68.0 65.0 68.0 65.0 68.0 65.0 C68.0 65.0 68.0 65.0 68.0 65.0 C68.0 65.0 68.0 65.0 67.0 65.0 C67.0 65.0 67.0 65.0 67.0 65.0 C67.0 65.0 67.0 65.0 67.0 65.0 C67.0 65.0 67.0 65.0 67.0 65.0 C67.0 65.0 67.0 65.0 67.0 65.0 C67.0 65.0 66.0 65.0 66.0 65.0 C66.0 65.0 66.0 65.0 66.0 65.0 C66.0 65.0 66.0 65.0 66.0 65.0 C66.0 65.0 66.0 65.0 66.0 65.0 C66.0 65.0 66.0 65.0 66.0 65.0 C65.0 65.0 65.0 65.0 65.0 65.0 C65.0 65.0 65.0 65.0 65.0 65.0 C65.0 65.0 65.0 65.0 65.0 65.0 C65.0 65.0 65.0 65.0 65.0 65.0 C65.0 65.0 65.0 65.0 64.0 65.0 C64.0 65.0 64.0 65.0 64.0 65.0 C64.0 65.0 64.0 65.0 64.0 65.0 C64.0 65.0 64.0 65.0 64.0 65.0 C64.0 65.0 64.0 65.0 64.0 65.0 C64.0 65.0 63.0 65.0 63.0 65.0 C63.0 65.0 63.0 65.0 63.0 65.0 C63.0 65.0 63.0 65.0 63.0 65.0 C63.0 65.0 63.0 65.0 63.0 65.0 C63.0 65.0 63.0 65.0 63.0 65.0 C62.0 65.0 62.0 65.0 62.0 65.0 C62.0 65.0 62.0 65.0 62.0 65.0 C62.0 65.0 62.0 65.0 62.0 65.0 C62.0 65.0 62.0 65.0 62.0 65.0 C62.0 65.0 62.0 65.0 61.0 65.0 C61.0 65.0 61.0 65.0 61.0 65.0 C61.0 65.0 61.0 65.0 61.0 65.0 C61.0 65.0 61.0 65.0 61.0 65.0 C61.0 65.0 61.0 65.0 61.0 65.0 C61.0 65.0 60.0 65.0 60.0 65.0 C60.0 65.0 60.0 65.0 60.0 65.0 C60.0 65.0 60.0 65.0 60.0 65.0 C60.0 65.0 60.0 65.0 60.0 65.0 C60.0 65.0 60.0 65.0 59.0 65.0 C59.0 65.0 59.0 65.0 59.0 65.0 C59.0 65.0 59.0 65.0 59.0 65.0 C59.0 65.0 59.0 65.0 59.0 65.0 C59.0 65.0 59.0 65.0 59.0 65.0 C59.0 65.0 58.0 65.0 58.0 65.0 C58.0 65.0 58.0 65.0 58.0 65.0 C58.0 65.0 58.0 65.0 58.0 65.0 C58.0 65.0 58.0 65.0 58.0 65.0 C58.0 65.0 58.0 65.0 58.0 65.0 C57.0 65.0 57.0 65.0 57.0 65.0 C57.0 65.0 57.0 65.0 57.0 65.0 C57.0 65.0 57.0 65.0 57.0 65.0 C57.0 65.0 57.0 65.0 57.0 65.0 C57.0 65.0 57.0 65.0 56.0 65.0 C56.0 65.0 56.0 65.0 56.0 65.0 C56.0 65.0 56.0 65.0 56.0 65.0 C56.0 65.0 56.0 65.0 56.0 65.0 C56.0 65.0 56.0 65.0 56.0 65.0 C56.0 65.0 55.0 65.0 55.0 65.0 C55.0 65.0 55.0 65.0 55.0 65.0 C55.0 65.0 55.0 65.0 55.0 65.0 C55.0 65.0 55.0 65.0 55.0 65.0 C55.0 65.0 55.0 65.0 55.0 65.0 C54.0 65.0 54.0 65.0 54.0 65.0 C54.0 65.0 54.0 65.0 54.0 65.0 C54.0 65.0 54.0 65.0 54.0 65.0 C54.0 65.0 54.0 65.0 54.0 65.0 C54.0 65.0 54.0 65.0 53.0 65.0 C53.0 65.0 53.0 65.0 53.0 65.0 C53.0 65.0 53.0 65.0 53.0 65.0 C53.0 65.0 53.0 65.0 53.0 65.0 C53.0 65.0 53.0 65.0 53.0 65.0 C53.0 65.0 52.0 65.0 52.0 65.0 C52.0 65.0 52.0 65.0 52.0 65.0 C52.0 65.0 52.0 65.0 52.0 65.0 C52.0 65.0 52.0 65.0 52.0 65.0 C52.0 65.0 52.0 65.0 52.0 65.0 C51.0 65.0 51.0 65.0 51.0 65.0 C51.0 65.0 51.0 65.0 51.0 65.0 C51.0 65.0 51.0 65.0 51.0 65.0 C51.0 65.0 51.0 65.0 51.0 65.0 C51.0 65.0 50.0 65.0 50.0 65.0 C50.0 65.0 50.0 65.0 50.0 65.0 C50.0 65.0 50.0 65.0 50.0 65.0 C50.0 65.0 50.0 65.0 50.0 65.0 C50.0 65.0 50.0 65.0 50.0 65.0 C49.0 65.0 49.0 65.0 49.0 65.0 C49.0 65.0 49.0 65.0 49.0 65.0 C49.0 65.0 49.0 65.0 49.0 65.0 C49.0 65.0 49.0 65.0 49.0 65.0 C49.0 65.0 49.0 65.0 48.0 65.0"></path></svg>