<svg xmlns="http://www.w3.org/2000/svg" width="4000" height="4000" viewBox="0 0 4000 4000" version="1.1">
	<path d="M 1138.158 1286 C 1138.158 1287.375, 1138.385 1287.938, 1138.662 1287.250 C 1138.940 1286.563, 1138.940 1285.438, 1138.662 1284.750 C 1138.385 1284.063, 1138.158 1284.625, 1138.158 1286 M 1137.079 1292.583 C 1137.127 1293.748, 1137.364 1293.985, 1137.683 1293.188 C 1137.972 1292.466, 1137.936 1291.603, 1137.604 1291.271 C 1137.272 1290.939, 1137.036 1291.529, 1137.079 1292.583 M 1141.158 1294 C 1141.158 1295.375, 1141.385 1295.938, 1141.662 1295.250 C 1141.940 1294.563, 1141.940 1293.438, 1141.662 1292.750 C 1141.385 1292.063, 1141.158 1292.625, 1141.158 1294 M 1142.158 1300 C 1142.158 1301.375, 1142.385 1301.938, 1142.662 1301.250 C 1142.940 1300.563, 1142.940 1299.438, 1142.662 1298.750 C 1142.385 1298.063, 1142.158 1298.625, 1142.158 1300 M 1133.300 1307.879 C 1132.103 1312.762, 1131.391 1317.780, 1131.718 1319.028 C 1132.123 1320.579, 1131.726 1321.727, 1130.465 1322.650 C 1129.101 1323.647, 1128.995 1324.008, 1130.059 1324.030 C 1131.163 1324.054, 1131.108 1324.289, 1129.825 1325.038 C 1128.253 1325.955, 1125.345 1332.603, 1125.795 1334.250 C 1125.908 1334.662, 1125.622 1335, 1125.160 1335 C 1124.698 1335, 1123.726 1336.800, 1123 1339 C 1122.274 1341.200, 1121.338 1343, 1120.919 1343 C 1120.501 1343, 1119.862 1344.350, 1119.500 1346 C 1119.138 1347.650, 1118.400 1349, 1117.862 1349 C 1117.323 1349, 1117.160 1349.450, 1117.500 1350 C 1117.840 1350.550, 1117.695 1351, 1117.177 1351 C 1116.660 1351, 1114.880 1353.086, 1113.221 1355.636 C 1105.414 1367.638, 1088.308 1381.960, 1072.092 1390.072 C 1055.081 1398.581, 1026.777 1406.610, 1012 1407.117 C 1009.184 1407.214, 1009.574 1407.413, 1014 1408.137 C 1040.583 1412.482, 1050.001 1414.942, 1065.037 1421.468 C 1080.481 1428.172, 1092.818 1436.715, 1104.796 1449 C 1110.080 1454.419, 1120.469 1470.636, 1124.335 1479.500 C 1131.009 1494.804, 1137.060 1517.212, 1138.645 1532.500 L 1139.371 1539.500 1140.677 1529 C 1144.100 1501.493, 1151.549 1479.417, 1163.442 1461.544 C 1169.230 1452.845, 1181.229 1440.390, 1189.500 1434.494 C 1192.250 1432.534, 1194.393 1430.512, 1194.262 1430.001 C 1194.131 1429.490, 1194.648 1429.311, 1195.411 1429.604 C 1196.174 1429.897, 1197.138 1429.586, 1197.553 1428.914 C 1198.068 1428.080, 1197.892 1427.949, 1197 1428.500 C 1196.127 1429.039, 1195.932 1428.919, 1196.415 1428.138 C 1196.813 1427.494, 1197.542 1427.217, 1198.035 1427.522 C 1198.528 1427.826, 1200.747 1427.149, 1202.966 1426.017 C 1206.985 1423.967, 1208.499 1422.487, 1205.336 1423.701 C 1204.267 1424.111, 1203.915 1423.947, 1204.350 1423.242 C 1204.730 1422.627, 1204.136 1421.860, 1203 1421.500 C 1201.864 1421.140, 1201.270 1420.373, 1201.650 1419.758 C 1202.078 1419.064, 1201.746 1418.884, 1200.747 1419.267 C 1199.808 1419.627, 1198.924 1419.244, 1198.571 1418.326 C 1198.178 1417.301, 1198.430 1416.951, 1199.314 1417.290 C 1200.544 1417.762, 1200.639 1417.218, 1200.083 1412.844 C 1200.037 1412.483, 1199.100 1412.423, 1198 1412.710 C 1196.838 1413.014, 1196 1412.741, 1196 1412.058 C 1196 1411.411, 1195.505 1411.188, 1194.900 1411.562 C 1194.103 1412.055, 1194.103 1411.675, 1194.903 1410.181 C 1195.717 1408.660, 1195.703 1407.934, 1194.848 1407.406 C 1194.171 1406.988, 1193.960 1407.127, 1194.340 1407.741 C 1194.697 1408.318, 1194.293 1409.057, 1193.442 1409.384 C 1192.592 1409.710, 1192.152 1409.563, 1192.464 1409.058 C 1192.777 1408.552, 1192.575 1407.856, 1192.016 1407.510 C 1191.457 1407.165, 1191 1406.046, 1191 1405.024 C 1191 1400.283, 1181.242 1384.777, 1180.916 1389 C 1180.853 1389.825, 1180.466 1389.375, 1180.058 1388 C 1179.184 1385.060, 1179.873 1383.191, 1181.110 1385.143 C 1181.685 1386.051, 1181.974 1386.106, 1181.985 1385.309 C 1181.993 1384.654, 1181.532 1383.829, 1180.959 1383.475 C 1180.387 1383.121, 1180.227 1381.861, 1180.604 1380.674 C 1181.219 1378.734, 1181.116 1378.659, 1179.588 1379.927 C 1178.123 1381.143, 1177.930 1381.142, 1178.194 1379.919 C 1178.362 1379.139, 1177.938 1378.612, 1177.250 1378.750 C 1175.508 1379.098, 1175.690 1377.453, 1177.606 1375.537 C 1178.839 1374.304, 1179.533 1374.197, 1180.595 1375.079 C 1181.356 1375.710, 1181.740 1376.612, 1181.448 1377.084 C 1181.157 1377.556, 1182.047 1378.225, 1183.426 1378.571 C 1186.149 1379.254, 1186.362 1380.790, 1184 1382.715 C 1183.141 1383.414, 1182.982 1383.950, 1183.628 1383.968 C 1184.981 1384.006, 1186.647 1381.951, 1186.561 1380.347 C 1186.469 1378.618, 1173.390 1366.955, 1172.473 1367.783 C 1172.036 1368.178, 1171.942 1368.036, 1172.264 1367.469 C 1172.585 1366.901, 1170.679 1363.646, 1168.028 1360.235 C 1165.377 1356.823, 1161.506 1351.123, 1159.426 1347.567 C 1157.346 1344.011, 1155.267 1341.335, 1154.806 1341.620 C 1154.345 1341.905, 1154.286 1342.670, 1154.676 1343.319 C 1155.100 1344.027, 1154.721 1343.963, 1153.731 1343.160 C 1151.425 1341.291, 1150.699 1338.431, 1151.941 1336.110 C 1153.158 1333.837, 1152.298 1330.698, 1150.725 1331.670 C 1150.041 1332.093, 1149.908 1331.683, 1150.353 1330.523 C 1150.931 1329.017, 1150.800 1328.921, 1149.565 1329.946 C 1148.402 1330.912, 1148.343 1331.455, 1149.292 1332.482 C 1149.956 1333.202, 1150.838 1333.586, 1151.250 1333.336 C 1151.662 1333.086, 1152 1333.332, 1152 1333.882 C 1152 1336.282, 1149.976 1335.775, 1147.896 1332.854 C 1145.444 1329.410, 1144.635 1324.646, 1146.633 1325.413 C 1147.294 1325.666, 1148.063 1325.278, 1148.342 1324.550 C 1148.697 1323.627, 1148.192 1323.370, 1146.675 1323.700 C 1145.415 1323.974, 1144.935 1323.822, 1145.533 1323.337 C 1146.448 1322.596, 1146.608 1319.996, 1146.093 1314.250 C 1145.947 1312.620, 1145.849 1312.615, 1144.661 1314.178 C 1143.786 1315.328, 1142.931 1315.569, 1141.942 1314.943 C 1140.732 1314.177, 1140.764 1314.028, 1142.142 1314.015 C 1143.640 1314.001, 1145.701 1309.368, 1144.669 1308.335 C 1144.433 1308.100, 1143.948 1309.072, 1143.591 1310.495 C 1143.001 1312.846, 1142.797 1312.940, 1141.373 1311.516 C 1140.505 1310.648, 1140.073 1309.179, 1140.405 1308.224 C 1140.927 1306.725, 1140.841 1306.695, 1139.749 1308 C 1139.058 1308.825, 1137.819 1309.646, 1136.996 1309.824 C 1136.044 1310.030, 1136.317 1309.380, 1137.750 1308.035 C 1139.955 1305.964, 1140.922 1303.312, 1139.050 1304.469 C 1137.872 1305.197, 1135.683 1301.323, 1136.513 1299.979 C 1136.846 1299.441, 1136.749 1299, 1136.297 1299 C 1135.846 1299, 1134.497 1302.996, 1133.300 1307.879 M 539 1739.778 C 539 2157.094, 539.087 2178.891, 540.750 2179.380 C 542.991 2180.039, 566.896 2183.392, 587.500 2185.937 C 655.407 2194.327, 739.202 2195.922, 836 2190.667 L 857.500 2189.500 857.752 1941.750 C 857.919 1777.821, 858.341 1694, 859.002 1694 C 860.400 1694, 876.931 1696.780, 886.500 1698.624 C 908.377 1702.840, 939.592 1711.858, 960.112 1719.890 C 966.371 1722.340, 971.498 1723.791, 972.612 1723.427 C 974.037 1722.962, 974.161 1723.053, 973.118 1723.796 C 972.007 1724.588, 972.152 1724.913, 973.859 1725.455 C 975.027 1725.826, 976.506 1725.806, 977.146 1725.410 C 977.823 1724.991, 978.041 1725.125, 977.667 1725.729 C 976.901 1726.969, 982.429 1729.471, 983.910 1728.555 C 984.477 1728.205, 986.250 1728.595, 987.850 1729.423 C 989.450 1730.250, 992.653 1731.579, 994.967 1732.376 C 998.870 1733.721, 999.312 1733.688, 1001.087 1731.913 C 1002.139 1730.861, 1003 1728.820, 1003 1727.378 C 1003 1725.160, 1003.232 1724.947, 1004.500 1726 C 1006.099 1727.327, 1006.610 1729.495, 1005.105 1728.565 C 1003.607 1727.639, 1003.023 1730.774, 1004.469 1731.975 C 1005.510 1732.838, 1006.181 1732.580, 1007.394 1730.847 C 1008.477 1729.302, 1008.628 1728.388, 1007.878 1727.924 C 1007.118 1727.455, 1007.108 1727.052, 1007.843 1726.597 C 1008.424 1726.238, 1009.417 1726.911, 1010.050 1728.093 C 1010.846 1729.582, 1010.862 1730.033, 1010.100 1729.562 C 1008.348 1728.479, 1008.819 1729.777, 1011.151 1732.458 C 1013.170 1734.780, 1015 1735.025, 1015 1732.972 C 1015 1732.472, 1014.325 1732.322, 1013.500 1732.638 C 1012.675 1732.955, 1012 1732.716, 1012 1732.107 C 1012 1731.498, 1012.419 1731, 1012.932 1731 C 1013.444 1731, 1013.730 1729.763, 1013.566 1728.250 C 1013.349 1726.244, 1012.715 1725.500, 1011.225 1725.500 C 1010.100 1725.500, 1008.823 1725.146, 1008.386 1724.712 C 1007.031 1723.370, 1007.423 1718.568, 1009 1717.176 C 1009.825 1716.448, 1009.966 1716.119, 1009.312 1716.446 C 1008.494 1716.856, 1008.141 1715.838, 1008.178 1713.171 C 1008.244 1708.420, 1006.394 1704.635, 1004.383 1705.406 C 1003.555 1705.724, 1002.989 1705.432, 1003.078 1704.734 C 1003.415 1702.115, 1002.943 1701, 1001.500 1701 C 1000.675 1701, 1000 1700.373, 1000 1699.607 C 1000 1698.044, 997.306 1696.693, 995.910 1697.556 C 995.409 1697.865, 995 1697.432, 995 1696.594 C 995 1694.599, 992.159 1693.141, 987.687 1692.840 C 984.830 1692.647, 984.315 1692.325, 985.187 1691.274 C 985.791 1690.547, 985.996 1689.663, 985.643 1689.309 C 985.289 1688.956, 985 1689.218, 985 1689.892 C 985 1692.381, 982.997 1689.787, 982.914 1687.191 L 982.828 1684.500 981.978 1687.335 C 981.510 1688.894, 981.372 1690.806, 981.671 1691.585 C 981.970 1692.363, 981.771 1693, 981.229 1693 C 979.836 1693, 977.886 1690.448, 978.675 1689.658 C 979.037 1689.296, 978.846 1689, 978.250 1689 C 977.654 1689, 976.990 1689.530, 976.774 1690.177 C 976.520 1690.939, 975.873 1691.036, 974.941 1690.453 C 974.148 1689.958, 973.050 1689.497, 972.500 1689.429 C 971.950 1689.360, 970.938 1689.236, 970.250 1689.152 C 969.563 1689.069, 969 1688.523, 969 1687.941 C 969 1687.359, 969.450 1687.160, 970 1687.500 C 970.550 1687.840, 971 1687.388, 971 1686.496 C 971 1685.509, 970.316 1684.987, 969.250 1685.162 C 966.862 1685.555, 964.976 1684.225, 965.604 1682.591 C 965.888 1681.851, 965.244 1679.805, 964.174 1678.045 C 961.949 1674.387, 962.302 1669.325, 964.566 1672.421 C 965.727 1674.009, 965.873 1673.976, 966.506 1671.982 L 967.190 1669.826 968.685 1671.961 C 969.812 1673.569, 970.504 1673.827, 971.493 1673.006 C 972.456 1672.207, 972.944 1672.261, 973.324 1673.208 C 973.743 1674.252, 973.857 1674.249, 973.921 1673.191 C 973.965 1672.464, 974.513 1672.199, 975.155 1672.595 C 975.837 1673.017, 976.039 1672.872, 975.648 1672.240 C 975.285 1671.652, 975.553 1670.943, 976.244 1670.664 C 977.035 1670.346, 976.883 1670.129, 975.833 1670.079 C 974.917 1670.036, 973.940 1670.563, 973.662 1671.250 C 973.361 1671.997, 973.126 1671.795, 973.079 1670.750 C 972.986 1668.684, 977.532 1668.252, 978.338 1670.250 C 978.732 1671.227, 978.859 1671.219, 978.921 1670.215 C 978.974 1669.352, 979.576 1669.198, 980.750 1669.746 C 981.712 1670.194, 983.738 1670.502, 985.250 1670.430 C 986.763 1670.357, 988 1670.667, 988 1671.118 C 988 1671.568, 988.675 1671.678, 989.500 1671.362 C 990.325 1671.045, 991 1669.982, 991 1668.999 C 991 1667.385, 992.612 1667.141, 1007.750 1666.466 C 1026.550 1665.628, 1062.348 1666.422, 1077.500 1668.014 C 1083 1668.592, 1094.638 1670.214, 1103.363 1671.619 C 1114.022 1673.336, 1119.557 1673.843, 1120.234 1673.166 C 1120.911 1672.489, 1122.432 1672.753, 1124.871 1673.972 C 1126.867 1674.970, 1129.850 1676.065, 1131.500 1676.404 C 1135.233 1677.173, 1132.877 1675.703, 1103 1658.627 C 1076.923 1643.723, 1066.447 1637.525, 1036 1618.993 C 1023.075 1611.126, 1009.552 1603.002, 1005.950 1600.940 C 999.073 1597.005, 976.309 1583.167, 969.490 1578.778 C 967.296 1577.365, 946.600 1564.637, 923.500 1550.494 C 900.400 1536.352, 878.125 1522.630, 874 1520.003 C 869.875 1517.376, 857.950 1509.930, 847.500 1503.458 C 808.235 1479.139, 748.900 1441.910, 732.500 1431.304 C 655.629 1381.589, 611.382 1352.047, 569 1322.140 C 561.575 1316.901, 552.575 1310.621, 549 1308.184 C 545.425 1305.748, 541.712 1303.065, 540.750 1302.222 C 539.084 1300.763, 539 1321.682, 539 1739.778 M 1143.079 1304.583 C 1143.127 1305.748, 1143.364 1305.985, 1143.683 1305.188 C 1143.972 1304.466, 1143.936 1303.603, 1143.604 1303.271 C 1143.272 1302.939, 1143.036 1303.529, 1143.079 1304.583 M 1143.333 1318.456 C 1143.333 1319.257, 1143.708 1319.680, 1144.167 1319.397 C 1144.625 1319.114, 1145 1318.459, 1145 1317.941 C 1145 1317.423, 1144.625 1317, 1144.167 1317 C 1143.708 1317, 1143.333 1317.655, 1143.333 1318.456 M 1130.079 1320.583 C 1130.127 1321.748, 1130.364 1321.985, 1130.683 1321.188 C 1130.972 1320.466, 1130.936 1319.603, 1130.604 1319.271 C 1130.272 1318.939, 1130.036 1319.529, 1130.079 1320.583 M 1148.564 1327.707 C 1148.022 1329.132, 1148.136 1329.247, 1149.124 1328.267 C 1149.808 1327.588, 1150.115 1326.781, 1149.807 1326.474 C 1149.499 1326.166, 1148.940 1326.721, 1148.564 1327.707 M 1152.787 1337.141 C 1152.507 1337.888, 1152.586 1339.367, 1152.964 1340.427 C 1153.601 1342.216, 1153.699 1342.227, 1154.327 1340.591 C 1154.699 1339.621, 1154.620 1338.143, 1154.151 1337.305 C 1153.462 1336.074, 1153.200 1336.043, 1152.787 1337.141 M 1174.502 1371.011 C 1175.065 1373.936, 1175.792 1374.608, 1177.040 1373.360 C 1177.716 1372.684, 1177.393 1371.761, 1176.057 1370.552 C 1174.123 1368.801, 1174.079 1368.814, 1174.502 1371.011 M 1184.603 1395.833 C 1184.320 1396.292, 1184.723 1396.667, 1185.500 1396.667 C 1186.277 1396.667, 1186.680 1396.292, 1186.397 1395.833 C 1186.114 1395.375, 1185.710 1395, 1185.500 1395 C 1185.290 1395, 1184.886 1395.375, 1184.603 1395.833 M 1187.564 1400.293 C 1187.940 1401.279, 1188.499 1401.834, 1188.807 1401.526 C 1189.115 1401.219, 1188.808 1400.412, 1188.124 1399.733 C 1187.136 1398.753, 1187.022 1398.868, 1187.564 1400.293 M 1198 1406.941 C 1198 1407.459, 1198.445 1408.157, 1198.989 1408.493 C 1199.555 1408.843, 1199.723 1408.442, 1199.382 1407.552 C 1198.717 1405.820, 1198 1405.503, 1198 1406.941 M 1254.813 1406.683 C 1255.534 1406.972, 1256.397 1406.936, 1256.729 1406.604 C 1257.061 1406.272, 1256.471 1406.036, 1255.417 1406.079 C 1254.252 1406.127, 1254.015 1406.364, 1254.813 1406.683 M 1262.813 1407.683 C 1263.534 1407.972, 1264.397 1407.936, 1264.729 1407.604 C 1265.061 1407.272, 1264.471 1407.036, 1263.417 1407.079 C 1262.252 1407.127, 1262.015 1407.364, 1262.813 1407.683 M 1197 1410 C 1197 1410.550, 1197.477 1411, 1198.059 1411 C 1198.641 1411, 1198.840 1410.550, 1198.500 1410 C 1198.160 1409.450, 1197.684 1409, 1197.441 1409 C 1197.198 1409, 1197 1409.450, 1197 1410 M 1196.499 1415.002 C 1196.113 1415.626, 1195.168 1415.895, 1194.399 1415.600 C 1193.629 1415.304, 1193 1415.461, 1193 1415.948 C 1193 1417.500, 1195.432 1417.710, 1196.860 1416.283 C 1197.618 1415.525, 1198.005 1414.671, 1197.719 1414.386 C 1197.434 1414.100, 1196.885 1414.378, 1196.499 1415.002 M 1217 1418.500 C 1213.734 1420.367, 1214.877 1420.388, 1219.135 1418.539 C 1220.986 1417.736, 1221.825 1417.077, 1221 1417.075 C 1220.175 1417.073, 1218.375 1417.714, 1217 1418.500 M 1197.015 1420.691 C 1197.036 1423.189, 1198.995 1425.885, 1199.641 1424.306 C 1199.909 1423.650, 1200.775 1423.360, 1201.565 1423.663 C 1202.354 1423.966, 1203 1423.716, 1203 1423.107 C 1203 1421.998, 1201.680 1421.601, 1199.150 1421.948 C 1198.407 1422.050, 1198.077 1421.685, 1198.416 1421.136 C 1198.755 1420.587, 1198.575 1419.856, 1198.016 1419.510 C 1197.457 1419.165, 1197.007 1419.696, 1197.015 1420.691 M 2318 1487.500 L 2318 1519 2250 1519 L 2182 1519 2182 1536 L 2182 1553 2250.102 1553 L 2318.205 1553 2317.622 1664.500 L 2317.039 1776 2346.019 1776 C 2361.959 1776, 2374.947 1775.662, 2374.882 1775.250 C 2374.816 1774.838, 2374.816 1724.662, 2374.882 1663.750 L 2375 1553 2439 1553 L 2503 1553 2503 1536 L 2503 1519 2439 1519 L 2375 1519 2375 1487.500 L 2375 1456 2346.500 1456 L 2318 1456 2318 1487.500 M 2646 1487.500 L 2646 1519 2583.500 1519 L 2521 1519 2521 1536 L 2521 1553 2573.250 1553.144 C 2601.988 1553.222, 2630 1553.417, 2635.500 1553.576 L 2645.500 1553.865 2645.754 1664.933 L 2646.009 1776 2674.358 1776 L 2702.707 1776 2703.313 1768.750 C 2703.647 1764.763, 2703.826 1714.865, 2703.710 1657.866 L 2703.500 1554.232 2709.397 1553.616 C 2712.640 1553.277, 2741.552 1553, 2773.647 1553 L 2832 1553 2832 1536 L 2832 1519 2767.750 1519.002 L 2703.500 1519.004 2703.479 1513.252 C 2703.468 1510.088, 2703.355 1495.912, 2703.229 1481.750 L 2703 1456 2674.500 1456 L 2646 1456 2646 1487.500 M 3081.959 1458.765 L 3053.419 1459.030 3045.050 1479.765 C 3032.631 1510.538, 3013.988 1553.967, 3003.954 1575.500 C 2994.824 1595.093, 2971.930 1640.807, 2968.146 1647 C 2966.970 1648.925, 2966.006 1650.838, 2966.004 1651.250 C 2966.002 1651.662, 2969.262 1651.994, 2973.250 1651.986 C 2979.849 1651.973, 2981.397 1651.539, 2990.500 1647.151 C 3013.522 1636.055, 3031.563 1620.463, 3044.479 1600.500 C 3056.130 1582.492, 3075.674 1541.707, 3097.911 1489 C 3104.060 1474.425, 3109.551 1461.669, 3110.115 1460.653 C 3110.678 1459.637, 3110.995 1458.737, 3110.819 1458.653 C 3110.644 1458.569, 3097.657 1458.619, 3081.959 1458.765 M 3397.058 1463.202 C 3393.105 1476.394, 3367.965 1537.287, 3353.791 1568 C 3344.387 1588.377, 3319.671 1638.026, 3314.816 1646.294 C 3313.267 1648.931, 3312 1651.293, 3312 1651.544 C 3312 1651.795, 3315.713 1651.994, 3320.250 1651.986 C 3328.057 1651.972, 3329.045 1651.709, 3338.654 1647.088 C 3362.354 1635.691, 3377.084 1622.170, 3392.679 1597.500 C 3402.929 1581.285, 3423.896 1536.209, 3445.706 1483.500 C 3450.940 1470.850, 3455.424 1460.162, 3455.670 1459.750 C 3455.916 1459.338, 3443.113 1459, 3427.217 1459 L 3398.317 1459 3397.058 1463.202 M 3699.813 1508.683 C 3700.534 1508.972, 3701.397 1508.936, 3701.729 1508.604 C 3702.061 1508.272, 3701.471 1508.036, 3700.417 1508.079 C 3699.252 1508.127, 3699.015 1508.364, 3699.813 1508.683 M 3693.750 1509.662 C 3694.438 1509.940, 3695.563 1509.940, 3696.250 1509.662 C 3696.938 1509.385, 3696.375 1509.158, 3695 1509.158 C 3693.625 1509.158, 3693.063 1509.385, 3693.750 1509.662 M 3493.494 1512.009 C 3493.152 1512.564, 3493.154 1514.026, 3493.501 1515.259 C 3493.995 1517.015, 3493.904 1517.176, 3493.081 1516 C 3492.310 1514.899, 3492.027 1514.848, 3492.015 1515.809 C 3492.007 1516.529, 3491.597 1516.869, 3491.105 1516.565 C 3489.959 1515.857, 3488.782 1518.838, 3489.651 1520.245 C 3490.039 1520.872, 3489.835 1521.016, 3489.155 1520.595 C 3488.520 1520.203, 3488 1519.260, 3488 1518.500 C 3488 1517.740, 3487.480 1516.797, 3486.845 1516.405 C 3486.108 1515.948, 3485.963 1516.132, 3486.446 1516.912 C 3486.908 1517.661, 3486.678 1518.062, 3485.850 1517.948 C 3483.423 1517.615, 3482 1517.983, 3482 1518.943 C 3482 1519.461, 3482.861 1519.719, 3483.912 1519.517 C 3484.964 1519.314, 3486.583 1519.986, 3487.509 1521.010 C 3489.119 1522.789, 3489.054 1522.868, 3486.050 1522.782 C 3484.322 1522.733, 3482.394 1523.206, 3481.767 1523.833 C 3480.914 1524.686, 3480.196 1524.582, 3478.913 1523.421 C 3477.718 1522.339, 3476.990 1522.207, 3476.510 1522.983 C 3476.005 1523.801, 3475.462 1523.799, 3474.471 1522.976 C 3473.349 1522.045, 3473.319 1522.277, 3474.293 1524.342 C 3474.939 1525.710, 3475.781 1526.635, 3476.165 1526.398 C 3476.548 1526.161, 3477.187 1526.494, 3477.585 1527.138 C 3478.021 1527.843, 3477.877 1528.042, 3477.224 1527.638 C 3476.627 1527.269, 3475.856 1527.425, 3475.510 1527.984 C 3475.165 1528.543, 3475.434 1529, 3476.108 1529 C 3476.782 1529, 3477.072 1529.261, 3476.753 1529.580 C 3475.885 1530.448, 3470.930 1526.923, 3471.568 1525.891 C 3471.870 1525.401, 3471.668 1525, 3471.118 1525 C 3470.568 1525, 3469.826 1525.472, 3469.470 1526.049 C 3469.034 1526.753, 3468.304 1526.671, 3467.242 1525.799 C 3465.846 1524.650, 3465.735 1524.866, 3466.289 1527.663 C 3466.939 1530.949, 3464.881 1534.235, 3463.536 1532.059 C 3463.136 1531.411, 3462.104 1531.757, 3460.796 1532.976 C 3459.642 1534.051, 3458.412 1534.754, 3458.063 1534.539 C 3457.714 1534.323, 3457.343 1535.014, 3457.238 1536.073 C 3456.812 1540.384, 3456.625 1540.886, 3455.663 1540.292 C 3455.072 1539.926, 3454.914 1540.334, 3455.279 1541.285 C 3455.735 1542.472, 3455.472 1542.735, 3454.285 1542.279 C 3453.245 1541.880, 3452.917 1542.057, 3453.363 1542.778 C 3453.803 1543.490, 3453.353 1543.760, 3452.123 1543.524 C 3450.870 1543.282, 3450.019 1543.820, 3449.695 1545.059 C 3449.283 1546.635, 3449.509 1546.798, 3450.998 1546.001 C 3452.345 1545.280, 3452.955 1545.439, 3453.411 1546.630 C 3453.847 1547.764, 3453.588 1548.056, 3452.511 1547.643 C 3450.577 1546.900, 3450.596 1547.453, 3452.571 1549.429 C 3453.436 1550.293, 3453.661 1551, 3453.071 1551 C 3452.482 1551, 3452 1551.450, 3452 1552 C 3452 1552.550, 3453.238 1553.007, 3454.750 1553.015 C 3457.346 1553.030, 3461.637 1554.872, 3459.500 1555.055 C 3458.950 1555.102, 3459.400 1555.541, 3460.500 1556.029 C 3461.759 1556.589, 3457.221 1556.841, 3448.248 1556.709 C 3440.410 1556.594, 3433.997 1556.838, 3433.998 1557.250 C 3433.999 1557.662, 3480.303 1558, 3536.895 1558 C 3637.408 1558, 3639.941 1557.953, 3646.349 1555.974 C 3649.958 1554.859, 3653.605 1553.252, 3654.455 1552.402 C 3655.305 1551.552, 3656.014 1551.227, 3656.032 1551.679 C 3656.049 1552.130, 3656.612 1551.780, 3657.282 1550.901 C 3658.440 1549.380, 3659.038 1549.046, 3660.750 1548.964 C 3661.162 1548.944, 3662.850 1547.770, 3664.500 1546.354 C 3666.150 1544.939, 3666.868 1544.124, 3666.095 1544.545 C 3665.164 1545.052, 3664.931 1544.921, 3665.405 1544.155 C 3665.797 1543.520, 3666.907 1543, 3667.872 1543 C 3669.677 1543, 3673.884 1539.038, 3675.836 1535.500 C 3676.549 1534.207, 3676.950 1534.008, 3676.970 1534.937 C 3676.990 1535.888, 3677.989 1535.426, 3679.925 1533.572 C 3681.533 1532.031, 3682.627 1530.193, 3682.356 1529.486 C 3682.085 1528.780, 3682.352 1527.901, 3682.948 1527.532 C 3683.545 1527.163, 3683.726 1526.366, 3683.352 1525.761 C 3682.925 1525.070, 3683.246 1524.880, 3684.214 1525.252 C 3685.062 1525.577, 3686.261 1525.339, 3686.878 1524.722 C 3687.495 1524.105, 3688 1523.970, 3688 1524.422 C 3688 1524.875, 3688.663 1524.695, 3689.474 1524.022 C 3690.772 1522.944, 3690.772 1522.460, 3689.474 1519.949 C 3687.830 1516.771, 3687.492 1514.667, 3689 1517 C 3689.533 1517.825, 3689.976 1517.989, 3689.985 1517.365 C 3689.993 1516.741, 3688.901 1515.510, 3687.557 1514.629 C 3685.346 1513.180, 3684.967 1513.176, 3683.557 1514.586 C 3682.701 1515.442, 3682 1515.691, 3682 1515.139 C 3682 1514.587, 3681.041 1513.830, 3679.868 1513.458 C 3678.191 1512.926, 3678.031 1512.593, 3679.118 1511.901 C 3679.920 1511.391, 3643.158 1511.025, 3591.580 1511.030 C 3528.221 1511.036, 3502.277 1511.355, 3501.330 1512.141 C 3500.358 1512.948, 3500 1512.943, 3500 1512.122 C 3500 1510.727, 3494.348 1510.628, 3493.494 1512.009 M 3469.638 1517.500 C 3469.955 1518.325, 3470.671 1519, 3471.229 1519 C 3471.815 1519, 3471.718 1518.365, 3471 1517.500 C 3470.315 1516.675, 3469.599 1516, 3469.409 1516 C 3469.219 1516, 3469.322 1516.675, 3469.638 1517.500 M 3465.632 1517.786 C 3465.365 1518.218, 3465.981 1518.571, 3467 1518.571 C 3468.019 1518.571, 3468.635 1518.218, 3468.368 1517.786 C 3468.100 1517.354, 3467.485 1517, 3467 1517 C 3466.515 1517, 3465.900 1517.354, 3465.632 1517.786 M 3102.305 1520.750 C 3101.957 1521.713, 3098.597 1529.207, 3094.837 1537.405 C 3091.076 1545.602, 3088.001 1552.577, 3088.002 1552.905 C 3088.004 1553.232, 3136.266 1553.500, 3195.252 1553.500 L 3302.500 1553.500 3302.774 1536.250 L 3303.047 1519 3202.992 1519 C 3108.609 1519, 3102.901 1519.099, 3102.305 1520.750 M 3475.459 1520.067 C 3475.096 1520.653, 3475.070 1521.403, 3475.400 1521.733 C 3475.730 1522.063, 3476 1521.782, 3476 1521.108 C 3476 1520.434, 3476.520 1520.203, 3477.155 1520.595 C 3477.870 1521.038, 3478.038 1520.870, 3477.595 1520.155 C 3476.711 1518.724, 3476.299 1518.707, 3475.459 1520.067 M 3687.756 1521.664 C 3688.447 1521.943, 3688.715 1522.652, 3688.352 1523.240 C 3687.958 1523.877, 3688.164 1524.017, 3688.862 1523.585 C 3690.239 1522.735, 3689.412 1520.965, 3687.691 1521.079 C 3686.839 1521.135, 3686.857 1521.302, 3687.756 1521.664 M 3462.876 1522.923 C 3463.978 1523.605, 3463.985 1523.838, 3462.912 1524.196 C 3462.120 1524.460, 3461.995 1524.879, 3462.599 1525.252 C 3463.149 1525.592, 3464.086 1525.091, 3464.681 1524.139 C 3465.573 1522.711, 3465.392 1522.380, 3463.644 1522.248 C 3462.132 1522.134, 3461.912 1522.327, 3462.876 1522.923 M 3460.079 1524.583 C 3460.127 1525.748, 3460.364 1525.985, 3460.683 1525.188 C 3460.972 1524.466, 3460.936 1523.603, 3460.604 1523.271 C 3460.272 1522.939, 3460.036 1523.529, 3460.079 1524.583 M 3473 1525.941 C 3473 1526.459, 3473.445 1527.157, 3473.989 1527.493 C 3474.555 1527.843, 3474.723 1527.442, 3474.382 1526.552 C 3473.717 1524.820, 3473 1524.503, 3473 1525.941 M 3467 1528.029 C 3467 1528.498, 3467.450 1529.160, 3468 1529.500 C 3468.550 1529.840, 3469 1529.615, 3469 1529 C 3469 1528.385, 3469.563 1528.206, 3470.250 1528.601 C 3470.938 1528.997, 3471.149 1528.935, 3470.721 1528.465 C 3469.654 1527.292, 3467 1526.981, 3467 1528.029 M 3479.500 1530 C 3479.840 1530.550, 3480.316 1531, 3480.559 1531 C 3480.802 1531, 3481 1530.550, 3481 1530 C 3481 1529.450, 3480.523 1529, 3479.941 1529 C 3479.359 1529, 3479.160 1529.450, 3479.500 1530 M 3453.167 1534.484 C 3454.725 1536.147, 3454.709 1536.396, 3452.917 1538.320 C 3450.477 1540.938, 3450.441 1542.366, 3452.852 1540.860 C 3456.544 1538.555, 3456.932 1536.620, 3454.112 1534.587 C 3451.840 1532.950, 3451.717 1532.937, 3453.167 1534.484 M 3129.787 1574.235 C 3134.134 1581.443, 3167.601 1637.950, 3171.304 1644.333 C 3173.485 1648.091, 3175.776 1651.361, 3176.396 1651.599 C 3177.017 1651.837, 3190.452 1651.912, 3206.253 1651.766 L 3234.982 1651.500 3226.126 1636 C 3221.256 1627.475, 3210.947 1609.475, 3203.217 1596 L 3189.164 1571.500 3158.492 1571.235 L 3127.819 1570.971 3129.787 1574.235 M 3490.440 1587.250 C 3495.969 1596.912, 3518.321 1636.311, 3523.912 1646.250 L 3527.147 1652 3557.073 1652 C 3573.533 1652, 3587 1651.784, 3587 1651.519 C 3587 1651.254, 3581.680 1641.692, 3575.178 1630.269 C 3558.855 1601.594, 3549.573 1585.089, 3547.610 1581.250 L 3545.949 1578 3515.547 1578 L 3485.146 1578 3490.440 1587.250 M 1305.750 1580.080 C 1304.787 1580.641, 1304 1581.752, 1304 1582.550 C 1304 1583.347, 1303.523 1584, 1302.941 1584 C 1302.359 1584, 1302.188 1583.505, 1302.562 1582.900 C 1303.039 1582.127, 1302.611 1582.138, 1301.121 1582.935 C 1299.954 1583.560, 1299 1584.306, 1299 1584.594 C 1299 1584.882, 1299.520 1584.797, 1300.155 1584.405 C 1300.876 1583.959, 1301.037 1584.131, 1300.585 1584.862 C 1300.187 1585.506, 1299.444 1585.774, 1298.933 1585.459 C 1297.854 1584.792, 1286.931 1591.080, 1287.518 1592.030 C 1287.735 1592.380, 1287.355 1592.667, 1286.675 1592.667 C 1285.145 1592.667, 1280 1595.967, 1280 1596.948 C 1280 1597.343, 1279.424 1597.667, 1278.720 1597.667 C 1277.528 1597.667, 1222.868 1630.201, 1223.313 1630.646 C 1223.425 1630.758, 1228.462 1629.767, 1234.508 1628.444 C 1262.576 1622.301, 1282.273 1619.979, 1312 1619.310 C 1329.669 1618.913, 1339.809 1619.193, 1352.868 1620.440 C 1362.420 1621.352, 1370.482 1621.851, 1370.784 1621.549 C 1371.086 1621.247, 1369.657 1621, 1367.608 1621 C 1365.559 1621, 1364.134 1620.593, 1364.441 1620.095 C 1364.759 1619.581, 1363.274 1619.422, 1361 1619.727 C 1358.197 1620.103, 1357 1619.893, 1357 1619.025 C 1357 1618.343, 1356.400 1618.016, 1355.667 1618.298 C 1354.933 1618.579, 1354.333 1618.239, 1354.333 1617.542 C 1354.333 1616.769, 1355.110 1616.477, 1356.323 1616.795 C 1357.835 1617.190, 1358.109 1616.977, 1357.464 1615.908 C 1356.742 1614.708, 1356.866 1614.703, 1358.308 1615.872 C 1359.775 1617.063, 1360 1617.013, 1360 1615.500 C 1360 1613.994, 1360.239 1613.939, 1361.750 1615.097 C 1362.857 1615.946, 1362.712 1615.532, 1361.357 1613.970 C 1359.714 1612.076, 1359.419 1610.964, 1360.094 1609.199 C 1360.613 1607.842, 1360.604 1607.127, 1360.072 1607.456 C 1358.412 1608.481, 1358.326 1605.559, 1359.970 1604.020 C 1360.864 1603.184, 1361.123 1602.795, 1360.547 1603.155 C 1357.940 1604.786, 1355.544 1604.475, 1355.496 1602.500 C 1355.439 1600.148, 1353.077 1595.747, 1353.030 1597.905 C 1353.006 1599.024, 1352.627 1598.972, 1351.169 1597.653 C 1350.162 1596.741, 1349.037 1596.222, 1348.669 1596.498 C 1348.301 1596.774, 1348.263 1596.662, 1348.583 1596.250 C 1348.904 1595.838, 1349.692 1595.500, 1350.333 1595.499 C 1350.975 1595.499, 1351.516 1594.149, 1351.536 1592.499 C 1351.557 1590.850, 1351.964 1588.868, 1352.441 1588.095 C 1353.036 1587.132, 1352.943 1586.917, 1352.146 1587.410 C 1350.364 1588.511, 1346.775 1587.028, 1347.384 1585.442 C 1347.675 1584.684, 1347.413 1583.755, 1346.802 1583.378 C 1346.129 1582.962, 1345.972 1583.146, 1346.405 1583.845 C 1346.797 1584.480, 1346.656 1585, 1346.090 1585 C 1345.525 1585, 1345.322 1585.675, 1345.638 1586.500 C 1346.017 1587.486, 1345.606 1588, 1344.440 1588 C 1343.465 1588, 1342.940 1587.727, 1343.273 1587.393 C 1343.607 1587.060, 1343.363 1586.233, 1342.731 1585.557 C 1341.832 1584.595, 1341.074 1584.835, 1339.246 1586.664 C 1336.879 1589.030, 1335.404 1589.774, 1336.457 1588.069 C 1336.774 1587.557, 1336.525 1586.824, 1335.905 1586.441 C 1334.790 1585.752, 1332.795 1587.859, 1333.493 1588.988 C 1333.691 1589.309, 1332.986 1589.571, 1331.927 1589.571 C 1329.521 1589.571, 1329.405 1588.313, 1331.750 1587.656 C 1332.713 1587.386, 1332.375 1587.252, 1331 1587.358 C 1329.625 1587.464, 1327.969 1587.884, 1327.319 1588.292 C 1326.670 1588.699, 1325.917 1588.675, 1325.647 1588.238 C 1325.377 1587.800, 1322.457 1587.467, 1319.158 1587.497 C 1315.859 1587.526, 1313.375 1587.202, 1313.639 1586.775 C 1313.902 1586.349, 1313.486 1586, 1312.714 1586 C 1311.942 1586, 1310.495 1585.100, 1309.500 1584 C 1308.505 1582.900, 1306.972 1581.993, 1306.095 1581.985 C 1304.738 1581.972, 1304.717 1581.832, 1305.952 1581.051 C 1306.751 1580.545, 1307.833 1580.397, 1308.357 1580.720 C 1308.881 1581.044, 1308.988 1580.789, 1308.595 1580.155 C 1307.755 1578.794, 1307.949 1578.799, 1305.750 1580.080 M 1307.564 1584.293 C 1307.940 1585.279, 1308.499 1585.834, 1308.807 1585.526 C 1309.115 1585.219, 1308.808 1584.412, 1308.124 1583.733 C 1307.136 1582.753, 1307.022 1582.868, 1307.564 1584.293 M 1351.459 1584.067 C 1351.096 1584.653, 1351.014 1585.348, 1351.276 1585.610 C 1351.538 1585.872, 1352.019 1585.392, 1352.345 1584.543 C 1353.021 1582.781, 1352.445 1582.471, 1351.459 1584.067 M 1337.079 1585.583 C 1337.127 1586.748, 1337.364 1586.985, 1337.683 1586.188 C 1337.972 1585.466, 1337.936 1584.603, 1337.604 1584.271 C 1337.272 1583.939, 1337.036 1584.529, 1337.079 1585.583 M 1354.030 1590.309 C 1354.014 1591.304, 1353.592 1591.866, 1353.093 1591.558 C 1352.595 1591.249, 1352.431 1591.933, 1352.730 1593.076 C 1353.209 1594.906, 1353.450 1594.979, 1354.746 1593.683 C 1355.863 1592.566, 1355.957 1591.764, 1355.139 1590.356 C 1354.115 1588.593, 1354.059 1588.591, 1354.030 1590.309 M 2233 1589.981 C 2233 1595.408, 2225.730 1642.574, 2222.361 1659 C 2214.909 1695.341, 2199.629 1740.943, 2185.514 1768.973 L 2181.975 1776 2188.837 1776 C 2195.187 1776, 2196.394 1775.623, 2204.986 1770.954 C 2217.743 1764.023, 2222.316 1760.770, 2230.838 1752.565 C 2255.914 1728.421, 2270.073 1692.799, 2281.545 1625 C 2283.246 1614.945, 2286 1593.798, 2286 1590.788 C 2286 1589.116, 2284.286 1589, 2259.500 1589 C 2242.838 1589, 2233 1589.364, 2233 1589.981 M 2406 1595.307 C 2406 1603.260, 2409.197 1629.107, 2412.503 1647.879 C 2421.973 1701.648, 2439.522 1739.087, 2464.598 1759.014 C 2477.852 1769.546, 2489.157 1775.156, 2500.036 1776.599 L 2504.887 1777.243 2496.553 1758.354 C 2484.316 1730.620, 2474.597 1703.015, 2469.495 1681.500 C 2464.016 1658.395, 2458.773 1623.136, 2457.362 1599.903 L 2456.699 1589 2431.350 1589 L 2406 1589 2406 1595.307 M 2571.647 1598.976 C 2569.688 1628.860, 2560.321 1676.376, 2549.858 1709.500 C 2545.691 1722.692, 2529.733 1763.567, 2525.359 1772.250 C 2523.109 1776.718, 2523.078 1777, 2524.847 1777 C 2532.680 1777, 2546.838 1771.613, 2556.744 1764.864 C 2579.991 1749.025, 2597.108 1721.681, 2608.414 1682.324 C 2614.509 1661.104, 2621.564 1621.414, 2623.535 1597.250 L 2624.208 1589 2598.254 1589 L 2572.301 1589 2571.647 1598.976 M 2759.750 1589.767 L 2735 1590.035 2735 1595.565 C 2735 1608.199, 2740.319 1645.140, 2745.535 1668.730 C 2748.782 1683.411, 2756.649 1707.322, 2761.966 1718.669 C 2773.816 1743.956, 2795.733 1766.224, 2816.770 1774.350 C 2819.119 1775.258, 2823.486 1776, 2826.474 1776 L 2831.908 1776 2828.005 1767.511 C 2822.902 1756.412, 2812.172 1728.401, 2807.699 1714.500 C 2797.593 1683.089, 2789.712 1641.792, 2786.820 1605.078 C 2786.188 1597.060, 2785.408 1590.275, 2785.086 1590 C 2784.763 1589.725, 2773.363 1589.620, 2759.750 1589.767 M 1347.500 1593 C 1347.160 1593.550, 1347.359 1594, 1347.941 1594 C 1348.523 1594, 1349 1593.550, 1349 1593 C 1349 1592.450, 1348.802 1592, 1348.559 1592 C 1348.316 1592, 1347.840 1592.450, 1347.500 1593 M 1349.564 1600.293 C 1349.940 1601.279, 1350.499 1601.834, 1350.807 1601.526 C 1351.115 1601.219, 1350.808 1600.412, 1350.124 1599.733 C 1349.136 1598.753, 1349.022 1598.868, 1349.564 1600.293 M 1352.469 1600.050 C 1351.551 1601.536, 1352.281 1602.062, 1353.886 1601.071 C 1354.745 1600.539, 1354.848 1600.024, 1354.176 1599.609 C 1353.605 1599.256, 1352.837 1599.455, 1352.469 1600.050 M 1357.446 1600.087 C 1357.077 1600.685, 1357.302 1601.698, 1357.946 1602.337 C 1358.841 1603.224, 1358.946 1603.046, 1358.389 1601.586 C 1357.841 1600.147, 1357.989 1599.875, 1358.985 1600.490 C 1359.866 1601.035, 1360.070 1600.923, 1359.595 1600.155 C 1358.709 1598.719, 1358.299 1598.707, 1357.446 1600.087 M 1354.468 1610.101 C 1354.101 1611.256, 1354.184 1612.582, 1354.651 1613.047 C 1355.118 1613.513, 1355.594 1612.567, 1355.710 1610.947 C 1355.955 1607.497, 1355.412 1607.127, 1354.468 1610.101 M 1373.250 1622.689 C 1374.213 1622.941, 1375.787 1622.941, 1376.750 1622.689 C 1377.713 1622.438, 1376.925 1622.232, 1375 1622.232 C 1373.075 1622.232, 1372.287 1622.438, 1373.250 1622.689 M 1380.813 1623.683 C 1381.534 1623.972, 1382.397 1623.936, 1382.729 1623.604 C 1383.061 1623.272, 1382.471 1623.036, 1381.417 1623.079 C 1380.252 1623.127, 1380.015 1623.364, 1380.813 1623.683 M 1386.813 1624.683 C 1387.534 1624.972, 1388.397 1624.936, 1388.729 1624.604 C 1389.061 1624.272, 1388.471 1624.036, 1387.417 1624.079 C 1386.252 1624.127, 1386.015 1624.364, 1386.813 1624.683 M 988 1668 C 986.718 1668.828, 986.754 1668.972, 988.250 1668.985 C 989.212 1668.993, 990 1668.550, 990 1668 C 990 1666.780, 989.887 1666.780, 988 1668 M 1155.572 1670.015 C 1152.862 1671.555, 1150.539 1673.534, 1150.410 1674.412 C 1150.281 1675.291, 1150.593 1675.751, 1151.104 1675.436 C 1151.615 1675.120, 1151.803 1674.490, 1151.522 1674.036 C 1150.887 1673.008, 1153.847 1671.787, 1155.097 1672.560 C 1155.602 1672.872, 1156.265 1672.473, 1156.572 1671.674 C 1156.895 1670.832, 1157.920 1670.428, 1159.010 1670.713 C 1160.440 1671.087, 1160.853 1670.701, 1160.733 1669.102 C 1160.646 1667.946, 1160.558 1667.048, 1160.537 1667.107 C 1160.517 1667.166, 1158.282 1668.475, 1155.572 1670.015 M 982.269 1668.693 C 983.242 1668.947, 984.592 1668.930, 985.269 1668.656 C 985.946 1668.382, 985.150 1668.175, 983.500 1668.195 C 981.850 1668.215, 981.296 1668.439, 982.269 1668.693 M 969 1670.941 C 969 1671.459, 969.445 1672.157, 969.989 1672.493 C 970.555 1672.843, 970.723 1672.442, 970.382 1671.552 C 969.717 1669.820, 969 1669.503, 969 1670.941 M 957 1671.906 C 957 1672.405, 957.907 1672.576, 959.015 1672.286 C 960.588 1671.875, 960.888 1672.127, 960.386 1673.437 C 960.032 1674.360, 959.162 1674.892, 958.454 1674.621 C 957.745 1674.349, 956.908 1674.796, 956.594 1675.615 C 956.272 1676.455, 956.454 1676.838, 957.011 1676.493 C 957.555 1676.157, 958 1676.445, 958 1677.132 C 958 1677.840, 958.683 1677.540, 959.574 1676.441 C 960.440 1675.374, 960.866 1675.059, 960.520 1675.742 C 960.174 1676.425, 960.295 1677.705, 960.788 1678.586 C 961.416 1679.708, 961.672 1678.812, 961.643 1675.594 C 961.606 1671.479, 961.362 1671, 959.301 1671 C 958.035 1671, 957 1671.408, 957 1671.906 M 1168.813 1671.683 C 1169.534 1671.972, 1170.397 1671.936, 1170.729 1671.604 C 1171.061 1671.272, 1170.471 1671.036, 1169.417 1671.079 C 1168.252 1671.127, 1168.015 1671.364, 1168.813 1671.683 M 1163.813 1672.683 C 1164.534 1672.972, 1165.397 1672.936, 1165.729 1672.604 C 1166.061 1672.272, 1165.471 1672.036, 1164.417 1672.079 C 1163.252 1672.127, 1163.015 1672.364, 1163.813 1672.683 M 1121.813 1674.683 C 1122.534 1674.972, 1123.397 1674.936, 1123.729 1674.604 C 1124.061 1674.272, 1123.471 1674.036, 1122.417 1674.079 C 1121.252 1674.127, 1121.015 1674.364, 1121.813 1674.683 M 971.415 1676.138 C 970.963 1676.869, 971.124 1677.041, 971.845 1676.595 C 972.507 1676.187, 973 1676.477, 973 1677.274 C 973 1679.622, 971.770 1680.058, 970.294 1678.234 C 969.041 1676.687, 969.011 1676.749, 970.015 1678.815 C 970.851 1680.536, 971.466 1680.858, 972.412 1680.073 C 973.111 1679.493, 973.950 1679.283, 974.274 1679.608 C 974.599 1679.932, 974.616 1679.246, 974.312 1678.083 C 973.622 1675.446, 972.364 1674.602, 971.415 1676.138 M 1144.458 1676.667 C 1142.613 1678.029, 1142.666 1678.083, 1145.373 1677.600 C 1148.828 1676.984, 1149.544 1676.423, 1147.751 1675.735 C 1147.017 1675.453, 1145.535 1675.873, 1144.458 1676.667 M 972 1686.590 C 972 1687.431, 972.422 1687.857, 972.939 1687.538 C 973.455 1687.219, 974.288 1687.692, 974.790 1688.588 C 975.629 1690.088, 975.754 1690.084, 976.344 1688.546 C 976.709 1687.595, 977.487 1687.183, 978.147 1687.591 C 978.886 1688.048, 979.038 1687.871, 978.565 1687.106 C 977.996 1686.185, 977.491 1686.177, 976.411 1687.074 C 975.558 1687.782, 975 1687.843, 975 1687.229 C 975 1686.671, 974.325 1685.955, 973.500 1685.638 C 972.570 1685.282, 972 1685.643, 972 1686.590 M 3599.915 1690.418 C 3599.686 1690.648, 3578.798 1693.115, 3553.499 1695.902 C 3487.922 1703.123, 3421.559 1707.999, 3273.500 1716.471 C 3231.003 1718.903, 3200.143 1720.544, 3112 1725.058 C 3089.175 1726.227, 3056.550 1727.929, 3039.500 1728.841 L 3008.500 1730.500 3008.224 1745.750 L 3007.948 1761 3015.224 1760.992 C 3019.226 1760.988, 3037.800 1760.117, 3056.500 1759.058 C 3075.200 1757.998, 3096.125 1756.856, 3103 1756.519 C 3109.875 1756.183, 3144.750 1754.355, 3180.500 1752.457 C 3216.250 1750.559, 3246.063 1749.005, 3246.750 1749.003 C 3247.732 1749.001, 3248 1758.665, 3248 1794 L 3248 1839 3243.250 1839.021 C 3240.637 1839.032, 3231.750 1839.480, 3223.500 1840.016 C 3204.575 1841.245, 3065.295 1847.723, 3038.250 1848.631 L 3018 1849.311 3018 1864.655 L 3018 1880 3022.750 1879.996 C 3029.033 1879.992, 3117.314 1875.855, 3214.500 1871.011 C 3226.050 1870.436, 3238.313 1869.735, 3241.750 1869.454 L 3248 1868.944 3248 1919.772 L 3248 1970.599 3220.750 1971.792 C 3195.735 1972.888, 3161.209 1974.506, 3078.500 1978.458 C 3061.450 1979.273, 3030.175 1980.639, 3009 1981.494 C 2987.825 1982.349, 2968.475 1983.158, 2966 1983.291 L 2961.500 1983.534 2961.225 1999.101 L 2960.951 2014.669 2966.225 2014.305 C 2969.126 2014.105, 3014.700 2011.930, 3067.500 2009.473 C 3120.300 2007.015, 3182.175 2004.102, 3205 2002.998 C 3227.825 2001.894, 3246.801 2000.993, 3247.168 2000.995 C 3247.536 2000.998, 3248.032 2020.688, 3248.271 2044.750 C 3248.625 2080.319, 3249.007 2089.774, 3250.314 2095.315 C 3255.724 2118.235, 3271.790 2134.666, 3296.179 2142.222 L 3303.500 2144.490 3479.250 2144.761 L 3655 2145.033 3655 2129.516 C 3655 2120.982, 3655.113 2113.662, 3655.250 2113.250 C 3655.387 2112.838, 3581.250 2112.275, 3490.500 2112 L 3325.500 2111.500 3319.648 2108.538 C 3316.430 2106.909, 3312.118 2103.669, 3310.066 2101.338 C 3303.157 2093.489, 3303 2092.190, 3303 2042.957 L 3303 1999.144 3308.250 1998.573 C 3311.137 1998.260, 3324.750 1997.537, 3338.500 1996.968 C 3352.250 1996.399, 3410.750 1993.689, 3468.500 1990.945 C 3570.551 1986.096, 3631.501 1983.277, 3643.250 1982.861 L 3649 1982.658 3649 1967.079 L 3649.001 1951.500 3632.750 1952.234 C 3623.813 1952.638, 3596.456 1953.873, 3571.957 1954.978 C 3547.458 1956.084, 3505.383 1958.118, 3478.457 1959.498 C 3451.531 1960.877, 3405.650 1963.116, 3376.500 1964.472 C 3347.350 1965.827, 3318.887 1967.219, 3313.250 1967.565 L 3303 1968.192 3303 1917.682 L 3303 1867.171 3310.250 1866.582 C 3314.238 1866.258, 3341.800 1864.866, 3371.500 1863.488 C 3401.200 1862.110, 3458.350 1859.435, 3498.500 1857.542 C 3538.650 1855.649, 3575.212 1853.965, 3579.749 1853.800 L 3587.999 1853.500 3588.001 1838 L 3588.003 1822.500 3582.751 1822.733 C 3568.568 1823.361, 3481.972 1827.516, 3399.500 1831.526 C 3348.900 1833.986, 3306.488 1835.999, 3305.250 1835.999 L 3303 1836 3303 1791.085 L 3303 1746.171 3310.250 1745.594 C 3314.238 1745.276, 3337.975 1743.875, 3363 1742.481 C 3429.934 1738.751, 3511.355 1733.198, 3524.500 1731.467 C 3526.700 1731.177, 3543.125 1729.600, 3561 1727.963 C 3578.875 1726.325, 3595.637 1724.706, 3598.250 1724.364 L 3603 1723.742 3603 1706.871 C 3603 1693.479, 3602.725 1690, 3601.667 1690 C 3600.933 1690, 3600.145 1690.188, 3599.915 1690.418 M 1011.079 1716.583 C 1011.127 1717.748, 1011.364 1717.985, 1011.683 1717.188 C 1011.972 1716.466, 1011.936 1715.603, 1011.604 1715.271 C 1011.272 1714.939, 1011.036 1715.529, 1011.079 1716.583 M 959 1718.059 C 959 1718.641, 959.450 1718.840, 960 1718.500 C 960.550 1718.160, 961 1717.684, 961 1717.441 C 961 1717.198, 960.550 1717, 960 1717 C 959.450 1717, 959 1717.477, 959 1718.059 M 1010.500 1720 C 1010.160 1720.550, 1010.359 1721, 1010.941 1721 C 1011.523 1721, 1012 1720.550, 1012 1720 C 1012 1719.450, 1011.802 1719, 1011.559 1719 C 1011.316 1719, 1010.840 1719.450, 1010.500 1720 M 1011 1727.059 C 1011 1727.641, 1011.450 1727.840, 1012 1727.500 C 1012.550 1727.160, 1013 1726.684, 1013 1726.441 C 1013 1726.198, 1012.550 1726, 1012 1726 C 1011.450 1726, 1011 1726.477, 1011 1727.059 M 984.083 1729.365 C 984.313 1729.565, 985.625 1730.265, 987 1730.920 C 989.357 1732.042, 989.389 1732.022, 987.559 1730.555 C 985.966 1729.279, 982.711 1728.164, 984.083 1729.365 M 993.464 1733.942 C 993.757 1734.415, 995.363 1735.279, 997.032 1735.861 C 998.702 1736.444, 999.829 1736.532, 999.536 1736.058 C 999.243 1735.585, 997.637 1734.721, 995.968 1734.139 C 994.298 1733.556, 993.171 1733.468, 993.464 1733.942 M 1002 1735.393 C 1002 1735.609, 1002.675 1736.045, 1003.500 1736.362 C 1004.325 1736.678, 1005 1736.501, 1005 1735.969 C 1005 1735.436, 1004.325 1735, 1003.500 1735 C 1002.675 1735, 1002 1735.177, 1002 1735.393 M 1020.603 1740.833 C 1020.320 1741.292, 1020.723 1741.667, 1021.500 1741.667 C 1022.277 1741.667, 1022.680 1741.292, 1022.397 1740.833 C 1022.114 1740.375, 1021.710 1740, 1021.500 1740 C 1021.290 1740, 1020.886 1740.375, 1020.603 1740.833 M 1009 1741.444 C 1009 1741.728, 1010.913 1742.889, 1013.250 1744.025 C 1015.587 1745.160, 1016.786 1745.507, 1015.912 1744.795 C 1015.039 1744.083, 1014.511 1742.825, 1014.738 1742 C 1015.072 1740.790, 1014.969 1740.761, 1014.203 1741.853 C 1013.464 1742.908, 1012.785 1742.955, 1011.127 1742.068 C 1009.957 1741.442, 1009 1741.161, 1009 1741.444 M 1028.733 1745.124 C 1029.412 1745.808, 1030.219 1746.115, 1030.526 1745.807 C 1030.834 1745.499, 1030.279 1744.940, 1029.293 1744.564 C 1027.868 1744.022, 1027.753 1744.136, 1028.733 1745.124 M 1034.250 1744.662 C 1032.586 1745.334, 1032.649 1747, 1034.339 1747 C 1036.441 1747, 1038.324 1751.905, 1036.887 1753.636 C 1036.242 1754.413, 1035.901 1755.234, 1036.128 1755.462 C 1036.356 1755.689, 1039.007 1753.589, 1042.021 1750.795 C 1046.855 1746.314, 1047.396 1744.816, 1042.734 1748.821 C 1041.142 1750.189, 1040.815 1750.150, 1039.410 1748.419 C 1038.553 1747.364, 1038.137 1747.063, 1038.485 1747.750 C 1038.833 1748.438, 1038.690 1749, 1038.166 1749 C 1037.175 1749, 1035.565 1746.056, 1035.841 1744.750 C 1035.929 1744.338, 1035.888 1744.036, 1035.750 1744.079 C 1035.612 1744.122, 1034.938 1744.385, 1034.250 1744.662 M 1018 1746.449 C 1018 1746.724, 1019.350 1747.647, 1021 1748.500 C 1022.650 1749.353, 1024 1749.826, 1024 1749.551 C 1024 1749.276, 1022.650 1748.353, 1021 1747.500 C 1019.350 1746.647, 1018 1746.174, 1018 1746.449 M 1028 1748 C 1028 1748.550, 1028.423 1749, 1028.941 1749 C 1029.459 1749, 1030.160 1748.550, 1030.500 1748 C 1030.840 1747.450, 1030.416 1747, 1029.559 1747 C 1028.702 1747, 1028 1747.450, 1028 1748 M 1026.500 1751.518 C 1027.600 1752.414, 1029.400 1753.588, 1030.500 1754.128 L 1032.500 1755.110 1030.500 1753.482 C 1029.400 1752.586, 1027.600 1751.412, 1026.500 1750.872 L 1024.500 1749.890 1026.500 1751.518 M 1038.500 1751 C 1038.840 1751.550, 1039.316 1752, 1039.559 1752 C 1039.802 1752, 1040 1751.550, 1040 1751 C 1040 1750.450, 1039.523 1750, 1038.941 1750 C 1038.359 1750, 1038.160 1750.450, 1038.500 1751 M 2366.289 1811.289 C 2356.500 1825.846, 2337.443 1849.906, 2322.559 1866.500 C 2305.241 1885.807, 2279.382 1911.542, 2224.372 1964.217 L 2216.244 1972 2226.997 1972 C 2236.957 1972, 2238.402 1971.740, 2246.624 1968.472 C 2268.040 1959.961, 2296.460 1944.501, 2315.500 1931.005 C 2334.363 1917.636, 2361.889 1894.359, 2372.702 1882.634 L 2377.903 1876.994 2540.824 1877.247 L 2703.744 1877.500 2697.599 1888.500 C 2675.536 1927.995, 2640.733 1967.658, 2598.465 2001.478 C 2566.618 2026.959, 2540.746 2043.498, 2504 2061.864 C 2434.130 2096.787, 2350.477 2121.204, 2251.860 2135.459 C 2232.273 2138.291, 2191.781 2143, 2187.023 2143 C 2186.403 2143, 2186 2146.482, 2186 2151.842 L 2186 2160.683 2205.661 2161.342 C 2247.787 2162.752, 2272.913 2161.931, 2310.500 2157.913 C 2351.585 2153.521, 2372.173 2149.593, 2423.500 2136.353 C 2451.205 2129.206, 2494.784 2113.888, 2523.773 2101.108 C 2565.360 2082.772, 2611.839 2054.733, 2648 2026.163 C 2697.254 1987.250, 2740.966 1934.939, 2766.060 1884.880 L 2772 1873.031 2772 1858.068 L 2772 1843.104 2589.808 1843.027 C 2489.602 1842.984, 2407.474 1842.807, 2407.300 1842.634 C 2407.127 1842.460, 2409.166 1839.434, 2411.832 1835.909 C 2417.611 1828.269, 2433.913 1805.641, 2436.443 1801.750 L 2438.230 1799 2406.365 1799.039 L 2374.500 1799.079 2366.289 1811.289 M 1537.079 1832.583 C 1537.127 1833.748, 1537.364 1833.985, 1537.683 1833.188 C 1537.972 1832.466, 1537.936 1831.603, 1537.604 1831.271 C 1537.272 1830.939, 1537.036 1831.529, 1537.079 1832.583 M 1536.919 1953.500 C 1536.599 2018.950, 1536.679 2072.895, 1537.097 2073.378 C 1537.917 2074.326, 1559.957 2066.132, 1588 2054.454 C 1617.259 2042.270, 1630.058 2036.396, 1629.260 2035.517 C 1628.842 2035.056, 1629.032 2034.984, 1629.681 2035.356 C 1631.245 2036.252, 1638.088 2032.952, 1637.303 2031.681 C 1636.966 2031.136, 1637.170 2030.987, 1637.755 2031.349 C 1639.162 2032.218, 1642.143 2031.041, 1641.435 2029.895 C 1641.131 2029.403, 1642.060 2029, 1643.500 2029 C 1644.940 2029, 1645.866 2028.592, 1645.558 2028.093 C 1645.249 2027.595, 1645.892 2027.421, 1646.986 2027.707 C 1648.247 2028.036, 1649.202 2027.638, 1649.593 2026.619 C 1649.932 2025.735, 1650.579 2025.240, 1651.030 2025.518 C 1652.335 2026.325, 1657.004 2023.816, 1656.305 2022.684 C 1655.917 2022.057, 1656.337 2021.915, 1657.388 2022.319 C 1658.544 2022.762, 1658.870 2022.599, 1658.388 2021.819 C 1657.905 2021.038, 1658.231 2020.875, 1659.388 2021.319 C 1660.544 2021.762, 1660.870 2021.599, 1660.388 2020.819 C 1659.905 2020.038, 1660.231 2019.875, 1661.388 2020.319 C 1662.332 2020.681, 1662.858 2020.579, 1662.558 2020.093 C 1662.257 2019.607, 1662.707 2018.943, 1663.558 2018.616 C 1664.541 2018.239, 1664.852 2018.430, 1664.413 2019.141 C 1663.993 2019.821, 1664.267 2020.061, 1665.111 2019.755 C 1665.875 2019.477, 1666.376 2018.710, 1666.225 2018.050 C 1666.049 2017.283, 1666.651 2017.072, 1667.891 2017.465 C 1668.958 2017.804, 1670.073 2017.690, 1670.369 2017.212 C 1670.664 2016.734, 1669.385 2016.394, 1667.525 2016.455 C 1665.666 2016.517, 1664.165 2016.327, 1664.191 2016.034 C 1664.216 2015.740, 1664.177 2014.600, 1664.103 2013.500 C 1663.992 2011.832, 1663.808 2011.749, 1663 2013 C 1662.296 2014.090, 1662.026 2014.142, 1662.015 2013.191 C 1662.007 2012.471, 1661.539 2012.167, 1660.975 2012.515 C 1660.412 2012.864, 1660.074 2012.553, 1660.225 2011.824 C 1660.376 2011.096, 1659.904 2010.624, 1659.176 2010.775 C 1658.436 2010.928, 1658.150 2010.567, 1658.527 2009.957 C 1658.898 2009.355, 1659.855 2009.114, 1660.653 2009.420 C 1661.463 2009.731, 1661.834 2009.541, 1661.493 2008.989 C 1661.157 2008.445, 1661.385 2008, 1662 2008 C 1662.615 2008, 1662.852 2007.570, 1662.527 2007.044 C 1662.202 2006.518, 1661.202 2006.369, 1660.304 2006.714 C 1659.118 2007.169, 1658.898 2006.974, 1659.500 2006 C 1660.100 2005.029, 1659.884 2004.831, 1658.715 2005.279 C 1657.528 2005.735, 1657.265 2005.472, 1657.721 2004.285 C 1658.152 2003.161, 1657.960 2002.907, 1657.086 2003.447 C 1656.187 2004.002, 1655.933 2003.553, 1656.190 2001.861 C 1656.386 2000.562, 1657.133 1999.624, 1657.848 1999.775 C 1658.563 1999.926, 1658.850 1999.567, 1658.485 1998.976 C 1658.019 1998.223, 1657.405 1998.249, 1656.421 1999.066 C 1655.304 1999.992, 1654.828 1999.749, 1654.073 1997.864 C 1653.418 1996.227, 1653.107 1996.020, 1653.063 1997.191 C 1653.029 1998.121, 1653.450 1999.160, 1654 1999.500 C 1654.550 1999.840, 1655 2000.541, 1655 2001.059 C 1655 2001.577, 1654.171 2001.213, 1653.159 2000.250 C 1652.146 1999.287, 1651.497 1998.162, 1651.718 1997.750 C 1651.938 1997.338, 1651.677 1997, 1651.138 1997 C 1650.600 1997, 1649.834 1998.463, 1649.438 2000.250 C 1648.869 2002.813, 1648.580 2003.114, 1648.069 2001.676 C 1647.713 2000.673, 1647.102 1999.885, 1646.711 1999.926 C 1644.851 2000.120, 1644.809 1999.868, 1646.410 1998.099 C 1647.703 1996.671, 1647.827 1996.011, 1646.911 1995.445 C 1646.175 1994.990, 1645.949 1995.108, 1646.340 1995.741 C 1647.194 1997.123, 1644.752 1998.009, 1642.043 1997.301 C 1640.418 1996.876, 1639.967 1996.099, 1640.196 1994.119 C 1640.363 1992.679, 1640.969 1991.581, 1641.542 1991.681 C 1642.116 1991.780, 1642.650 1990.993, 1642.730 1989.931 C 1642.859 1988.226, 1641.957 1987.574, 1639.853 1987.847 C 1639.496 1987.894, 1639.383 1987.160, 1639.600 1986.216 C 1640.179 1983.697, 1637.608 1980.931, 1634.347 1980.563 C 1632.286 1980.331, 1631.587 1979.767, 1631.817 1978.521 C 1632.029 1977.367, 1631.726 1977.051, 1630.897 1977.564 C 1630.006 1978.114, 1629.858 1977.793, 1630.368 1976.414 C 1630.846 1975.120, 1630.270 1975.421, 1628.592 1977.342 C 1626.219 1980.058, 1623.983 1980.228, 1624.015 1977.691 C 1624.026 1976.847, 1624.269 1976.876, 1624.849 1977.789 C 1625.377 1978.623, 1625.667 1978.017, 1625.667 1976.076 C 1625.667 1973.456, 1625.510 1973.288, 1624.437 1974.755 C 1623.384 1976.196, 1623.247 1975.969, 1623.486 1973.170 C 1623.756 1969.988, 1623.713 1969.949, 1621.808 1971.674 C 1620.732 1972.647, 1619.939 1973.007, 1620.044 1972.472 C 1620.150 1971.937, 1620.127 1971.162, 1619.993 1970.750 C 1619.860 1970.338, 1619.694 1969.025, 1619.625 1967.833 C 1619.556 1966.642, 1618.894 1965.465, 1618.153 1965.218 C 1617.095 1964.865, 1617.038 1965.202, 1617.885 1966.784 C 1618.739 1968.381, 1618.632 1968.927, 1617.370 1969.411 C 1616.247 1969.842, 1615.945 1969.587, 1616.345 1968.543 C 1616.657 1967.730, 1616.543 1966.835, 1616.090 1966.556 C 1615.638 1966.276, 1615.486 1964.909, 1615.752 1963.518 C 1616.261 1960.856, 1614.397 1957.637, 1612.887 1958.570 C 1612.399 1958.871, 1612 1958.641, 1612 1958.059 C 1612 1957.477, 1611.325 1957, 1610.500 1957 C 1608.645 1957, 1608.560 1958.390, 1610.324 1959.854 C 1611.293 1960.658, 1611.978 1960.624, 1612.883 1959.726 C 1613.861 1958.756, 1613.986 1958.849, 1613.482 1960.173 C 1613.132 1961.093, 1612.182 1962.100, 1611.371 1962.411 C 1610.560 1962.722, 1610.134 1962.592, 1610.424 1962.122 C 1610.715 1961.652, 1610.074 1960.472, 1609 1959.500 C 1607.926 1958.528, 1607.300 1957.323, 1607.610 1956.823 C 1608.419 1955.512, 1606.087 1953.029, 1604.587 1953.605 C 1603.890 1953.872, 1602.686 1953.309, 1601.910 1952.354 C 1600.999 1951.231, 1600.942 1950.882, 1601.750 1951.367 C 1602.550 1951.848, 1603 1951.519, 1603 1950.452 C 1603 1949.382, 1602.463 1948.992, 1601.500 1949.362 C 1599.676 1950.062, 1599.548 1948.887, 1601.250 1947.053 C 1602.250 1945.976, 1602.250 1945.848, 1601.250 1946.412 C 1600.466 1946.855, 1599.936 1946.443, 1599.829 1945.309 C 1599.541 1942.264, 1599.222 1940.595, 1598.487 1938.279 C 1598.099 1937.057, 1597.943 1935.900, 1598.141 1935.707 C 1598.701 1935.161, 1595.702 1932.465, 1593.686 1931.701 C 1592.688 1931.323, 1591.953 1930.223, 1592.051 1929.257 C 1592.465 1925.200, 1591.996 1924.116, 1589.995 1924.501 C 1588.263 1924.834, 1588.137 1924.612, 1589.071 1922.868 C 1590.066 1921.009, 1589.977 1920.942, 1587.955 1922.024 C 1586.469 1922.819, 1585.978 1922.844, 1586.438 1922.100 C 1586.817 1921.487, 1586.454 1921, 1585.618 1921 C 1584.793 1921, 1583.797 1920.480, 1583.405 1919.845 C 1582.990 1919.175, 1583.128 1918.961, 1583.732 1919.334 C 1584.305 1919.688, 1585.387 1919.224, 1586.137 1918.302 C 1587.327 1916.838, 1587.278 1916.709, 1585.750 1917.281 C 1584.694 1917.677, 1583.970 1917.454, 1583.923 1916.719 C 1583.881 1916.048, 1583.630 1914.600, 1583.365 1913.500 C 1583.100 1912.400, 1582.834 1910.938, 1582.775 1910.250 C 1582.715 1909.563, 1582.317 1909, 1581.889 1909 C 1581.461 1909, 1581.328 1910.800, 1581.593 1913 C 1581.867 1915.270, 1581.652 1917, 1581.097 1917 C 1580.018 1917, 1578.565 1915.064, 1578.470 1913.500 C 1578.436 1912.950, 1577.834 1912.624, 1577.130 1912.775 C 1576.427 1912.926, 1576.150 1912.567, 1576.515 1911.976 C 1576.975 1911.231, 1577.561 1911.221, 1578.431 1911.943 C 1580.126 1913.350, 1581.269 1912.029, 1579.843 1910.311 C 1578.963 1909.250, 1579.136 1908.590, 1580.602 1907.414 C 1582.402 1905.969, 1582.383 1905.946, 1580.250 1906.980 C 1578.351 1907.900, 1577.998 1907.792, 1577.985 1906.285 C 1577.972 1904.748, 1577.820 1904.709, 1576.898 1906 C 1576.017 1907.234, 1575.904 1907.140, 1576.262 1905.470 C 1576.501 1904.354, 1576.110 1902.892, 1575.391 1902.220 C 1573.660 1900.604, 1572.938 1900.675, 1573.600 1902.399 C 1573.895 1903.168, 1573.645 1904.102, 1573.043 1904.473 C 1572.442 1904.845, 1572.074 1904.590, 1572.225 1903.906 C 1572.376 1903.223, 1571.448 1902.115, 1570.162 1901.445 C 1568.733 1900.701, 1568.246 1899.966, 1568.912 1899.555 C 1569.510 1899.185, 1569.993 1898.346, 1569.985 1897.691 C 1569.975 1896.975, 1569.582 1897.099, 1569 1898 C 1568.165 1899.293, 1568.029 1899.266, 1568.015 1897.809 C 1568.007 1896.879, 1567.480 1895.797, 1566.845 1895.405 C 1566.200 1895.005, 1565.960 1895.126, 1566.302 1895.679 C 1566.637 1896.222, 1566.255 1896.667, 1565.452 1896.667 C 1564.244 1896.667, 1564.278 1896.350, 1565.651 1894.833 C 1567.220 1893.099, 1567.166 1893, 1564.655 1893 C 1562.599 1893, 1562 1892.512, 1562 1890.833 C 1562 1889.642, 1561.707 1888.960, 1561.349 1889.318 C 1560.138 1890.529, 1558.074 1886.616, 1559.205 1885.253 C 1559.928 1884.382, 1559.910 1883.596, 1559.146 1882.676 C 1558.542 1881.948, 1558.236 1880.373, 1558.466 1879.176 C 1558.752 1877.690, 1558.389 1877, 1557.320 1877 C 1556.124 1877, 1556.018 1877.317, 1556.869 1878.342 C 1557.481 1879.080, 1557.697 1879.969, 1557.349 1880.318 C 1557 1880.666, 1557.293 1881.648, 1558 1882.500 C 1560.170 1885.114, 1558.619 1885.017, 1556.081 1882.380 C 1554.766 1881.014, 1554.098 1880.033, 1554.595 1880.198 C 1556.403 1880.801, 1556.225 1878.473, 1554.388 1877.473 C 1552.251 1876.311, 1551.649 1874.707, 1551.873 1870.776 C 1551.992 1868.678, 1551.667 1868.191, 1550.456 1868.655 C 1549.592 1868.987, 1549.094 1869.803, 1549.350 1870.470 C 1550.085 1872.384, 1548.503 1874.130, 1546.670 1873.427 C 1545.752 1873.074, 1545 1872.329, 1545 1871.771 C 1545 1871.132, 1545.498 1871.169, 1546.342 1871.869 C 1548.013 1873.255, 1549.345 1872.121, 1547.979 1870.475 C 1547.285 1869.638, 1547.442 1868.878, 1548.488 1868.010 C 1549.319 1867.320, 1549.986 1866.248, 1549.970 1865.628 C 1549.953 1865.007, 1549.475 1865.297, 1548.908 1866.271 C 1548.341 1867.245, 1547.444 1867.774, 1546.914 1867.447 C 1546.384 1867.119, 1546.074 1867.391, 1546.225 1868.051 C 1546.376 1868.710, 1545.923 1869.461, 1545.219 1869.719 C 1544.514 1869.977, 1544.005 1869.808, 1544.087 1869.344 C 1544.483 1867.112, 1543.836 1866, 1542.142 1866 C 1540.536 1866, 1540.302 1865.243, 1540.425 1860.425 C 1540.576 1854.478, 1539.139 1851.625, 1538.796 1857.191 C 1538.684 1859.011, 1538.346 1854.650, 1538.046 1847.500 C 1537.746 1840.350, 1537.238 1888.050, 1536.919 1953.500 M 1541 1862.378 C 1541 1862.585, 1541.685 1863.324, 1542.523 1864.019 C 1543.796 1865.076, 1543.943 1865.014, 1543.416 1863.641 C 1542.878 1862.240, 1541 1861.257, 1541 1862.378 M 1554 1872.979 C 1552.679 1873.815, 1552.694 1874.122, 1554.132 1875.560 C 1555.238 1876.666, 1555.982 1876.839, 1556.441 1876.096 C 1556.829 1875.467, 1556.401 1875, 1555.437 1875 C 1554.055 1875, 1553.977 1874.732, 1555 1873.500 C 1556.429 1871.778, 1556.138 1871.627, 1554 1872.979 M 1579.500 1915 C 1579.840 1915.550, 1580.316 1916, 1580.559 1916 C 1580.802 1916, 1581 1915.550, 1581 1915 C 1581 1914.450, 1580.523 1914, 1579.941 1914 C 1579.359 1914, 1579.160 1914.450, 1579.500 1915 M 1593 1930.059 C 1593 1930.641, 1593.450 1930.840, 1594 1930.500 C 1594.550 1930.160, 1595 1929.684, 1595 1929.441 C 1595 1929.198, 1594.550 1929, 1594 1929 C 1593.450 1929, 1593 1929.477, 1593 1930.059 M 1421.158 1937 C 1421.158 1938.375, 1421.385 1938.938, 1421.662 1938.250 C 1421.940 1937.563, 1421.940 1936.438, 1421.662 1935.750 C 1421.385 1935.063, 1421.158 1935.625, 1421.158 1937 M 1595.500 1937 C 1595.160 1937.550, 1595.359 1938, 1595.941 1938 C 1596.523 1938, 1597 1937.550, 1597 1937 C 1597 1936.450, 1596.802 1936, 1596.559 1936 C 1596.316 1936, 1595.840 1936.450, 1595.500 1937 M 1596.603 1939.833 C 1596.320 1940.292, 1596.723 1940.667, 1597.500 1940.667 C 1598.277 1940.667, 1598.680 1940.292, 1598.397 1939.833 C 1598.114 1939.375, 1597.710 1939, 1597.500 1939 C 1597.290 1939, 1596.886 1939.375, 1596.603 1939.833 M 2378.534 1945.769 C 2381.853 1948.921, 2394.228 1960.489, 2406.034 1971.476 C 2417.840 1982.463, 2438.334 2002.156, 2451.574 2015.240 L 2475.649 2039.027 2509.074 2038.764 L 2542.500 2038.500 2524 2019.964 C 2513.825 2009.769, 2490.650 1987.620, 2472.500 1970.744 L 2439.500 1940.060 2406 1940.049 L 2372.500 1940.038 2378.534 1945.769 M 1421.225 2028.750 C 1421.101 2074.537, 1421.308 2112, 1421.684 2112 C 1423.866 2112, 1433.887 2108.626, 1433.511 2108.018 C 1433.263 2107.617, 1434.239 2107.514, 1435.679 2107.789 C 1437.119 2108.065, 1438.050 2107.887, 1437.747 2107.395 C 1437.444 2106.903, 1438.390 2106.453, 1439.848 2106.396 C 1444.207 2106.224, 1472.926 2096.690, 1472.272 2095.631 C 1471.925 2095.070, 1472.374 2094.930, 1473.336 2095.299 C 1475.465 2096.116, 1478.179 2095.099, 1477.369 2093.788 C 1476.992 2093.178, 1477.526 2093.032, 1478.734 2093.416 C 1481.018 2094.140, 1484.228 2093.178, 1483.493 2091.988 C 1483.220 2091.547, 1483.898 2091.422, 1484.999 2091.710 C 1486.099 2091.998, 1487 2091.745, 1487 2091.148 C 1487 2090.547, 1487.742 2090.347, 1488.664 2090.701 C 1489.847 2091.155, 1490.100 2090.971, 1489.539 2090.063 C 1488.962 2089.130, 1489.285 2088.956, 1490.734 2089.416 C 1493.228 2090.207, 1496.200 2089.133, 1495.345 2087.749 C 1494.933 2087.083, 1495.567 2086.926, 1497.109 2087.313 C 1498.433 2087.645, 1500.188 2087.456, 1501.008 2086.893 C 1502.139 2086.117, 1501.896 2086.017, 1500 2086.482 C 1497.878 2087.003, 1497.767 2086.928, 1499.270 2085.987 C 1500.244 2085.377, 1502.044 2085.133, 1503.270 2085.444 L 1505.500 2086.011 1503.250 2084.852 C 1502.013 2084.216, 1501 2083.258, 1501 2082.725 C 1501 2082.115, 1501.464 2082.126, 1502.250 2082.755 C 1502.938 2083.305, 1504.625 2084.065, 1506 2084.443 C 1508.008 2084.996, 1508.205 2084.905, 1507 2083.985 C 1505.801 2083.068, 1506.103 2082.947, 1508.500 2083.379 C 1510.150 2083.677, 1510.935 2083.675, 1510.244 2083.375 C 1509.553 2083.075, 1509.227 2082.441, 1509.520 2081.967 C 1510.084 2081.055, 1506.687 2081.457, 1504.996 2082.502 C 1503.300 2083.551, 1503.901 2081.800, 1505.750 2080.308 C 1507.370 2079.001, 1507.339 2078.940, 1505.334 2079.489 C 1502.948 2080.142, 1501.278 2078.564, 1503.138 2077.415 C 1503.865 2076.965, 1504.041 2077.124, 1503.603 2077.834 C 1503.141 2078.580, 1503.450 2078.765, 1504.491 2078.365 C 1505.368 2078.028, 1505.837 2077.504, 1505.533 2077.200 C 1504.545 2076.211, 1498.534 2076.253, 1497.256 2077.257 C 1496.307 2078.003, 1496.099 2077.485, 1496.379 2075.077 C 1496.582 2073.341, 1497.085 2071.600, 1497.498 2071.210 C 1497.911 2070.819, 1497.919 2071.569, 1497.517 2072.875 C 1497.047 2074.403, 1497.150 2075.025, 1497.807 2074.619 C 1498.369 2074.272, 1499.019 2074.328, 1499.251 2074.744 C 1499.483 2075.160, 1499.541 2074.952, 1499.380 2074.282 C 1499.219 2073.612, 1499.555 2072.775, 1500.127 2072.422 C 1500.707 2072.063, 1499.783 2070.938, 1498.034 2069.874 C 1496.185 2068.750, 1495.190 2067.502, 1495.605 2066.830 C 1496.038 2066.130, 1495.864 2065.966, 1495.155 2066.405 C 1494.520 2066.797, 1494 2066.593, 1494 2065.952 C 1494 2065.311, 1493.330 2065.043, 1492.512 2065.357 C 1491.694 2065.671, 1491.072 2065.607, 1491.130 2065.214 C 1491.470 2062.939, 1490.860 2060.969, 1489.984 2061.510 C 1489.425 2061.856, 1489.223 2062.552, 1489.536 2063.058 C 1489.848 2063.563, 1489.380 2063.699, 1488.494 2063.360 C 1487.609 2063.020, 1487.086 2062.219, 1487.331 2061.579 C 1487.577 2060.939, 1487.265 2059.760, 1486.639 2058.958 C 1485.244 2057.172, 1481 2056.585, 1481 2058.178 C 1481 2058.814, 1480.764 2059.098, 1480.476 2058.810 C 1479.574 2057.907, 1481.158 2054.980, 1482.201 2055.624 C 1482.758 2055.969, 1483.035 2055.419, 1482.832 2054.368 C 1482.635 2053.341, 1481.817 2052.500, 1481.016 2052.500 C 1480.215 2052.500, 1479.056 2051.490, 1478.440 2050.256 C 1477.825 2049.022, 1477.024 2048.309, 1476.661 2048.673 C 1476.297 2049.036, 1476 2048.572, 1476 2047.642 C 1476 2046.165, 1471.652 2043.451, 1469.853 2043.804 C 1469.496 2043.874, 1469.423 2042.935, 1469.689 2041.716 C 1470.080 2039.930, 1469.966 2039.791, 1469.102 2041 C 1468.209 2042.250, 1468.028 2042.135, 1468.015 2040.309 C 1468.007 2039.104, 1467.480 2037.797, 1466.845 2037.405 C 1466.156 2036.979, 1465.961 2037.129, 1466.362 2037.776 C 1466.731 2038.373, 1466.574 2039.145, 1466.014 2039.491 C 1465.454 2039.837, 1464.548 2038.941, 1464 2037.500 C 1463.452 2036.059, 1462.554 2035.157, 1462.005 2035.497 C 1461.342 2035.907, 1461.343 2035.171, 1462.009 2033.307 C 1462.945 2030.688, 1462.911 2030.630, 1461.506 2032.441 C 1460.038 2034.334, 1460 2034.325, 1460 2032.098 C 1460 2030.654, 1459.264 2029.620, 1458 2029.290 C 1456.900 2029.002, 1456 2028.144, 1456 2027.383 C 1456 2026.623, 1455.541 2026, 1454.980 2026 C 1454.420 2026, 1454.167 2024.866, 1454.418 2023.480 C 1454.681 2022.030, 1454.470 2021.210, 1453.921 2021.549 C 1453.397 2021.873, 1453.160 2022.450, 1453.395 2022.830 C 1453.630 2023.211, 1453.188 2024.391, 1452.411 2025.452 C 1451.635 2026.514, 1451 2026.936, 1451 2026.391 C 1451 2025.846, 1451.487 2024.913, 1452.083 2024.317 C 1452.860 2023.540, 1452.706 2022.848, 1451.535 2021.867 C 1450.638 2021.115, 1448.800 2019.467, 1447.452 2018.205 C 1445.909 2016.761, 1444.975 2016.390, 1444.932 2017.205 C 1444.895 2017.917, 1444.417 2017.578, 1443.869 2016.451 C 1442.587 2013.812, 1438.764 2011.222, 1439.682 2013.615 C 1440.017 2014.487, 1438.680 2013.541, 1436.710 2011.513 C 1434.688 2009.431, 1433.365 2007.211, 1433.672 2006.413 C 1433.970 2005.636, 1433.716 2005, 1433.107 2005 C 1432.498 2005, 1432 2004.373, 1432 2003.607 C 1432 2002.841, 1431.325 2001.955, 1430.500 2001.638 C 1429.675 2001.322, 1429 2001.499, 1429 2002.031 C 1429 2002.564, 1429.525 2003, 1430.167 2003 C 1430.808 2003, 1431.036 2003.297, 1430.673 2003.661 C 1430.310 2004.024, 1429.185 2003.573, 1428.175 2002.658 C 1427.164 2001.744, 1425.976 2001.334, 1425.533 2001.748 C 1425.091 2002.162, 1425.285 2001.433, 1425.964 2000.129 C 1426.644 1998.825, 1426.759 1998.031, 1426.222 1998.363 C 1424.911 1999.173, 1423.644 1993.524, 1423.944 1988.215 C 1424.077 1985.858, 1423.705 1983.349, 1423.117 1982.641 C 1422.472 1981.864, 1421.929 1974.233, 1421.749 1963.426 C 1421.585 1953.567, 1421.349 1982.963, 1421.225 2028.750 M 459.667 1972.515 C 452.059 1976.632, 445.679 1980, 445.488 1980 C 444.707 1980, 410.847 2000.748, 402.500 2006.341 C 362.994 2032.814, 330.832 2062.248, 314.158 2087.193 C 295.054 2115.774, 288.805 2144.521, 296.456 2168.639 C 304.071 2192.643, 327.716 2216.150, 360.547 2232.355 C 411.310 2257.411, 468.998 2270.847, 558.500 2278.460 C 613.832 2283.167, 707.740 2283.385, 778.500 2278.971 C 924.096 2269.889, 1105.169 2235.044, 1257.500 2186.794 C 1274.644 2181.364, 1318.837 2166.291, 1335.891 2160.058 C 1341.920 2157.855, 1345.698 2155.993, 1344.891 2155.624 C 1344.126 2155.274, 1344.850 2155.229, 1346.500 2155.524 C 1348.487 2155.880, 1349.040 2155.754, 1348.137 2155.151 C 1346.986 2154.384, 1346.986 2154.147, 1348.137 2153.630 C 1348.887 2153.294, 1348.600 2153.232, 1347.500 2153.494 C 1260.846 2174.091, 1149.845 2195.104, 1062.500 2207.446 C 996.026 2216.839, 933.570 2223.999, 883.500 2227.965 C 730.330 2240.099, 592.618 2235.856, 494.361 2215.975 C 418.303 2200.586, 366.930 2173.271, 349.046 2138.711 C 335.875 2113.258, 341.443 2081.834, 364.412 2052 C 384.856 2025.445, 422.862 1994.771, 464.750 1971.020 C 472.601 1966.568, 475.047 1964.936, 473.750 1965.015 C 473.613 1965.024, 467.275 1968.399, 459.667 1972.515 M 1617.500 1971 C 1617.160 1971.550, 1617.359 1972, 1617.941 1972 C 1618.523 1972, 1619 1971.550, 1619 1971 C 1619 1970.450, 1618.802 1970, 1618.559 1970 C 1618.316 1970, 1617.840 1970.450, 1617.500 1971 M 1647.751 1993.038 C 1649.757 1994.993, 1650.291 1994.922, 1649.481 1992.810 C 1649.169 1991.998, 1648.259 1991.333, 1647.458 1991.333 C 1646.297 1991.333, 1646.357 1991.680, 1647.751 1993.038 M 1701 2001 C 1700.099 2001.582, 1699.975 2001.975, 1700.691 2001.985 C 1701.346 2001.993, 1702.160 2001.550, 1702.500 2001 C 1703.267 1999.758, 1702.921 1999.758, 1701 2001 M 1697 2003 C 1696.099 2003.582, 1695.975 2003.975, 1696.691 2003.985 C 1697.346 2003.993, 1698.160 2003.550, 1698.500 2003 C 1699.267 2001.758, 1698.921 2001.758, 1697 2003 M 1693 2005 C 1692.099 2005.582, 1691.975 2005.975, 1692.691 2005.985 C 1693.346 2005.993, 1694.160 2005.550, 1694.500 2005 C 1695.267 2003.758, 1694.921 2003.758, 1693 2005 M 1437.009 2006.489 C 1436.329 2007.308, 1435.305 2007.688, 1434.732 2007.334 C 1434.122 2006.958, 1433.991 2007.176, 1434.415 2007.862 C 1434.813 2008.506, 1435.506 2008.805, 1435.955 2008.528 C 1436.405 2008.250, 1437.018 2008.963, 1437.319 2010.112 C 1437.845 2012.121, 1440 2011.937, 1440 2009.882 C 1440 2009.332, 1439.597 2009.131, 1439.105 2009.435 C 1437.729 2010.285, 1437.008 2007.392, 1438.278 2006.122 C 1438.895 2005.505, 1439.140 2005, 1438.822 2005 C 1438.505 2005, 1437.689 2005.670, 1437.009 2006.489 M 1685 2009 C 1684.099 2009.582, 1683.975 2009.975, 1684.691 2009.985 C 1685.346 2009.993, 1686.160 2009.550, 1686.500 2009 C 1687.267 2007.758, 1686.921 2007.758, 1685 2009 M 1432 2010.041 C 1432 2010.603, 1432.672 2011.321, 1433.494 2011.636 C 1434.316 2011.952, 1434.697 2012.682, 1434.340 2013.259 C 1433.961 2013.872, 1434.171 2014.012, 1434.845 2013.595 C 1436.329 2012.679, 1436.347 2012.742, 1434 2010.732 C 1432.900 2009.790, 1432 2009.479, 1432 2010.041 M 1681 2011 C 1680.099 2011.582, 1679.975 2011.975, 1680.691 2011.985 C 1681.346 2011.993, 1682.160 2011.550, 1682.500 2011 C 1683.267 2009.758, 1682.921 2009.758, 1681 2011 M 1677 2013 C 1676.099 2013.582, 1675.975 2013.975, 1676.691 2013.985 C 1677.346 2013.993, 1678.160 2013.550, 1678.500 2013 C 1679.267 2011.758, 1678.921 2011.758, 1677 2013 M 1661 2017 C 1660.099 2017.582, 1659.975 2017.975, 1660.691 2017.985 C 1661.346 2017.993, 1662.160 2017.550, 1662.500 2017 C 1663.267 2015.758, 1662.921 2015.758, 1661 2017 M 1482.079 2059.583 C 1482.127 2060.748, 1482.364 2060.985, 1482.683 2060.188 C 1482.972 2059.466, 1482.936 2058.603, 1482.604 2058.271 C 1482.272 2057.939, 1482.036 2058.529, 1482.079 2059.583 M 1485 2060 C 1485 2060.550, 1485.477 2061, 1486.059 2061 C 1486.641 2061, 1486.840 2060.550, 1486.500 2060 C 1486.160 2059.450, 1485.684 2059, 1485.441 2059 C 1485.198 2059, 1485 2059.450, 1485 2060 M 1517.500 2080.464 C 1513.638 2082.232, 1515.434 2082.258, 1520 2080.500 C 1521.925 2079.759, 1522.825 2079.138, 1522 2079.121 C 1521.175 2079.104, 1519.150 2079.708, 1517.500 2080.464 M 1565.595 2130.155 C 1566.047 2130.885, 1565.869 2131.037, 1565.111 2130.569 C 1563.889 2129.813, 1548.757 2134.799, 1548.185 2136.146 C 1548.012 2136.554, 1547.151 2136.611, 1546.271 2136.274 C 1545.123 2135.833, 1544.903 2136.034, 1545.490 2136.985 C 1546.003 2137.814, 1545.920 2138.069, 1545.269 2137.666 C 1543.996 2136.879, 1538 2138.859, 1538 2140.066 C 1538 2140.545, 1537.251 2140.650, 1536.336 2140.299 C 1535.128 2139.835, 1534.896 2140.023, 1535.490 2140.985 C 1536.023 2141.846, 1535.922 2142.070, 1535.200 2141.624 C 1533.783 2140.748, 1528.852 2141.952, 1529.508 2143.013 C 1529.780 2143.453, 1529.032 2143.560, 1527.845 2143.249 C 1526.436 2142.881, 1525.921 2143.063, 1526.360 2143.773 C 1526.730 2144.372, 1526.575 2145.144, 1526.016 2145.490 C 1525.457 2145.835, 1524.993 2145.529, 1524.985 2144.809 C 1524.975 2144.010, 1524.683 2143.889, 1524.235 2144.500 C 1523.831 2145.050, 1523.050 2145.514, 1522.500 2145.531 C 1519.298 2145.630, 1515.067 2147.300, 1515.646 2148.236 C 1516.029 2148.856, 1515.841 2149.020, 1515.200 2148.624 C 1513.783 2147.748, 1508.852 2148.952, 1509.508 2150.013 C 1509.780 2150.453, 1509.102 2150.578, 1508.001 2150.290 C 1506.901 2150.002, 1506 2150.219, 1506 2150.772 C 1506 2151.325, 1505.438 2151.720, 1504.750 2151.648 C 1504.063 2151.577, 1488.200 2156.574, 1469.500 2162.752 C 1450.800 2168.931, 1432.237 2174.933, 1428.250 2176.090 L 1421 2178.195 1421 2193.004 L 1421 2207.813 1424.250 2206.917 C 1426.037 2206.424, 1436.950 2203.728, 1448.500 2200.925 C 1481.801 2192.844, 1525.258 2180.864, 1560.205 2170.131 C 1569.392 2167.309, 1577.181 2165, 1577.514 2165 C 1577.846 2165, 1577.880 2164.615, 1577.589 2164.144 C 1577.298 2163.674, 1578.239 2163.514, 1579.679 2163.789 C 1581.469 2164.132, 1582.076 2163.931, 1581.597 2163.156 C 1581.173 2162.470, 1581.417 2162.223, 1582.216 2162.529 C 1582.942 2162.808, 1586.003 2162.161, 1589.018 2161.091 C 1592.033 2160.021, 1593.686 2159.113, 1592.691 2159.073 C 1591.588 2159.029, 1591.160 2158.550, 1591.595 2157.845 C 1592.038 2157.130, 1591.870 2156.962, 1591.155 2157.405 C 1590.519 2157.797, 1589.932 2157.530, 1589.848 2156.809 C 1589.764 2156.089, 1589.640 2155.050, 1589.571 2154.500 C 1589.503 2153.950, 1589.048 2152.861, 1588.560 2152.080 C 1587.893 2151.013, 1588.078 2150.816, 1589.304 2151.286 C 1590.202 2151.631, 1591.245 2151.413, 1591.622 2150.802 C 1592.038 2150.129, 1591.854 2149.972, 1591.155 2150.405 C 1590.520 2150.797, 1590 2150.673, 1590 2150.129 C 1590 2149.584, 1588.990 2148.995, 1587.755 2148.820 C 1586.358 2148.621, 1584.912 2147.230, 1583.926 2145.135 C 1583.054 2143.285, 1581.477 2141.306, 1580.421 2140.737 C 1578.911 2139.925, 1579.035 2140.322, 1581 2142.595 L 1583.500 2145.486 1581 2143.493 C 1579.625 2142.397, 1578.129 2140.918, 1577.676 2140.206 C 1577.222 2139.495, 1576.048 2139.167, 1575.067 2139.479 C 1572.996 2140.136, 1571.539 2138.604, 1570.636 2134.820 C 1569.959 2131.980, 1567.518 2129, 1565.870 2129 C 1565.326 2129, 1565.203 2129.520, 1565.595 2130.155 M 1567.564 2132.293 C 1567.940 2133.279, 1568.499 2133.834, 1568.807 2133.526 C 1569.115 2133.219, 1568.808 2132.412, 1568.124 2131.733 C 1567.136 2130.753, 1567.022 2130.868, 1567.564 2132.293 M 1585.733 2147.124 C 1586.412 2147.808, 1587.219 2148.115, 1587.526 2147.807 C 1587.834 2147.499, 1587.279 2146.940, 1586.293 2146.564 C 1584.868 2146.022, 1584.753 2146.136, 1585.733 2147.124 M 1527.564 2148.293 C 1527.940 2149.279, 1528.499 2149.834, 1528.807 2149.526 C 1529.115 2149.219, 1528.808 2148.412, 1528.124 2147.733 C 1527.136 2146.753, 1527.022 2146.868, 1527.564 2148.293 M 1358 2150.783 C 1352.125 2152.439, 1351.422 2152.755, 1352.099 2153.432 C 1352.337 2153.670, 1355.674 2152.806, 1359.516 2151.512 C 1367.360 2148.869, 1366.410 2148.413, 1358 2150.783 M 1525.613 2152.183 C 1525.902 2152.650, 1526.557 2152.774, 1527.069 2152.457 C 1528.377 2151.649, 1528.230 2151.333, 1526.544 2151.333 C 1525.743 2151.333, 1525.324 2151.716, 1525.613 2152.183 M 1596 2158 C 1595.175 2158.533, 1594.950 2158.969, 1595.500 2158.969 C 1596.050 2158.969, 1597.175 2158.533, 1598 2158 C 1598.825 2157.467, 1599.050 2157.031, 1598.500 2157.031 C 1597.950 2157.031, 1596.825 2157.467, 1596 2158 M 1719.500 2158 C 1719.840 2158.550, 1720.316 2159, 1720.559 2159 C 1720.802 2159, 1721 2158.550, 1721 2158 C 1721 2157.450, 1720.523 2157, 1719.941 2157 C 1719.359 2157, 1719.160 2157.450, 1719.500 2158 M 1716.497 2160.995 C 1716.835 2161.542, 1718.099 2162.497, 1719.306 2163.118 L 1721.500 2164.247 1719.292 2162.123 C 1716.987 2159.907, 1715.438 2159.282, 1716.497 2160.995 M 1710 2161.969 C 1710 2162.501, 1709.320 2162.676, 1708.489 2162.357 C 1707.412 2161.944, 1707.153 2162.236, 1707.589 2163.370 C 1708.056 2164.588, 1708.642 2164.727, 1710.077 2163.959 C 1711.583 2163.153, 1711.839 2163.255, 1711.371 2164.477 C 1710.787 2165.998, 1709.701 2166.402, 1707.144 2166.050 C 1706.398 2165.948, 1705.972 2166.417, 1706.198 2167.094 C 1706.424 2167.771, 1707.374 2168.438, 1708.309 2168.575 C 1709.244 2168.712, 1709.780 2168.453, 1709.500 2168 C 1709.220 2167.547, 1709.756 2167.288, 1710.691 2167.425 C 1711.626 2167.562, 1712.563 2168.310, 1712.772 2169.087 C 1713.069 2170.192, 1712.921 2170.173, 1712.091 2169 C 1711.372 2167.983, 1711.026 2167.903, 1711.015 2168.750 C 1711.007 2169.438, 1710.325 2170, 1709.500 2170 C 1708.675 2170, 1708 2170.436, 1708 2170.969 C 1708 2171.501, 1707.325 2171.678, 1706.500 2171.362 C 1705.565 2171.003, 1705 2171.369, 1705 2172.334 C 1705 2173.185, 1704.555 2174.157, 1704.011 2174.493 C 1703.445 2174.843, 1703.277 2174.442, 1703.618 2173.552 C 1704.015 2172.519, 1703.637 2172, 1702.490 2172 C 1701.311 2172, 1700.918 2172.579, 1701.246 2173.833 C 1701.532 2174.927, 1701.193 2175.667, 1700.407 2175.667 C 1699.681 2175.667, 1699.320 2175.292, 1699.603 2174.833 C 1699.886 2174.375, 1699.443 2174, 1698.618 2174 C 1697.793 2174, 1696.826 2174.472, 1696.470 2175.049 C 1696.022 2175.774, 1695.414 2175.759, 1694.500 2175 C 1693.533 2174.197, 1692.979 2174.226, 1692.435 2175.106 C 1691.923 2175.934, 1692.129 2176.055, 1693.095 2175.494 C 1693.868 2175.046, 1694.200 2175.014, 1693.833 2175.423 C 1693.467 2175.832, 1692.792 2176.174, 1692.333 2176.182 C 1691.875 2176.190, 1690.644 2176.655, 1689.598 2177.215 C 1688.048 2178.045, 1687.809 2177.940, 1688.305 2176.648 C 1689.035 2174.746, 1687.443 2173.474, 1686.415 2175.138 C 1685.932 2175.919, 1686.127 2176.039, 1687 2175.500 C 1687.885 2174.953, 1688.068 2175.081, 1687.565 2175.894 C 1687.044 2176.739, 1686.449 2176.787, 1685.569 2176.057 C 1684.880 2175.485, 1684.020 2175.313, 1683.658 2175.675 C 1683.296 2176.037, 1683 2175.782, 1683 2175.108 C 1683 2174.434, 1682.588 2174.136, 1682.085 2174.447 C 1681.582 2174.758, 1681.015 2174.545, 1680.825 2173.975 C 1680.412 2172.735, 1674 2174.700, 1674 2176.066 C 1674 2176.545, 1673.251 2176.650, 1672.336 2176.299 C 1671.128 2175.835, 1670.896 2176.023, 1671.490 2176.985 C 1672.013 2177.831, 1671.921 2178.069, 1671.234 2177.645 C 1670.040 2176.906, 1652.695 2182.844, 1652.165 2184.172 C 1651.980 2184.634, 1651.418 2184.758, 1650.915 2184.447 C 1650.412 2184.136, 1650 2184.385, 1650 2185 C 1650 2185.615, 1649.610 2185.877, 1649.134 2185.583 C 1648.657 2185.288, 1637.745 2188.685, 1624.884 2193.131 C 1604.214 2200.277, 1570.164 2211.164, 1545 2218.674 C 1522.711 2225.326, 1428.312 2249.801, 1423.250 2250.241 L 1421 2250.436 1421 2298.718 C 1421 2337.516, 1421.254 2347, 1422.292 2347 C 1424.042 2347, 1455.696 2360.429, 1470.310 2367.371 C 1492.471 2377.898, 1531.481 2397.552, 1541 2402.986 C 1573.693 2421.648, 1616.240 2448.120, 1642.153 2465.921 C 1666.499 2482.645, 1688.533 2498.116, 1699 2505.836 C 1710.956 2514.654, 1721.632 2522.497, 1733.382 2531.094 C 1737.167 2533.863, 1739.979 2535.388, 1739.632 2534.482 C 1739.284 2533.577, 1738.910 2449.286, 1738.801 2347.168 C 1738.691 2245.051, 1738.353 2166.658, 1738.051 2172.962 C 1737.558 2183.214, 1737.367 2184.131, 1736.242 2181.648 C 1735.232 2179.419, 1735.232 2179.021, 1736.242 2179.628 C 1737.219 2180.215, 1737.240 2180.062, 1736.335 2178.942 C 1735.694 2178.149, 1735.078 2177.050, 1734.965 2176.500 C 1734.029 2171.928, 1731.655 2169.131, 1730.415 2171.138 C 1729.932 2171.919, 1730.127 2172.039, 1731 2171.500 C 1731.902 2170.943, 1732.069 2171.080, 1731.536 2171.941 C 1730.335 2173.885, 1727.806 2170.802, 1727.624 2167.171 C 1727.540 2165.503, 1727.116 2163.783, 1726.683 2163.349 C 1726.249 2162.916, 1726.220 2163.409, 1726.617 2164.445 C 1727.108 2165.725, 1726.978 2166.104, 1726.209 2165.629 C 1725.430 2165.148, 1725.169 2166.074, 1725.369 2168.613 L 1725.659 2172.296 1722.483 2168.898 C 1718.469 2164.604, 1713.107 2159.910, 1714.938 2162.292 C 1715.966 2163.630, 1716.023 2164.330, 1715.166 2165.051 C 1714.534 2165.582, 1714.230 2165.721, 1714.490 2165.360 C 1714.751 2164.999, 1714.003 2163.870, 1712.829 2162.852 C 1710.392 2160.738, 1710 2160.616, 1710 2161.969 M 1704 2163.393 C 1704 2163.609, 1704.698 2164.054, 1705.552 2164.382 C 1706.442 2164.723, 1706.843 2164.555, 1706.493 2163.989 C 1705.906 2163.038, 1704 2162.583, 1704 2163.393 M 1722.090 2165.391 C 1720.985 2166.723, 1721.040 2167.078, 1722.431 2167.612 C 1724.535 2168.419, 1724.918 2167.964, 1724.077 2165.653 C 1723.470 2163.983, 1723.280 2163.958, 1722.090 2165.391 M 1699.500 2166 C 1699.840 2166.550, 1700.316 2167, 1700.559 2167 C 1700.802 2167, 1701 2166.550, 1701 2166 C 1701 2165.450, 1700.523 2165, 1699.941 2165 C 1699.359 2165, 1699.160 2165.450, 1699.500 2166 M 1703 2166.017 C 1701.913 2166.707, 1701.860 2166.974, 1702.809 2166.985 C 1703.564 2166.994, 1703.820 2167.529, 1703.412 2168.250 C 1702.872 2169.208, 1703.001 2169.228, 1703.966 2168.338 C 1705.724 2166.714, 1704.925 2164.794, 1703 2166.017 M 1715.700 2166.341 C 1715.417 2167.078, 1715.587 2168.316, 1716.077 2169.091 C 1716.678 2170.039, 1716.974 2170.102, 1716.985 2169.281 C 1716.993 2168.582, 1717.746 2168.295, 1718.750 2168.607 C 1720.385 2169.115, 1720.384 2169.077, 1718.729 2168.014 C 1717.755 2167.389, 1717.219 2166.455, 1717.538 2165.939 C 1717.857 2165.422, 1717.690 2165, 1717.166 2165 C 1716.642 2165, 1715.982 2165.603, 1715.700 2166.341 M 1688 2172.378 C 1688 2172.585, 1688.787 2173.373, 1689.750 2174.128 C 1691.336 2175.371, 1691.371 2175.336, 1690.128 2173.750 C 1688.821 2172.084, 1688 2171.555, 1688 2172.378 M 1736 2186 C 1736 2186.550, 1736.477 2187, 1737.059 2187 C 1737.641 2187, 1737.840 2186.550, 1737.500 2186 C 1737.160 2185.450, 1736.684 2185, 1736.441 2185 C 1736.198 2185, 1736 2185.450, 1736 2186 M 1302 2281.500 L 1302 2323 1342.500 2323 L 1383 2323 1382.779 2300.250 C 1382.606 2282.497, 1382.491 2280.749, 1382.252 2292.292 C 1382.070 2301.070, 1381.568 2306.851, 1381.017 2306.510 C 1380.506 2306.194, 1380.327 2305.311, 1380.621 2304.546 C 1380.914 2303.782, 1380.624 2302.167, 1379.977 2300.957 C 1379.330 2299.748, 1379.228 2299.023, 1379.752 2299.346 C 1381.072 2300.163, 1381.299 2288.917, 1380.029 2285.577 C 1379.236 2283.489, 1379.286 2283.054, 1380.253 2283.635 C 1381.243 2284.230, 1381.247 2284.071, 1380.270 2282.863 C 1379.593 2282.027, 1378.897 2280.410, 1378.723 2279.269 C 1378.549 2278.128, 1377.815 2276.482, 1377.092 2275.610 C 1376.368 2274.739, 1376.057 2273.295, 1376.399 2272.401 C 1376.847 2271.235, 1376.596 2270.941, 1375.511 2271.357 C 1374.680 2271.676, 1373.997 2271.614, 1373.994 2271.219 C 1373.990 2270.823, 1372.640 2269.733, 1370.994 2268.797 C 1369.347 2267.860, 1368 2266.371, 1368 2265.487 C 1368 2264.604, 1367.625 2264.114, 1367.167 2264.397 C 1366.708 2264.680, 1366.333 2264.277, 1366.333 2263.500 C 1366.333 2262.723, 1366.703 2262.317, 1367.155 2262.596 C 1367.607 2262.875, 1367.709 2262.406, 1367.382 2261.552 C 1367.054 2260.698, 1365.961 2260, 1364.952 2260 C 1363.943 2260, 1362.797 2259.480, 1362.405 2258.845 C 1361.927 2258.073, 1362.156 2257.954, 1363.095 2258.486 C 1364.164 2259.091, 1364.140 2258.896, 1362.995 2257.672 C 1362.168 2256.787, 1360.593 2255.923, 1359.495 2255.752 C 1358.398 2255.582, 1356.969 2255.110, 1356.319 2254.705 C 1355.670 2254.299, 1354.856 2254.425, 1354.510 2254.984 C 1353.915 2255.946, 1354.583 2256.382, 1356.250 2256.118 C 1356.662 2256.053, 1357 2256.675, 1357 2257.500 C 1357 2258.325, 1357.436 2259, 1357.969 2259 C 1358.501 2259, 1358.642 2258.213, 1358.281 2257.250 C 1357.699 2255.695, 1357.820 2255.659, 1359.376 2256.925 C 1360.988 2258.237, 1360.996 2258.423, 1359.480 2259.271 C 1358.281 2259.942, 1357.178 2259.576, 1355.421 2257.926 C 1354.094 2256.679, 1353.229 2255.437, 1353.500 2255.166 C 1354.354 2254.313, 1347.933 2250.923, 1346.795 2251.627 C 1346.078 2252.070, 1345.882 2251.399, 1346.216 2249.649 C 1346.836 2246.409, 1346.252 2246.213, 1345.031 2249.250 C 1344.162 2251.413, 1344.124 2251.393, 1344.063 2248.750 C 1344.029 2247.238, 1343.502 2246, 1342.893 2246 C 1342.284 2246, 1342.054 2246.698, 1342.382 2247.552 C 1342.723 2248.442, 1342.555 2248.843, 1341.989 2248.493 C 1341.445 2248.157, 1341 2247.207, 1341 2246.382 C 1341 2245.448, 1340.528 2245.165, 1339.750 2245.633 C 1339.021 2246.071, 1339.126 2245.598, 1340 2244.500 C 1340.825 2243.464, 1340.985 2242.925, 1340.355 2243.302 C 1339.725 2243.680, 1338.960 2243.338, 1338.655 2242.543 C 1338.220 2241.409, 1339.329 2241.019, 1343.800 2240.737 C 1346.935 2240.540, 1338.813 2240.293, 1325.750 2240.189 L 1302 2240 1302 2281.500 M 1375.269 2240.693 C 1376.242 2240.947, 1377.592 2240.930, 1378.269 2240.656 C 1378.946 2240.382, 1378.150 2240.175, 1376.500 2240.195 C 1374.850 2240.215, 1374.296 2240.439, 1375.269 2240.693 M 1314.510 2242.016 C 1314.856 2242.575, 1315.557 2242.774, 1316.069 2242.457 C 1317.456 2241.600, 1317.198 2241, 1315.441 2241 C 1314.584 2241, 1314.165 2241.457, 1314.510 2242.016 M 1320.192 2245.144 C 1321.297 2247.265, 1322.306 2249, 1322.434 2249 C 1323.289 2249, 1322.109 2244.536, 1321.171 2244.224 C 1319.227 2243.576, 1319.856 2242, 1322.059 2242 C 1323.302 2242, 1323.849 2242.436, 1323.438 2243.100 C 1322.946 2243.896, 1323.316 2243.901, 1324.779 2243.118 C 1326.342 2242.282, 1326.923 2242.358, 1327.345 2243.456 C 1327.695 2244.370, 1327.108 2245, 1325.695 2245.225 C 1323.948 2245.503, 1324.139 2245.681, 1326.629 2246.096 C 1329.056 2246.501, 1330.045 2246.156, 1331.039 2244.559 C 1332.158 2242.762, 1332.130 2242.658, 1330.819 2243.741 C 1329.317 2244.982, 1328 2244.505, 1328 2242.720 C 1328 2242.199, 1329.326 2241.968, 1330.947 2242.206 C 1332.568 2242.443, 1333.653 2242.247, 1333.357 2241.769 C 1333.062 2241.291, 1329.526 2240.987, 1325.501 2241.093 L 1318.182 2241.287 1320.192 2245.144 M 1332.591 2244.853 C 1332.301 2245.322, 1332.682 2246.551, 1333.438 2247.584 C 1334.706 2249.318, 1334.771 2249.252, 1334.289 2246.731 C 1333.733 2243.825, 1333.432 2243.492, 1332.591 2244.853 M 1303.320 2254 C 1303.320 2257.575, 1303.502 2259.037, 1303.723 2257.250 C 1303.945 2255.463, 1303.945 2252.537, 1303.723 2250.750 C 1303.502 2248.963, 1303.320 2250.425, 1303.320 2254 M 1314.733 2249.124 C 1315.412 2249.808, 1316.219 2250.115, 1316.526 2249.807 C 1316.834 2249.499, 1316.279 2248.940, 1315.293 2248.564 C 1313.868 2248.022, 1313.753 2248.136, 1314.733 2249.124 M 1382.195 2256.500 C 1382.215 2258.150, 1382.439 2258.704, 1382.693 2257.731 C 1382.947 2256.758, 1382.930 2255.408, 1382.656 2254.731 C 1382.382 2254.054, 1382.175 2254.850, 1382.195 2256.500 M 3364 2354.500 L 3364 2454 3374.969 2454 L 3385.938 2454 3386.219 2442.043 L 3386.500 2430.086 3391.733 2436.449 C 3412.321 2461.483, 3451.244 2463.423, 3476.160 2440.657 C 3485.862 2431.792, 3492.216 2420.903, 3496.144 2406.410 C 3499.206 2395.112, 3499.209 2372.947, 3496.150 2361.500 C 3487.482 2329.071, 3463.435 2310.631, 3432 2312.309 C 3415.653 2313.181, 3404.066 2318.731, 3392.493 2331.231 L 3386 2338.243 3386 2296.622 L 3386 2255 3375 2255 L 3364 2255 3364 2354.500 M 3656 2260.378 C 3656 2260.585, 3656.787 2261.373, 3657.750 2262.128 C 3659.336 2263.371, 3659.371 2263.336, 3658.128 2261.750 C 3656.821 2260.084, 3656 2259.555, 3656 2260.378 M 1382.232 2273 C 1382.232 2274.925, 1382.438 2275.713, 1382.689 2274.750 C 1382.941 2273.787, 1382.941 2272.213, 1382.689 2271.250 C 1382.438 2270.287, 1382.232 2271.075, 1382.232 2273 M 1381.079 2309.583 C 1381.127 2310.748, 1381.364 2310.985, 1381.683 2310.188 C 1381.972 2309.466, 1381.936 2308.603, 1381.604 2308.271 C 1381.272 2307.939, 1381.036 2308.529, 1381.079 2309.583 M 2281.150 2314.035 C 2270.003 2316.955, 2262.543 2321.978, 2255.436 2331.349 L 2251 2337.198 2251 2325.952 L 2251 2314.707 2243.349 2315.353 C 2239.141 2315.709, 2234.416 2316, 2232.849 2316 L 2230 2316 2230 2385 L 2230 2454 2240.963 2454 L 2251.925 2454 2252.213 2407.250 C 2252.497 2360.910, 2252.520 2360.449, 2254.835 2354.715 C 2257.924 2347.061, 2266.416 2337.925, 2273.822 2334.288 C 2278.940 2331.775, 2280.535 2331.500, 2290 2331.500 C 2299.795 2331.500, 2300.864 2331.701, 2305.922 2334.500 C 2312.537 2338.159, 2318.418 2345.334, 2320.528 2352.315 C 2323.348 2361.649, 2323.985 2372.938, 2323.992 2413.750 L 2324 2454 2334.750 2454 L 2345.500 2454.001 2345.215 2412.750 C 2345.039 2387.359, 2345.335 2368.809, 2345.984 2364.500 C 2348.045 2350.832, 2356.072 2339.549, 2367.720 2333.951 C 2374.243 2330.816, 2388.604 2330.043, 2395.817 2332.439 C 2401.915 2334.465, 2409.333 2340.775, 2412.194 2346.372 C 2416.775 2355.330, 2416.976 2357.883, 2416.988 2407.250 L 2417 2454 2428 2454 L 2439 2454 2439 2406.588 C 2439 2355.453, 2438.503 2349.106, 2433.682 2338.656 C 2430.578 2331.928, 2424.387 2324.223, 2419.207 2320.639 C 2404.673 2310.583, 2380.786 2309.442, 2363.415 2317.974 C 2356.351 2321.443, 2345.301 2331.168, 2342.489 2336.390 C 2341.420 2338.376, 2340.284 2340, 2339.965 2340 C 2339.646 2340, 2338.637 2338.306, 2337.724 2336.235 C 2334.708 2329.399, 2326.550 2321.378, 2318.694 2317.526 C 2306.703 2311.645, 2294.579 2310.518, 2281.150 2314.035 M 2626.500 2313.002 C 2611.824 2315.209, 2601.331 2320.525, 2591 2330.989 C 2582.212 2339.890, 2577.844 2346.859, 2573.922 2358.239 C 2566.979 2378.385, 2568.225 2402.125, 2577.215 2421 C 2588.913 2445.560, 2617.556 2459.755, 2647.958 2456.059 C 2664.227 2454.080, 2676.964 2448.370, 2688.383 2437.933 L 2693.947 2432.848 2688.861 2426.674 C 2686.064 2423.278, 2683.387 2420.083, 2682.911 2419.574 C 2682.396 2419.021, 2680.120 2420.258, 2677.274 2422.637 C 2664.395 2433.400, 2652.599 2438, 2637.877 2438 C 2612.278 2438, 2595.720 2422.744, 2591.480 2395.250 L 2590.824 2391 2644.412 2391 L 2698 2391 2698 2379.160 C 2698 2360.868, 2693.855 2347.669, 2684.019 2334.641 C 2671.676 2318.294, 2648.725 2309.659, 2626.500 2313.002 M 2888.488 2312.957 C 2877.279 2315.353, 2864.924 2323.360, 2858.407 2332.452 C 2856.258 2335.451, 2854.162 2337.926, 2853.750 2337.952 C 2853.338 2337.978, 2853 2332.810, 2853 2326.466 L 2853 2314.932 2842.250 2315.216 L 2831.500 2315.500 2831.500 2384.500 L 2831.500 2453.500 2842.250 2453.784 L 2853 2454.068 2853.008 2413.784 C 2853.012 2391.552, 2853.469 2370.587, 2854.029 2367 C 2854.586 2363.425, 2856.621 2357.261, 2858.550 2353.303 C 2862.486 2345.224, 2868.788 2339.082, 2878.022 2334.323 C 2883.056 2331.729, 2884.391 2331.500, 2894.500 2331.500 C 2904.529 2331.500, 2906.004 2331.748, 2911.214 2334.306 C 2918.864 2338.062, 2924.431 2344.540, 2927.192 2352.897 C 2929.284 2359.228, 2929.390 2361.445, 2929.771 2406.750 L 2930.168 2454 2940.496 2454 L 2950.823 2454 2951.200 2442.750 C 2951.407 2436.563, 2951.424 2414.175, 2951.238 2393 C 2950.871 2351.278, 2950.513 2347.979, 2945.107 2336.500 C 2940.431 2326.572, 2931.480 2318.906, 2919.917 2314.924 C 2912.828 2312.484, 2895.716 2311.412, 2888.488 2312.957 M 3134 2313.555 C 3116.637 2317.284, 3100.516 2329.649, 3092.350 2345.500 C 3087.188 2355.520, 3085.188 2362.464, 3084.075 2374.239 C 3082.528 2390.603, 3084.771 2404.324, 3091.211 2417.891 C 3094.404 2424.618, 3096.811 2427.898, 3103.347 2434.431 C 3116.067 2447.143, 3128.744 2452.356, 3147 2452.381 C 3158.723 2452.397, 3167.787 2450.193, 3176.259 2445.267 C 3181.497 2442.222, 3192.241 2432.072, 3194.802 2427.750 C 3195.698 2426.238, 3196.843 2425, 3197.345 2425 C 3198.758 2425, 3197.398 2456.697, 3195.736 2462.500 C 3193.544 2470.158, 3190.287 2475.808, 3185.040 2481.056 C 3176.129 2489.966, 3165.654 2493.548, 3149 2493.377 C 3133.303 2493.216, 3120.578 2488.443, 3108 2478 C 3102.901 2473.766, 3103.792 2473.428, 3095.400 2482.789 C 3089.854 2488.976, 3089.792 2489.112, 3091.608 2491.119 C 3098.217 2498.422, 3117.138 2507.625, 3131.761 2510.649 C 3142.346 2512.838, 3166.725 2512.061, 3176.055 2509.237 C 3197.138 2502.855, 3210.377 2489.560, 3216.619 2468.500 C 3218.238 2463.037, 3218.428 2455.900, 3218.741 2388.701 L 3219.085 2314.902 3208.542 2315.071 L 3198 2315.239 3197.894 2323.870 C 3197.835 2328.616, 3197.687 2333.175, 3197.565 2334 C 3197.442 2334.825, 3197.263 2336.400, 3197.167 2337.500 C 3197.018 2339.210, 3196.726 2339.065, 3195.154 2336.500 C 3192.165 2331.621, 3180.908 2321.745, 3174.380 2318.275 C 3163.044 2312.248, 3148.176 2310.510, 3134 2313.555 M 539 2425.048 L 539 2536.119 543.750 2532.153 C 553.186 2524.275, 614.140 2481.298, 642.500 2462.528 C 715.918 2413.936, 768.552 2384.609, 831.820 2357.042 L 858.118 2345.583 857.862 2329.672 L 857.606 2313.760 850.553 2314.384 C 835.477 2315.719, 792.546 2318.948, 773.500 2320.179 C 746.242 2321.941, 635.993 2321.956, 611 2320.201 C 588.270 2318.605, 547.838 2315.233, 542.750 2314.510 L 539 2313.976 539 2425.048 M 3636 2384.500 L 3636 2454 3647 2454 L 3658 2454 3658 2384.500 L 3658 2315 3647 2315 L 3636 2315 3636 2384.500 M 1380.787 2319 C 1380.545 2320.650, 1380.718 2322, 1381.173 2322 C 1381.628 2322, 1382 2320.650, 1382 2319 C 1382 2317.350, 1381.826 2316, 1381.613 2316 C 1381.401 2316, 1381.029 2317.350, 1380.787 2319 M 1186 2357 L 1186 2395 1223 2395 L 1260 2395 1260 2357 L 1260 2319 1223 2319 L 1186 2319 1186 2357 M 2628.466 2331.022 C 2612.158 2333.936, 2599.014 2346.724, 2593.612 2364.932 C 2590.453 2375.578, 2585.951 2374.518, 2634.250 2374.508 L 2676.500 2374.500 2676.197 2369 C 2675.549 2357.246, 2668.452 2343.357, 2660.157 2337.609 C 2651.653 2331.715, 2639.139 2329.114, 2628.466 2331.022 M 3138.286 2332.451 C 3117.833 2338.843, 3105.008 2360.110, 3106.295 2385.500 C 3107.184 2403.035, 3112.654 2414.703, 3124.434 2424.193 C 3143.954 2439.919, 3175.267 2434.774, 3189.520 2413.500 C 3195.354 2404.792, 3197.227 2398.400, 3197.755 2385.405 C 3198.482 2367.504, 3194.988 2356.607, 3185.025 2345.714 C 3178.927 2339.047, 3173.431 2335.547, 3164.875 2332.884 C 3157.754 2330.668, 3144.673 2330.455, 3138.286 2332.451 M 3418.500 2332.346 C 3404.232 2337.047, 3393.744 2347.780, 3388.155 2363.398 C 3385.936 2369.600, 3385.611 2372.147, 3385.588 2383.500 C 3385.551 2402.108, 3388.812 2412.961, 3397.355 2422.666 C 3414.378 2442.005, 3444.370 2442.765, 3462.124 2424.307 C 3467.653 2418.560, 3471.066 2412.769, 3474.094 2404 C 3475.928 2398.689, 3476.354 2395.213, 3476.420 2385 C 3476.468 2377.520, 3475.952 2370.291, 3475.136 2367 C 3471.513 2352.391, 3462.186 2340.336, 3450.110 2334.654 C 3444.212 2331.878, 3442.370 2331.515, 3433 2331.285 C 3426.324 2331.121, 3421.043 2331.508, 3418.500 2332.346 M 1332.520 2438.968 C 1332.158 2439.553, 1331.330 2439.728, 1330.681 2439.356 C 1330.031 2438.984, 1329.834 2439.048, 1330.241 2439.498 C 1330.649 2439.948, 1330.525 2440.867, 1329.966 2441.541 C 1329.245 2442.410, 1329.419 2442.947, 1330.565 2443.386 C 1331.453 2443.727, 1332.559 2443.773, 1333.021 2443.487 C 1333.484 2443.201, 1334.187 2443.494, 1334.585 2444.138 C 1335.021 2444.843, 1334.877 2445.042, 1334.224 2444.638 C 1333.627 2444.269, 1332.880 2444.385, 1332.565 2444.895 C 1331.962 2445.871, 1330.181 2445.850, 1328.500 2444.847 C 1327.327 2444.147, 1323.818 2445.253, 1323.926 2446.289 C 1324.126 2448.209, 1323.881 2448.234, 1322.445 2446.441 C 1320.960 2444.587, 1320.940 2444.604, 1322.015 2446.815 C 1322.851 2448.536, 1323.466 2448.858, 1324.412 2448.073 C 1325.111 2447.493, 1326.052 2447.351, 1326.502 2447.759 C 1326.952 2448.166, 1327.016 2447.969, 1326.644 2447.319 C 1326.272 2446.670, 1326.425 2445.856, 1326.984 2445.510 C 1328.126 2444.804, 1328.302 2446.049, 1327.395 2448.412 C 1327.063 2449.279, 1326.311 2449.692, 1325.725 2449.330 C 1325.057 2448.917, 1324.898 2449.293, 1325.300 2450.339 C 1325.893 2451.885, 1325.759 2451.888, 1323.470 2450.388 C 1321.954 2449.395, 1321 2449.201, 1321 2449.885 C 1321 2450.498, 1321.525 2451, 1322.167 2451 C 1322.808 2451, 1323.044 2451.289, 1322.691 2451.643 C 1322.337 2451.996, 1321.382 2451.732, 1320.568 2451.056 C 1319.754 2450.381, 1318.678 2450.081, 1318.177 2450.390 C 1317.248 2450.965, 1313.669 2447.679, 1314.397 2446.919 C 1314.618 2446.688, 1314.169 2445.920, 1313.399 2445.211 C 1312.257 2444.158, 1311.982 2444.158, 1311.900 2445.211 C 1311.845 2445.920, 1311.440 2445.375, 1311 2444 C 1310.476 2442.364, 1310.165 2444.975, 1310.100 2451.550 C 1310.041 2457.462, 1309.542 2462.058, 1308.887 2462.713 C 1308.275 2463.325, 1308.117 2464.381, 1308.537 2465.059 C 1309.658 2466.873, 1309.833 2474.985, 1308.765 2475.645 C 1307.584 2476.375, 1308.187 2484.262, 1309.500 2485.259 C 1310.848 2486.283, 1357.868 2486.022, 1358.508 2484.988 C 1358.785 2484.538, 1358.447 2483.943, 1357.756 2483.664 C 1357.020 2483.368, 1357.249 2483.125, 1358.309 2483.079 C 1359.304 2483.036, 1359.869 2482.597, 1359.565 2482.105 C 1359.260 2481.612, 1359.721 2480.937, 1360.588 2480.605 C 1362.954 2479.697, 1363.695 2479.904, 1362 2481 C 1361.175 2481.533, 1361.007 2481.976, 1361.628 2481.985 C 1362.248 2481.993, 1363.293 2481.352, 1363.951 2480.559 C 1364.608 2479.767, 1365.822 2479.378, 1366.648 2479.695 C 1367.574 2480.051, 1368.076 2479.740, 1367.957 2478.886 C 1367.538 2475.891, 1368.066 2474.333, 1369.500 2474.333 C 1370.325 2474.333, 1371 2474.783, 1371 2475.333 C 1371 2475.883, 1371.289 2476.044, 1371.643 2475.691 C 1371.996 2475.337, 1371.707 2474.352, 1371.001 2473.501 C 1369.920 2472.198, 1369.976 2472.054, 1371.359 2472.584 C 1372.284 2472.939, 1373 2472.721, 1373 2472.084 C 1373 2471.402, 1374.075 2471.657, 1375.711 2472.727 C 1377.261 2473.740, 1378.081 2473.946, 1377.625 2473.206 C 1377.185 2472.492, 1377.336 2471.300, 1377.962 2470.545 C 1378.756 2469.589, 1378.777 2468.980, 1378.032 2468.520 C 1377.447 2468.158, 1377.241 2467.420, 1377.574 2466.880 C 1377.908 2466.339, 1377.045 2464.844, 1375.656 2463.557 C 1373.644 2461.692, 1373.018 2461.510, 1372.577 2462.660 C 1372.272 2463.456, 1372.462 2463.833, 1373 2463.500 C 1373.568 2463.149, 1373.710 2463.592, 1373.340 2464.558 C 1372.756 2466.079, 1372.626 2466.083, 1371.797 2464.602 C 1371.299 2463.712, 1371.121 2462.613, 1371.402 2462.159 C 1371.682 2461.705, 1371.237 2461.333, 1370.413 2461.333 C 1369.589 2461.333, 1369.135 2461.910, 1369.406 2462.616 C 1369.696 2463.371, 1369.361 2463.692, 1368.592 2463.397 C 1367.793 2463.090, 1367.391 2461.586, 1367.555 2459.518 C 1367.702 2457.660, 1367.187 2455.321, 1366.409 2454.320 C 1365.487 2453.133, 1365.174 2453.023, 1365.510 2454.004 C 1365.932 2455.236, 1364.942 2455.499, 1360.041 2455.458 C 1355.826 2455.422, 1353.900 2455.817, 1353.526 2456.794 C 1353.233 2457.557, 1353.200 2458.515, 1353.453 2458.924 C 1353.705 2459.332, 1353.296 2459.667, 1352.544 2459.667 C 1351.511 2459.667, 1351.401 2459.075, 1352.093 2457.254 C 1353.021 2454.815, 1351.940 2451.381, 1350.320 2451.623 C 1348.988 2451.822, 1346.556 2450.728, 1345.765 2449.573 C 1345.276 2448.858, 1345.026 2448.928, 1345.015 2449.782 C 1345.007 2450.487, 1346.013 2451.487, 1347.250 2452.004 C 1349.283 2452.853, 1349.212 2452.914, 1346.522 2452.641 C 1344.403 2452.425, 1343.515 2451.784, 1343.443 2450.419 C 1343.200 2445.797, 1342.914 2445, 1341.500 2445 C 1340.675 2445, 1340.053 2445.338, 1340.118 2445.750 C 1340.460 2447.916, 1339.833 2448.174, 1338.445 2446.441 C 1336.960 2444.587, 1336.940 2444.604, 1338.015 2446.815 C 1338.851 2448.536, 1339.466 2448.858, 1340.412 2448.073 C 1341.111 2447.493, 1341.980 2447.313, 1342.342 2447.675 C 1343.797 2449.130, 1342.838 2449.834, 1339.907 2449.463 C 1337.463 2449.154, 1336.936 2449.390, 1337.395 2450.588 C 1337.726 2451.449, 1337.550 2451.840, 1336.989 2451.493 C 1336.445 2451.157, 1336 2450.009, 1336 2448.941 C 1336 2446.700, 1335.005 2446.473, 1332.965 2448.250 C 1332.176 2448.938, 1332.570 2448.310, 1333.840 2446.855 C 1335.322 2445.159, 1335.765 2443.973, 1335.075 2443.546 C 1334.484 2443.181, 1334 2442.207, 1334 2441.382 C 1334 2440.557, 1334.419 2440.141, 1334.931 2440.457 C 1335.443 2440.774, 1336.190 2440.463, 1336.591 2439.766 C 1336.992 2439.070, 1336.952 2438.834, 1336.502 2439.241 C 1336.052 2439.649, 1335.120 2439.515, 1334.431 2438.943 C 1333.562 2438.221, 1332.977 2438.229, 1332.520 2438.968 M 1332 2440.500 C 1331.282 2441.365, 1331.185 2442, 1331.771 2442 C 1332.329 2442, 1333.045 2441.325, 1333.362 2440.500 C 1333.678 2439.675, 1333.781 2439, 1333.591 2439 C 1333.401 2439, 1332.685 2439.675, 1332 2440.500 M 1317.738 2445.637 C 1317.344 2446.262, 1317.652 2447.296, 1318.422 2447.935 C 1319.488 2448.820, 1319.999 2448.810, 1320.565 2447.894 C 1321.018 2447.161, 1320.887 2446.952, 1320.230 2447.358 C 1319.637 2447.724, 1318.994 2447.231, 1318.802 2446.262 C 1318.574 2445.110, 1318.205 2444.894, 1317.738 2445.637 M 1356.031 2456.500 C 1356.031 2457.050, 1356.411 2458.100, 1356.876 2458.834 C 1357.546 2459.891, 1357.859 2459.810, 1358.384 2458.441 C 1358.749 2457.491, 1358.811 2456.478, 1358.524 2456.190 C 1358.236 2455.902, 1357.993 2456.304, 1357.985 2457.083 C 1357.972 2458.250, 1357.798 2458.235, 1357 2457 C 1356.467 2456.175, 1356.031 2455.950, 1356.031 2456.500 M 1361.250 2456.662 C 1360.563 2456.940, 1360.045 2458.367, 1360.100 2459.833 L 1360.199 2462.500 1360.877 2460.074 C 1361.250 2458.740, 1362.117 2457.536, 1362.803 2457.399 C 1363.489 2457.262, 1363.589 2457.379, 1363.025 2457.658 C 1361.309 2458.509, 1361.883 2459.982, 1363.664 2459.299 C 1364.656 2458.918, 1365.078 2459.066, 1364.708 2459.663 C 1364.367 2460.215, 1364.631 2460.667, 1365.294 2460.667 C 1365.957 2460.667, 1366.569 2459.548, 1366.654 2458.180 C 1366.765 2456.376, 1366.563 2456.079, 1365.919 2457.097 C 1365.288 2458.094, 1365.026 2458.139, 1365.015 2457.250 C 1365 2455.980, 1363.514 2455.749, 1361.250 2456.662 M 1122 2529.500 L 1122 2598 1189.500 2598 L 1257 2598 1257 2529.500 L 1257 2461 1189.500 2461 L 1122 2461 1122 2529.500 M 1365.100 2463.705 C 1365.829 2464.917, 1366.640 2465.694, 1366.903 2465.431 C 1367.166 2465.168, 1366.570 2464.176, 1365.579 2463.226 C 1363.857 2461.577, 1363.835 2461.598, 1365.100 2463.705 M 1375.917 2465.750 C 1375.871 2466.162, 1375.721 2467.512, 1375.584 2468.750 C 1375.331 2471.026, 1376.400 2471.779, 1377.457 2470.069 C 1377.774 2469.557, 1377.595 2468.868, 1377.060 2468.537 C 1376.525 2468.206, 1376.341 2467.275, 1376.651 2466.468 C 1376.960 2465.661, 1376.941 2465, 1376.607 2465 C 1376.273 2465, 1375.963 2465.338, 1375.917 2465.750 M 1382.223 2469.572 C 1382.113 2470.907, 1382.190 2472, 1382.395 2472 C 1383.138 2472, 1383.793 2467.990, 1383.118 2467.573 C 1382.737 2467.337, 1382.334 2468.237, 1382.223 2469.572 M 1390.459 2469.067 C 1390.096 2469.653, 1390.014 2470.348, 1390.276 2470.610 C 1390.538 2470.872, 1391.019 2470.392, 1391.345 2469.543 C 1392.021 2467.781, 1391.445 2467.471, 1390.459 2469.067 M 1369 2477.393 C 1369 2477.609, 1369.698 2478.054, 1370.552 2478.382 C 1371.442 2478.723, 1371.843 2478.555, 1371.493 2477.989 C 1370.906 2477.038, 1369 2476.583, 1369 2477.393 M 1361 2485 C 1360.099 2485.582, 1359.975 2485.975, 1360.691 2485.985 C 1361.346 2485.993, 1362.160 2485.550, 1362.500 2485 C 1363.267 2483.758, 1362.921 2483.758, 1361 2485 M 992 2675 L 992 2724 1040.500 2724 L 1089 2724 1089 2675 L 1089 2626 1040.500 2626 L 992 2626 992 2675" stroke="none" fill="black" fill-rule="evenodd"/>
</svg>